<svg xmlns="http://www.w3.org/2000/svg" width="337.159" height="252.86" viewBox="0 0 337.159 252.86"><defs><style>.a{fill:#3599a5;}.a,.b,.c,.d{fill-rule:evenodd;}.b{fill:#6fcdd6;}.c{fill:#2574a9;}.d{fill:#16aedb;}</style></defs><path class="a" d="M633.421,376.707,725.275,438.6a31.218,31.218,0,0,1,13.772,25.888v24.459c0,25.073-28.065,39.915-48.789,25.8L598.4,452.2a31.217,31.217,0,0,1-13.645-25.8V402.6C584.759,377.592,612.686,362.735,633.421,376.707Z" transform="translate(-584.759 -267.36)"/><path class="b" d="M633.421,296.513l91.855-61.894a31.218,31.218,0,0,0,13.772-25.888V184.27c0-25.073-28.065-39.915-48.789-25.8L598.4,221.022a31.217,31.217,0,0,0-13.645,25.8v65.212a31.217,31.217,0,0,0,13.645,25.8l35.572,24.441s-19.908-18.249-19.908-38.158S633.421,296.513,633.421,296.513Z" transform="translate(-584.759 -153)"/><path class="c" d="M633.421,376.707,725.275,438.6a31.218,31.218,0,0,1,13.772,25.888v24.459c0,25.073-28.065,39.915-48.789,25.8L598.4,452.2a31.217,31.217,0,0,1-13.645-25.8V402.6C584.759,377.592,612.686,362.735,633.421,376.707Z" transform="translate(-584.759 -267.36)"/><path class="d" d="M633.421,296.513l91.855-61.894a31.218,31.218,0,0,0,13.772-25.888V184.27c0-25.073-28.065-39.915-48.789-25.8L598.4,221.022a31.217,31.217,0,0,0-13.645,25.8v65.212a31.217,31.217,0,0,0,13.645,25.8l35.572,24.441s-19.908-18.249-19.908-38.158S633.421,296.513,633.421,296.513Z" transform="translate(-584.759 -153)"/><g transform="translate(182.87)"><path class="a" d="M1074.408,296.513l-91.854-61.894a31.218,31.218,0,0,1-13.773-25.888V184.27c0-25.073,28.065-39.915,48.788-25.8l91.855,62.554a31.217,31.217,0,0,1,13.646,25.8v23.8C1123.07,295.627,1095.143,310.485,1074.408,296.513Z" transform="translate(-968.781 -153)"/><path class="b" d="M1074.408,310.285,982.554,372.18a31.218,31.218,0,0,0-13.773,25.888v24.459c0,25.073,28.065,39.915,48.788,25.8l91.855-62.553a31.217,31.217,0,0,0,13.646-25.8V294.762a31.217,31.217,0,0,0-13.646-25.8l-35.572-24.441s19.908,18.249,19.908,38.158S1074.408,310.285,1074.408,310.285Z" transform="translate(-968.781 -200.938)"/><path class="c" d="M1074.408,296.513l-91.854-61.894a31.218,31.218,0,0,1-13.773-25.888V184.27c0-25.073,28.065-39.915,48.788-25.8l91.855,62.554a31.217,31.217,0,0,1,13.646,25.8v23.8C1123.07,295.627,1095.143,310.485,1074.408,296.513Z" transform="translate(-968.781 -153)"/><path class="d" d="M1074.408,310.285,982.554,372.18a31.218,31.218,0,0,0-13.773,25.888v24.459c0,25.073,28.065,39.915,48.788,25.8l91.855-62.553a31.217,31.217,0,0,0,13.646-25.8V294.762a31.217,31.217,0,0,0-13.646-25.8l-35.572-24.441s19.908,18.249,19.908,38.158S1074.408,310.285,1074.408,310.285Z" transform="translate(-968.781 -200.938)"/></g></svg>