<?xml version="1.0" encoding="UTF-8"?>
<svg width="267px" height="202px" viewBox="0 0 267 202" version="1.1" xmlns="http://www.w3.org/2000/svg" xmlns:xlink="http://www.w3.org/1999/xlink">
    <!-- Generator: Sketch 60.1 (88133) - https://sketch.com -->
    <title>TGC_Square_Logo_Grayscale</title>
    <desc>Created with Sketch.</desc>
    <g id="Page-1" stroke="none" stroke-width="1" fill="none" fill-rule="evenodd">
        <g id="TGC_Square_Logo_Grayscale">
            <path d="M38.8,87.4 L111.5,136.4 C118.3,141 122.4,148.7 122.4,156.9 L122.4,176.3 C122.4,196.2 100.2,207.9 83.8,196.7 L11.1,147.2 C4.3,142.6 0.29966336,134.9 0.29966336,126.8 L0.29966336,108 C0.2,88.1 22.4,76.4 38.8,87.4 Z" id="Path" fill="#3599A5"></path>
            <path d="M38.8,114.5 L111.5,65.5 C118.3,60.9 122.4,53.2 122.4,45 L122.4,25.6 C122.4,5.7 100.2,-6 83.8,5.2 L11.1,54.7 C4.3,59.3 0.3,67 0.3,75.1 L0.3,107.9 L0.3,126.7 C0.3,134.9 4.3,142.5 11.1,147.1 L39.3,166.5 C39.3,166.5 23.5,152 23.5,136.3 C23.5,120.6 38.8,114.5 38.8,114.5 Z" id="Path" fill="#6FCDD6"></path>
            <path d="M38.8,87.4 L111.5,136.4 C118.3,141 122.4,148.7 122.4,156.9 L122.4,176.3 C122.4,196.2 100.2,207.9 83.8,196.7 L11.1,147.2 C4.3,142.6 0.29966336,134.9 0.29966336,126.8 L0.29966336,108 C0.2,88.1 22.4,76.4 38.8,87.4 Z" id="Path" fill="#DEDEDE"></path>
            <path d="M38.8,114.5 L111.5,65.5 C118.3,60.9 122.4,53.2 122.4,45 L122.4,25.6 C122.4,5.7 100.2,-6 83.8,5.2 L11.1,54.7 C4.3,59.3 0.3,67 0.3,75.1 L0.3,107.9 L0.3,126.7 C0.3,134.9 4.3,142.5 11.1,147.1 L39.3,166.5 C39.3,166.5 23.5,152 23.5,136.3 C23.5,120.6 38.8,114.5 38.8,114.5 Z" id="Path" fill="#FFFFFF"></path>
            <path d="M227.9,114 L155.4,65.2 C148.6,60.6 144.5,53 144.5,44.8 L144.5,25.5 C144.5,5.7 166.6,-6 183,5.1 L255.5,54.4 C262.2,59 266.3,66.6 266.3,74.8 L266.3,93.6 C266.3,113.4 244.3,125.1 227.9,114 Z" id="Path" fill="#3599A5"></path>
            <path d="M227.9,87.1 L155.4,135.9 C148.6,140.5 144.5,148.1 144.5,156.3 L144.5,175.6 C144.5,195.4 166.6,207.1 183,196 L255.5,146.7 C262.2,142.1 266.3,134.5 266.3,126.3 L266.3,93.6 L266.3,74.8 C266.3,66.7 262.3,59 255.5,54.4 L227.4,35.1 C227.4,35.1 243.1,49.5 243.1,65.2 C243.1,80.9 227.9,87.1 227.9,87.1 Z" id="Path" fill="#6FCDD6"></path>
            <path d="M227.9,114 L155.4,65.2 C148.6,60.6 144.5,53 144.5,44.8 L144.5,25.5 C144.5,5.7 166.6,-6 183,5.1 L255.5,54.4 C262.2,59 266.3,66.6 266.3,74.8 L266.3,93.6 C266.3,113.4 244.3,125.1 227.9,114 Z" id="Path" fill="#DEDEDE"></path>
            <path d="M227.9,87.1 L155.4,135.9 C148.6,140.5 144.5,148.1 144.5,156.3 L144.5,175.6 C144.5,195.4 166.6,207.1 183,196 L255.5,146.7 C262.2,142.1 266.3,134.5 266.3,126.3 L266.3,93.6 L266.3,74.8 C266.3,66.7 262.3,59 255.5,54.4 L227.4,35.1 C227.4,35.1 243.1,49.5 243.1,65.2 C243.1,80.9 227.9,87.1 227.9,87.1 Z" id="Path" fill="#FFFFFF"></path>
        </g>
    </g>
</svg>