<svg width="49" height="48" viewBox="0 0 49 48" fill="none" xmlns="http://www.w3.org/2000/svg">
<g id="Icons / Branded Icons / AI">
<path id="Vector" d="M33.901 25.8498C34.681 25.5718 35.203 24.8278 35.203 23.9998C35.203 23.1718 34.679 22.4279 33.903 22.1498L30.335 20.8639C26.811 19.5958 24.063 16.8439 22.7933 13.3221L21.5073 9.75411C21.2273 8.97813 20.4853 8.4541 19.6613 8.4541H19.6593C18.8333 8.4541 18.0913 8.97608 17.8093 9.75411L16.5253 13.3221C15.2553 16.8461 12.5053 19.5961 8.9815 20.8639L5.41753 22.1498C4.63756 22.4298 4.11353 23.1718 4.11353 23.9998C4.11353 24.8278 4.6375 25.5698 5.41354 25.8498L8.98155 27.1358C12.5055 28.4038 15.2535 31.1538 16.5233 34.6776L17.8093 38.2476C18.0893 39.0236 18.8333 39.5456 19.6593 39.5456H19.6613C20.4873 39.5456 21.2293 39.0216 21.5073 38.2456L22.7933 34.6776C24.0613 31.1536 26.8133 28.4056 30.335 27.1358L33.901 25.8498ZM29.251 24.1238C24.8271 25.7179 21.375 29.1678 19.7832 33.5917L19.6592 33.9377L19.5352 33.5917C17.9392 29.1677 14.4892 25.7157 10.0673 24.1238L9.72131 23.9998L10.0673 23.8758C14.4913 22.2818 17.9434 18.8318 19.5352 14.408L19.6592 14.062L19.7832 14.408C21.3772 18.832 24.8272 22.284 29.251 23.8758L29.597 23.9998L29.251 24.1238Z" fill="#2574A9"/>
<path id="Vector_2" d="M28.4088 10.3399L30.2148 10.9919C31.7788 11.5559 32.9948 12.7739 33.5587 14.3358L34.2087 16.1398C34.4627 16.8478 35.1387 17.3218 35.8887 17.3218C36.6387 17.3218 37.3167 16.8458 37.5686 16.1418L38.2206 14.3358C38.7846 12.7718 40.0026 11.5538 41.5646 10.9919L43.3726 10.3399C44.0746 10.0859 44.5506 9.4119 44.5526 8.66393C44.5546 7.91595 44.0846 7.23996 43.3726 6.97991L41.5646 6.33193C40.0026 5.76791 38.7846 4.54992 38.2206 2.98797L37.5686 1.182C37.3147 0.474008 36.6406 0 35.8907 0C35.1387 0 34.4627 0.475999 34.2107 1.18L33.5587 2.98597C32.9947 4.54997 31.7767 5.76597 30.2148 6.32993L28.4028 6.98191C27.6988 7.23791 27.2248 7.9139 27.2268 8.66393C27.2308 9.4139 27.7048 10.0879 28.4088 10.3399ZM35.8906 5.52794C36.6486 6.82795 37.7266 7.90392 39.0226 8.65993C37.7226 9.41795 36.6466 10.4959 35.8906 11.7919C35.1326 10.4939 34.0547 9.41595 32.7586 8.65993C34.0567 7.90192 35.1326 6.82596 35.8906 5.52794Z" fill="#16AEDB"/>
<path id="Vector_3" d="M43.3709 37.6601L41.5649 37.0082C40.0029 36.4441 38.7849 35.2261 38.2209 33.6642L37.569 31.8582C37.315 31.1522 36.639 30.6782 35.889 30.6782C35.137 30.6782 34.461 31.1542 34.209 31.8582L33.557 33.6642C32.993 35.2282 31.775 36.4462 30.2131 37.0082L28.4091 37.6581C27.7031 37.9101 27.2291 38.5861 27.2271 39.3341C27.2251 40.0821 27.6971 40.7601 28.4071 41.0181L30.2131 41.6701C31.7771 42.2341 32.9951 43.4501 33.557 45.0141L34.207 46.818C34.465 47.524 35.139 48 35.891 48C36.6431 48 37.3191 47.524 37.571 46.82L38.223 45.0141C38.787 43.4521 40.005 42.2341 41.5669 41.6701L43.381 41.0181C44.083 40.7601 44.555 40.0861 44.553 39.3361C44.553 38.5861 44.0749 37.9141 43.3709 37.6601ZM35.8911 42.4721C35.1331 41.1721 34.0551 40.0961 32.7591 39.3401C34.0571 38.5821 35.1351 37.5041 35.8911 36.2081C36.6491 37.5061 37.7271 38.5841 39.0231 39.3401C37.7271 40.0981 36.6491 41.1741 35.8911 42.4721Z" fill="#949494"/>
</g>
</svg>
