<svg xmlns="http://www.w3.org/2000/svg" width="90.724" height="52.573" viewBox="0 0 90.724 52.573">
  <g id="Business_Icon" data-name="Business Icon" transform="translate(-742.558 -439.198)">
    <g id="Group_130" data-name="Group 130" transform="translate(775.545 439.198)">
      <path id="Path_91" data-name="Path 91" d="M216.792,123.107a12.37,12.37,0,1,1,12.367-12.37A12.384,12.384,0,0,1,216.792,123.107Zm0-20.617a8.247,8.247,0,1,0,8.244,8.247A8.255,8.255,0,0,0,216.792,102.49Z" transform="translate(-204.419 -98.367)" fill="#707070"/>
    </g>
    <g id="Group_131" data-name="Group 131" transform="translate(764.207 467.073)">
      <path id="Path_92" data-name="Path 92" d="M245.748,132.969h-43.3a2.059,2.059,0,0,1-2.06-2.06v-8.083A14.635,14.635,0,0,1,213.9,108.277a2,2,0,0,1,1.587.58,12.357,12.357,0,0,0,17.225,0,2.036,2.036,0,0,1,1.59-.58,14.635,14.635,0,0,1,13.507,14.548v8.083A2.059,2.059,0,0,1,245.748,132.969Zm-41.233-4.12h39.173v-6.023a10.5,10.5,0,0,0-8.838-10.338,16.486,16.486,0,0,1-21.5,0,10.5,10.5,0,0,0-8.832,10.338Z" transform="translate(-200.391 -108.271)" fill="#707070"/>
    </g>
    <g id="Group_132" data-name="Group 132" transform="translate(804.411 445.384)">
      <path id="Path_93" data-name="Path 93" d="M224.982,121.182a10.308,10.308,0,1,1,10.307-10.307A10.319,10.319,0,0,1,224.982,121.182Zm0-16.493a6.185,6.185,0,1,0,6.184,6.186A6.191,6.191,0,0,0,224.982,104.688Z" transform="translate(-214.675 -100.565)" fill="#16aedb"/>
    </g>
    <g id="Group_133" data-name="Group 133" transform="translate(812.646 469.094)">
      <path id="Path_94" data-name="Path 94" d="M236.174,127.543H219.661a2.062,2.062,0,0,1,0-4.123h14.453V119.3a6.189,6.189,0,0,0-6.184-6.184h-.194a11.459,11.459,0,0,1-8.052,3.093,2.062,2.062,0,0,1,0-4.123,7.429,7.429,0,0,0,5.7-2.443,2.061,2.061,0,0,1,1.506-.65h1.041A10.319,10.319,0,0,1,238.237,119.3v6.186A2.062,2.062,0,0,1,236.174,127.543Z" transform="translate(-217.601 -108.989)" fill="#16aedb"/>
    </g>
    <g id="Group_134" data-name="Group 134" transform="translate(750.815 445.384)">
      <path id="Path_95" data-name="Path 95" d="M205.94,121.182a10.308,10.308,0,1,1,10.31-10.307A10.319,10.319,0,0,1,205.94,121.182Zm0-16.493a6.185,6.185,0,1,0,6.186,6.186A6.191,6.191,0,0,0,205.94,104.688Z" transform="translate(-195.633 -100.565)" fill="#00639b"/>
    </g>
    <g id="Group_135" data-name="Group 135" transform="translate(742.558 469.094)">
      <path id="Path_96" data-name="Path 96" d="M211.275,127.543H194.762a2.064,2.064,0,0,1-2.063-2.06V119.3a10.307,10.307,0,0,1,10.284-10.307h1.03a2.054,2.054,0,0,1,1.494.642,7.55,7.55,0,0,0,5.745,2.451,2.062,2.062,0,1,1,0,4.123,11.583,11.583,0,0,1-8.081-3.093h-.189a6.178,6.178,0,0,0-6.161,6.184v4.123h14.453a2.062,2.062,0,0,1,0,4.123Z" transform="translate(-192.699 -108.989)" fill="#00639b"/>
    </g>
  </g>
</svg>
