<?xml version="1.0" encoding="UTF-8"?>
<svg width="279px" height="457px" viewBox="0 0 279 457" version="1.1" xmlns="http://www.w3.org/2000/svg" xmlns:xlink="http://www.w3.org/1999/xlink">
    <!-- Generator: Sketch 60.1 (88133) - https://sketch.com -->
    <title>chevron-right-white</title>
    <desc>Created with Sketch.</desc>
    <g id="Page-1" stroke="none" stroke-width="1" fill="none" fill-rule="evenodd">
        <g id="chevron-right-white" transform="translate(139.500000, 228.000000) rotate(-180.000000) translate(-139.500000, -228.000000) translate(0.000000, -1.000000)" fill-rule="nonzero">
            <g id="Chevron-Left-(1)" transform="translate(139.500000, 229.000000) rotate(-180.000000) translate(-139.500000, -229.000000) translate(0.000000, -0.000000)">
                <path d="M87.935,198.597 L253.922,310.444 C269.48145,320.928942 278.81,338.463524 278.81,357.226 L278.81,401.426 C278.81,446.734 228.095,473.555 190.646,448.052 L24.659,335.014 C9.23205409,324.508418 -1.13686838e-13,307.052349 -1.13686838e-13,288.388 L-1.13686838e-13,245.379 C-1.13686838e-13,200.196 50.465,173.349 87.935,198.597 Z" id="Path" fill="#298995"></path>
                <path d="M87.935,260.336 L253.921,148.489 C269.480966,138.004407 278.81,120.469708 278.81,101.707 L278.81,57.507 C278.81,12.199 228.095,-14.622 190.646,10.881 L24.659,123.919 C9.23205409,134.424582 -1.13686838e-13,151.880651 -1.13686838e-13,170.545 L-1.13686838e-13,288.388 C-1.13686838e-13,307.052349 9.23205409,324.508418 24.659,335.014 L88.94,379.18 C88.94,379.18 52.964,346.203 52.964,310.227 C52.964,274.251 87.935,260.336 87.935,260.336 Z" id="Path" fill="#63BDC8"></path>
                <path d="M87.935,198.597 L253.922,310.444 C269.48145,320.928942 278.81,338.463524 278.81,357.226 L278.81,401.426 C278.81,446.734 228.095,473.555 190.646,448.052 L24.659,335.014 C9.23205409,324.508418 -1.13686838e-13,307.052349 -1.13686838e-13,288.388 L-1.13686838e-13,245.379 C-1.13686838e-13,200.196 50.465,173.349 87.935,198.597 Z" id="Path" fill="#DEDEDE"></path>
                <path d="M87.935,260.336 L253.921,148.489 C269.480966,138.004407 278.81,120.469708 278.81,101.707 L278.81,57.507 C278.81,12.199 228.095,-14.622 190.646,10.881 L24.659,123.919 C9.23205409,134.424582 -1.13686838e-13,151.880651 -1.13686838e-13,170.545 L-1.13686838e-13,288.388 C-1.13686838e-13,307.052349 9.23205409,324.508418 24.659,335.014 L88.94,379.18 C88.94,379.18 52.964,346.203 52.964,310.227 C52.964,274.251 87.935,260.336 87.935,260.336 Z" id="Path" fill="#FFFFFF"></path>
            </g>
        </g>
    </g>
</svg>