<svg xmlns="http://www.w3.org/2000/svg" xmlns:xlink="http://www.w3.org/1999/xlink" width="278.81" height="456.933" viewBox="0 0 278.81 456.933">
  <defs>
    <style>.a{fill:none;clip-rule:evenodd;}.b{fill:#298995;}.b,.c,.d,.h{fill-rule:evenodd;}.c{fill:#63bdc8;}.d{fill:#dedede;}.e{opacity:0.2;}.f{clip-path:url(#a);}.g{fill:#fff;}.h{fill:#ffffff;}</style><clipPath id="a"><path class="a" d="M-437.506,1554.632l165.987,111.847a56.413,56.413,0,0,1,24.888,46.782v44.2c0,45.308-50.715,72.129-88.164,46.626l-165.987-113.038a56.411,56.411,0,0,1-24.659-46.626v-43.009C-525.441,1556.231-474.976,1529.384-437.506,1554.632Z" transform="translate(525.441 -1544.907)"/></clipPath></defs><g transform="translate(278.81 456.933) rotate(180)"><g transform="translate(0 0)"><path class="b" d="M-437.506,1554.632l165.987,111.847a56.413,56.413,0,0,1,24.888,46.782v44.2c0,45.308-50.715,72.129-88.164,46.626l-165.987-113.038a56.411,56.411,0,0,1-24.659-46.626v-43.009C-525.441,1556.231-474.976,1529.384-437.506,1554.632Z" transform="translate(525.441 -1357.035)"/><path class="c" d="M-437.506,817.429-271.52,705.582A56.412,56.412,0,0,0-246.631,658.8V614.6c0-45.308-50.715-72.129-88.164-46.626L-500.782,681.012a56.411,56.411,0,0,0-24.659,46.626V845.481a56.411,56.411,0,0,0,24.659,46.626l64.281,44.166s-35.976-32.977-35.976-68.953S-437.506,817.429-437.506,817.429Z" transform="translate(525.441 -558.093)"/><path class="d" d="M-437.506,1554.632l165.987,111.847a56.413,56.413,0,0,1,24.888,46.782v44.2c0,45.308-50.715,72.129-88.164,46.626l-165.987-113.038a56.411,56.411,0,0,1-24.659-46.626v-43.009C-525.441,1556.231-474.976,1529.384-437.506,1554.632Z" transform="translate(525.441 -1357.035)"/><g class="e" transform="translate(0 187.872)"></g>
<path class="h" d="M-437.506,817.429-271.52,705.582A56.412,56.412,0,0,0-246.631,658.8V614.6c0-45.308-50.715-72.129-88.164-46.626L-500.782,681.012a56.411,56.411,0,0,0-24.659,46.626V845.481a56.411,56.411,0,0,0,24.659,46.626l64.281,44.166s-35.976-32.977-35.976-68.953S-437.506,817.429-437.506,817.429Z" transform="translate(525.441 -558.093)"/></g></g></svg>