<svg xmlns="http://www.w3.org/2000/svg" id="Email_Icon" data-name="Email Icon" width="33" height="33" viewBox="0 0 33 33">
  <path id="Path_86" data-name="Path 86" d="M1.631,30.256l9.344-8.528L1.631,14.609V30.256ZM18.317,3.411l-1.78-1.335L14.683,3.411h-2.67L16.537,0l4.524,3.411Zm10.5,5.98L32.7,12.31a.906.906,0,0,1,.3.667V30.034A2.912,2.912,0,0,1,30.108,33H2.892A2.96,2.96,0,0,1,0,30.034V12.978a1.333,1.333,0,0,1,.3-.667L4.189,9.391v2L2.151,12.978,16.537,23.953,27.512,15.5l1.631-1.187,1.706-1.335-2.031-1.584Zm2.55,5.218-9.344,7.119,9.344,8.528V14.609Zm-1.261,16.76-9.418-8.6-4.153,3.189L12.31,22.766l-9.418,8.6Z" transform="translate(0)" fill="#16aedb"/>
  <path id="Path_87" data-name="Path 87" d="M148.816,116.631a.816.816,0,1,1,0-1.631h9.418a.816.816,0,0,1,0,1.631Z" transform="translate(-137.025 -106.472)" fill="gray"/>
  <path id="Path_88" data-name="Path 88" d="M148.816,175.631a.816.816,0,1,1,0-1.631h9.418a.816.816,0,0,1,0,1.631Z" transform="translate(-137.025 -161.097)" fill="gray"/>
  <path id="Path_89" data-name="Path 89" d="M77.869,56.861,76.164,58.1V48.486a.824.824,0,0,0-.823-.823H55.149a.824.824,0,0,0-.823.823v9.678l-1.706-1.3V48.486a2.532,2.532,0,0,1,2.529-2.529H75.341a2.531,2.531,0,0,1,2.529,2.529Z" transform="translate(-48.718 -42.549)" fill="#2574a9"/>
</svg>