<svg xmlns="http://www.w3.org/2000/svg" width="53.412" height="58.662" viewBox="0 0 53.412 58.662">
  <g id="Evenings_Available_Icon" data-name="Evenings Available Icon" transform="translate(-542.244 -116.958)">
    <g id="Group_35" data-name="Group 35" transform="translate(542.244 116.958)">
      <path id="Path_73" data-name="Path 73" d="M568.95,119.208a26.706,26.706,0,1,1,0,53.412,1.882,1.882,0,1,1,0-3.763,22.943,22.943,0,1,0-22.942-22.943,1.882,1.882,0,0,1-3.764,0A26.736,26.736,0,0,1,568.95,119.208Z" transform="translate(-542.244 -119.208)" fill="#00a0d4"/>
    </g>
    <g id="Group_41" data-name="Group 41" transform="translate(542.55 147.904)">
      <g id="Group_36" data-name="Group 36" transform="translate(0 0)">
        <ellipse id="Ellipse_2" data-name="Ellipse 2" cx="1.509" cy="1.509" rx="1.509" ry="1.509" transform="translate(0.375 0.376)" fill="#6d6d6d"/>
        <path id="Path_74" data-name="Path 74" d="M593.465,137.9a1.885,1.885,0,1,1-1.883,1.885A1.887,1.887,0,0,1,593.465,137.9Zm0,3.017a1.132,1.132,0,1,0-1.131-1.132A1.134,1.134,0,0,0,593.465,140.921Z" transform="translate(-591.582 -137.904)" fill="#6d6d6d"/>
      </g>
      <g id="Group_37" data-name="Group 37" transform="translate(1.93 5.612)">
        <ellipse id="Ellipse_3" data-name="Ellipse 3" cx="1.509" cy="1.509" rx="1.509" ry="1.509" transform="translate(0.376 0.377)" fill="#6d6d6d"/>
        <path id="Path_75" data-name="Path 75" d="M591.535,132.291a1.885,1.885,0,1,1-1.885,1.886A1.888,1.888,0,0,1,591.535,132.291Zm0,3.018a1.132,1.132,0,1,0-1.133-1.132A1.134,1.134,0,0,0,591.535,135.309Z" transform="translate(-589.65 -132.291)" fill="#6d6d6d"/>
      </g>
      <g id="Group_38" data-name="Group 38" transform="translate(5.551 10.863)">
        <ellipse id="Ellipse_4" data-name="Ellipse 4" cx="1.509" cy="1.509" rx="1.509" ry="1.509" transform="translate(0.376 0.376)" fill="#6d6d6d"/>
        <path id="Path_76" data-name="Path 76" d="M587.914,127.041a1.885,1.885,0,1,1-1.885,1.885A1.888,1.888,0,0,1,587.914,127.041Zm0,3.018a1.132,1.132,0,1,0-1.133-1.133A1.135,1.135,0,0,0,587.914,130.059Z" transform="translate(-586.029 -127.041)" fill="#6d6d6d"/>
      </g>
      <g id="Group_39" data-name="Group 39" transform="translate(10.56 15.389)">
        <ellipse id="Ellipse_5" data-name="Ellipse 5" cx="1.509" cy="1.509" rx="1.509" ry="1.509" transform="translate(0.376 0.377)" fill="#6d6d6d"/>
        <path id="Path_77" data-name="Path 77" d="M582.905,122.514a1.885,1.885,0,1,1-1.885,1.886A1.888,1.888,0,0,1,582.905,122.514Zm0,3.018a1.132,1.132,0,1,0-1.133-1.132A1.134,1.134,0,0,0,582.905,125.532Z" transform="translate(-581.02 -122.514)" fill="#6d6d6d"/>
      </g>
      <g id="Group_40" data-name="Group 40" transform="translate(16.536 18.528)">
        <ellipse id="Ellipse_6" data-name="Ellipse 6" cx="1.509" cy="1.509" rx="1.509" ry="1.509" transform="translate(0.375 0.376)" fill="#6d6d6d"/>
        <path id="Path_78" data-name="Path 78" d="M576.929,119.376a1.885,1.885,0,1,1-1.884,1.885A1.886,1.886,0,0,1,576.929,119.376Zm0,3.017a1.132,1.132,0,1,0-1.132-1.132A1.134,1.134,0,0,0,576.929,122.393Z" transform="translate(-575.045 -119.376)" fill="#6d6d6d"/>
      </g>
    </g>
    <g id="Group_42" data-name="Group 42" transform="translate(564.444 161.357)">
      <path id="Path_79" data-name="Path 79" d="M571.575,113.958a1.881,1.881,0,0,1,1.33,3.212l-3.919,3.92,3.919,3.919a1.881,1.881,0,0,1-2.66,2.661l-5.25-5.25a1.881,1.881,0,0,1,0-2.661l5.25-5.25A1.872,1.872,0,0,1,571.575,113.958Z" transform="translate(-564.444 -113.958)" fill="#00a0d4"/>
    </g>
    <g id="Group_43" data-name="Group 43">
      <path id="Path_80" data-name="Path 80" d="M576.929,154.669a1.866,1.866,0,0,1-1.227-.456l-7.979-6.874a1.881,1.881,0,1,1,2.456-2.85l7.978,6.874a1.881,1.881,0,0,1-1.228,3.306Z" fill="#00639b"/>
    </g>
    <g id="Group_44" data-name="Group 44">
      <path id="Path_81" data-name="Path 81" d="M568.95,147.795a1.882,1.882,0,0,1-1.882-1.881V130.435a1.882,1.882,0,1,1,3.764,0v15.479A1.882,1.882,0,0,1,568.95,147.795Z" fill="#00a0d4"/>
    </g>
  </g>
</svg>
