<svg id="Expert" xmlns="http://www.w3.org/2000/svg" xmlns:xlink="http://www.w3.org/1999/xlink" width="41.914" height="53.412" viewBox="0 0 41.914 53.412">
  <defs>
    <clipPath id="clip-path">
      <rect id="Rectangle_363" data-name="Rectangle 363" width="41.914" height="53.412" fill="none"/>
    </clipPath>
  </defs>
  <g id="Group_512" data-name="Group 512" clip-path="url(#clip-path)">
    <path id="Path_213" data-name="Path 213" d="M104.557,11.825l-.644,3.763A2.286,2.286,0,0,0,107.236,18l3.38-1.777L114,18a2.289,2.289,0,0,0,3.323-2.416l-.642-3.763,2.736-2.666h0a2.291,2.291,0,0,0-1.271-3.905L114.361,4.7l-1.69-3.424h0a2.289,2.289,0,0,0-4.108,0L106.873,4.7l-3.779.551h0a2.286,2.286,0,0,0-1.268,3.905l2.732,2.666Zm3.426-4.506h0a1.367,1.367,0,0,0,1.034-.752l1.6-3.24,1.6,3.24a1.369,1.369,0,0,0,1.035.752l3.576.52-2.589,2.521h0a1.379,1.379,0,0,0-.4,1.215l.61,3.561-3.2-1.68a1.374,1.374,0,0,0-1.281,0l-3.2,1.68.611-3.561h0a1.38,1.38,0,0,0-.4-1.215L104.407,7.84Z" transform="translate(-89.333)" fill="#16aedb" fill-rule="evenodd"/>
    <path id="Path_214" data-name="Path 214" d="M127.111,225.355l2.76,12.979-3.928,3.707-3.927-3.707,2.762-12.979h-3.295l-2.68,12.61a2.709,2.709,0,0,0,.783,2.512l4.517,4.259h0a2.691,2.691,0,0,0,3.682,0l4.514-4.259a.006.006,0,0,0,0-.005,2.689,2.689,0,0,0,.779-2.507l-2.678-12.61Z" transform="translate(-104.893 -199.066)" fill="#707070" fill-rule="evenodd"/>
    <path id="Path_215" data-name="Path 215" d="M40.093,204.674H1.821A1.82,1.82,0,0,1,0,202.855v-18.75a12.931,12.931,0,0,1,11.94-12.86,1.769,1.769,0,0,1,1.4.512,10.924,10.924,0,0,0,15.226,0,1.8,1.8,0,0,1,1.405-.512,12.931,12.931,0,0,1,11.94,12.86v18.748a1.82,1.82,0,0,1-1.819,1.821ZM3.639,201.033H38.267V184.1a9.285,9.285,0,0,0-7.812-9.138,14.573,14.573,0,0,1-19.008,0A9.283,9.283,0,0,0,3.64,184.1Z" transform="translate(0 -151.262)" fill="#2574a9"/>
  </g>
</svg>
