<svg xmlns="http://www.w3.org/2000/svg" xmlns:xlink="http://www.w3.org/1999/xlink" width="49.573" height="56.899" viewBox="0 0 49.573 56.899"><defs><style>.a{fill:none;}.b{clip-path:url(#a);}.c{fill:#16addb;}.d{fill:#2672a8;}.e{fill:#7f7f7f;}</style><clipPath id="a"><path class="a" d="M0,24.26H49.573v-56.9H0Z" transform="translate(0 32.639)"/></clipPath></defs><g transform="translate(0 32.639)"><g class="b" transform="translate(0 -32.639)"><g transform="translate(12.234 0)"><path class="c" d="M5.367,10.7h0A12.612,12.612,0,0,0,17.955-1.884,12.6,12.6,0,0,0,5.367-14.4,12.612,12.612,0,0,0-7.221-1.814,12.6,12.6,0,0,0,5.367,10.7m0-22.262A9.758,9.758,0,0,1,15.11-1.814,9.759,9.759,0,0,1,5.367,7.931,9.759,9.759,0,0,1-4.376-1.814a9.758,9.758,0,0,1,9.743-9.743" transform="translate(7.221 14.402)"/></g><g transform="translate(-0.001 25.818)"><path class="c" d="M15.253,0a1.448,1.448,0,0,0-1.067.427A14.171,14.171,0,0,1,4.3,4.41,14.3,14.3,0,0,1-5.586.427,1.57,1.57,0,0,0-6.653,0,15.034,15.034,0,0,0-20.522,14.936v6.9a9.228,9.228,0,0,0,9.246,9.246H19.805a9.227,9.227,0,0,0,9.246-9.246v-6.9A14.918,14.918,0,0,0,15.253,0M26.278,21.835a6.375,6.375,0,0,1-6.4,6.4H-11.276a6.375,6.375,0,0,1-6.4-6.4v-6.9A12.189,12.189,0,0,1-7.08,2.916,16.71,16.71,0,0,0,4.3,7.254a17.057,17.057,0,0,0,11.38-4.337,12.135,12.135,0,0,1,10.6,12.02Z" transform="translate(20.522)"/></g><g transform="translate(30.298 38.265)"><path class="d" d="M1.031.182A1.375,1.375,0,0,0-.96.182a1.373,1.373,0,0,0,0,1.991l2.631,2.7L-.96,7.507A1.375,1.375,0,0,0-.96,9.5a1.4,1.4,0,0,0,1,.425,1.4,1.4,0,0,0,1-.425L4.659,5.872a1.375,1.375,0,0,0,0-1.991Z" transform="translate(1.387 0.244)"/></g><g transform="translate(21.709 34.867)"><path class="e" d="M2.48.023a1.422,1.422,0,0,0-1.778,1L-3.282,15.172a1.423,1.423,0,0,0,1,1.778.767.767,0,0,0,.356.071A1.371,1.371,0,0,0-.578,15.955L3.4,1.8A1.437,1.437,0,0,0,2.48.023" transform="translate(3.336 0.031)"/></g><g transform="translate(12.874 38.265)"><path class="d" d="M2.577.182a1.375,1.375,0,0,0-1.991,0L-3.041,3.809a1.375,1.375,0,0,0,0,1.991L.586,9.428a1.4,1.4,0,0,0,1,.427,1.4,1.4,0,0,0,1-.427,1.377,1.377,0,0,0,0-1.993L-.055,4.876,2.577,2.244a1.46,1.46,0,0,0,0-2.062" transform="translate(3.468 0.244)"/></g></g></g></svg>