<svg xmlns="http://www.w3.org/2000/svg" width="63.667" height="63.667" viewBox="0 0 63.667 63.667"><defs><style>.a{fill:#6d6d6d;}.b{fill:#00639b;}.c{fill:#00a0d4;}</style></defs><g transform="translate(-518.288 -300.234)"><g transform="translate(531.409 321.457)"><path class="a" d="M550.322,311.795H529c-2.8,0-4.437,2.6-3.086,4.63a3.727,3.727,0,0,0,3.183,2.027l1.544,22.765a.969.969,0,1,0,1.929-.193l-1.641-22.572h26.238l-1.639,22.572a1.049,1.049,0,0,0,.868,1.061.872.872,0,0,0,1.061-.868l1.639-22.765a3.941,3.941,0,0,0,3.183-2.027c1.351-2.025-.288-4.63-3.086-4.63h-8.876Zm-22.861,3.569c-.58-.868.385-1.639,1.542-1.639H559.2c1.061,0,2.025.868,1.544,1.639-.483.676-.773,1.158-1.834,1.158H529.293C528.232,316.522,527.942,316.137,527.461,315.364Z" transform="translate(-525.436 -311.795)"/></g><g transform="translate(518.288 340.654)"><path class="b" d="M531.118,332.477a5.426,5.426,0,0,0,2.51-4.63,5.621,5.621,0,0,0-5.693-5.6,5.682,5.682,0,0,0-5.691,5.6,5.424,5.424,0,0,0,2.508,4.63,6.85,6.85,0,0,0-6.464,6.754v5.305a.912.912,0,0,0,.966.964h17.267a.912.912,0,0,0,.966-.964v-5.305A6.908,6.908,0,0,0,531.118,332.477Zm-3.183-8.3a3.748,3.748,0,0,1,3.763,3.666,3.764,3.764,0,0,1-7.525,0A3.747,3.747,0,0,1,527.935,324.181Zm7.622,19.389h-15.34v-4.34a4.838,4.838,0,0,1,4.824-4.824h5.6a4.838,4.838,0,0,1,4.823,4.824v4.34Z" transform="translate(-518.288 -322.252)"/></g><g transform="translate(540.572 340.654)"><path class="b" d="M543.257,332.477a5.424,5.424,0,0,0,2.508-4.63,5.692,5.692,0,0,0-11.382,0,5.424,5.424,0,0,0,2.508,4.63,6.85,6.85,0,0,0-6.464,6.754v5.305a.911.911,0,0,0,.966.964H548.66a.91.91,0,0,0,.964-.964v-5.305A6.982,6.982,0,0,0,543.257,332.477Zm-3.183-8.3a3.747,3.747,0,0,1,3.761,3.666,3.686,3.686,0,0,1-3.761,3.666,3.747,3.747,0,0,1-3.761-3.666A3.685,3.685,0,0,1,540.074,324.181ZM547.6,343.57H532.356v-4.34a4.838,4.838,0,0,1,4.822-4.824h5.6a4.838,4.838,0,0,1,4.824,4.824Z" transform="translate(-530.427 -322.252)"/></g><g transform="translate(562.759 340.654)"><path class="b" d="M555.343,332.477a5.424,5.424,0,0,0,2.508-4.63,5.692,5.692,0,0,0-11.382,0,5.424,5.424,0,0,0,2.508,4.63,6.85,6.85,0,0,0-6.464,6.754v5.305a.911.911,0,0,0,.966.964h17.267a.91.91,0,0,0,.964-.964v-5.305A6.833,6.833,0,0,0,555.343,332.477Zm-3.183-8.3a3.746,3.746,0,0,1,3.761,3.666,3.686,3.686,0,0,1-3.761,3.666,3.748,3.748,0,0,1-3.761-3.666A3.811,3.811,0,0,1,552.16,324.181Zm7.62,19.389H544.442v-4.34a4.838,4.838,0,0,1,4.824-4.824h5.691a4.838,4.838,0,0,1,4.823,4.824Z" transform="translate(-542.513 -322.252)"/></g><path class="c" d="M542.835,310.459h-3.473a5.065,5.065,0,0,0,5.017-5.112,5.113,5.113,0,1,0-5.21,5.112h-3.376a4.968,4.968,0,0,0-4.63,5.21v5.788h1.929v-5.788c0-1.832,1.156-3.28,2.7-3.28h7.042a3.051,3.051,0,0,1,2.7,3.28v5.788h1.929v-5.788C547.464,312.776,545.44,310.459,542.835,310.459Zm-6.656-5.112a3.183,3.183,0,1,1,3.183,3.183A3.15,3.15,0,0,1,536.178,305.347Z" transform="translate(10.76 0)"/></g></svg>