<svg xmlns="http://www.w3.org/2000/svg" width="56.951" height="44.435" viewBox="0 0 56.951 44.435"><defs><style>.a{fill:#00639b;}.b{fill:#00a0d4;}</style></defs><g transform="translate(-38.108 -202.57)"><path class="a" d="M91.159,247.005H42.008a3.9,3.9,0,0,1-3.9-3.9V231.442a3.905,3.905,0,0,1,3.9-3.9H91.159a3.9,3.9,0,0,1,3.9,3.9V243.1A3.9,3.9,0,0,1,91.159,247.005ZM42.008,230.052a1.392,1.392,0,0,0-1.391,1.39V243.1a1.393,1.393,0,0,0,1.391,1.391H91.159a1.392,1.392,0,0,0,1.39-1.391V231.442a1.392,1.392,0,0,0-1.39-1.39Z"/><path class="b" d="M91.159,229.816H42.008a3.905,3.905,0,0,1-3.9-3.9V214.253a3.905,3.905,0,0,1,3.9-3.9H91.159a3.9,3.9,0,0,1,3.9,3.9v11.663A3.9,3.9,0,0,1,91.159,229.816ZM42.008,212.863a1.392,1.392,0,0,0-1.391,1.39v11.663a1.392,1.392,0,0,0,1.391,1.39H91.159a1.391,1.391,0,0,0,1.39-1.39V214.253a1.391,1.391,0,0,0-1.39-1.39Z"/><path class="b" d="M55.484,212.626H49.3a1.94,1.94,0,0,1-1.938-1.938v-6.18A1.94,1.94,0,0,1,49.3,202.57h6.181a1.94,1.94,0,0,1,1.938,1.938v6.18A1.94,1.94,0,0,1,55.484,212.626Zm-5.609-2.509h5.037V205.08H49.875Z"/><path class="b" d="M69.674,212.626H63.493a1.94,1.94,0,0,1-1.938-1.938v-6.18a1.94,1.94,0,0,1,1.938-1.938h6.181a1.94,1.94,0,0,1,1.938,1.938v6.18A1.94,1.94,0,0,1,69.674,212.626Zm-5.609-2.509H69.1V205.08H64.065Z"/><path class="b" d="M83.747,212.626h-6.18a1.94,1.94,0,0,1-1.938-1.938v-6.18a1.94,1.94,0,0,1,1.938-1.938h6.18a1.94,1.94,0,0,1,1.939,1.938v6.18A1.94,1.94,0,0,1,83.747,212.626Zm-5.608-2.509h5.037V205.08H78.139Z"/></g></svg>