<svg xmlns="http://www.w3.org/2000/svg" width="56.852" height="56.845" viewBox="0 0 56.852 56.845"><defs><style>.a{fill:#00a0d4;}.b{fill:#00639b;}.c{fill:#6d6d6d;}</style></defs><g transform="translate(-192.699 -84.816)"><g transform="translate(213.37 108.716)"><path class="a" d="M212.172,113.87a7.752,7.752,0,1,1,7.75-7.752A7.761,7.761,0,0,1,212.172,113.87Zm0-12.919a5.168,5.168,0,1,0,5.166,5.168A5.173,5.173,0,0,0,212.172,100.951Z" transform="translate(-204.419 -98.367)"/></g><g transform="translate(206.266 126.184)"><path class="a" d="M228.814,123.748H201.682a1.291,1.291,0,0,1-1.291-1.291v-5.065a9.171,9.171,0,0,1,8.464-9.117,1.254,1.254,0,0,1,.995.363,7.744,7.744,0,0,0,10.794,0,1.276,1.276,0,0,1,1-.363,9.171,9.171,0,0,1,8.464,9.117v5.065A1.291,1.291,0,0,1,228.814,123.748Zm-25.839-2.582h24.548v-3.774a6.582,6.582,0,0,0-5.538-6.478,10.331,10.331,0,0,1-13.475,0,6.581,6.581,0,0,0-5.535,6.478Z" transform="translate(-200.391 -108.271)"/></g><g transform="translate(231.459 112.593)"><path class="b" d="M221.134,113.484a6.46,6.46,0,1,1,6.459-6.459A6.467,6.467,0,0,1,221.134,113.484Zm0-10.335a3.876,3.876,0,1,0,3.875,3.877A3.88,3.88,0,0,0,221.134,103.149Z" transform="translate(-214.675 -100.565)"/></g><g transform="translate(236.619 127.451)"><path class="b" d="M229.24,120.616H218.892a1.292,1.292,0,0,1,0-2.584h9.057v-2.584a3.878,3.878,0,0,0-3.875-3.875h-.122a7.18,7.18,0,0,1-5.046,1.938,1.292,1.292,0,0,1,0-2.584,4.655,4.655,0,0,0,3.572-1.531,1.291,1.291,0,0,1,.944-.407h.653a6.467,6.467,0,0,1,6.459,6.459v3.877A1.292,1.292,0,0,1,229.24,120.616Z" transform="translate(-217.601 -108.989)"/></g><g transform="translate(197.874 112.593)"><path class="b" d="M202.092,113.484a6.46,6.46,0,1,1,6.461-6.459A6.467,6.467,0,0,1,202.092,113.484Zm0-10.335a3.876,3.876,0,1,0,3.877,3.877A3.879,3.879,0,0,0,202.092,103.149Z" transform="translate(-195.633 -100.565)"/></g><g transform="translate(192.699 127.451)"><path class="b" d="M204.34,120.616H193.992a1.293,1.293,0,0,1-1.293-1.291v-3.877a6.459,6.459,0,0,1,6.445-6.459h.646a1.287,1.287,0,0,1,.937.4,4.731,4.731,0,0,0,3.6,1.536,1.292,1.292,0,1,1,0,2.584,7.258,7.258,0,0,1-5.064-1.938h-.118a3.872,3.872,0,0,0-3.861,3.875v2.584h9.057a1.292,1.292,0,0,1,0,2.584Z" transform="translate(-192.699 -108.989)"/></g><g transform="translate(192.703 97.09)"><path class="a" d="M201.1,105.985a1.291,1.291,0,0,1-1.108-.626l-1.563-2.6h-3.143a2.587,2.587,0,0,1-2.584-2.584V94.359a2.587,2.587,0,0,1,2.584-2.584h11.628a2.586,2.586,0,0,1,2.584,2.584v5.813a2.586,2.586,0,0,1-2.584,2.584h-3.46l-1.189,2.494a1.291,1.291,0,0,1-1.1.734C201.14,105.985,201.119,105.985,201.1,105.985Zm-1.938-5.813a1.289,1.289,0,0,1,1.108.628l.7,1.164.5-1.055a1.292,1.292,0,0,1,1.166-.737h4.277V94.359H195.285v5.813Z" transform="translate(-192.701 -91.775)"/></g><g transform="translate(212.082 84.816)"><path class="c" d="M219.838,108.071l-.074,0a1.29,1.29,0,0,1-1.113-.781l-1.6-3.739H206.273a2.586,2.586,0,0,1-2.584-2.584V87.4a2.586,2.586,0,0,1,2.584-2.584h22.609a2.587,2.587,0,0,1,2.584,2.584v13.565a2.587,2.587,0,0,1-2.584,2.584h-5.711l-2.212,3.871A1.292,1.292,0,0,1,219.838,108.071Zm-1.938-7.106a1.289,1.289,0,0,1,1.187.783l.917,2.136,1.3-2.268a1.291,1.291,0,0,1,1.122-.651h6.461V87.4H206.273v13.565Z" transform="translate(-203.689 -84.816)"/></g><g transform="translate(217.248 89.984)"><path class="c" d="M222.121,90.33h-14.21a1.292,1.292,0,1,1,0-2.584h14.21a1.292,1.292,0,1,1,0,2.584Z" transform="translate(-206.618 -87.746)"/></g><g transform="translate(217.248 95.151)"><path class="c" d="M216.955,93.26h-9.044a1.292,1.292,0,1,1,0-2.584h9.044a1.292,1.292,0,0,1,0,2.584Z" transform="translate(-206.618 -90.676)"/></g></g></svg>