<svg xmlns="http://www.w3.org/2000/svg" width="47.207" height="56.286" viewBox="0 0 47.207 56.286"><defs><style>.a{fill:#6d6d6d;}.b,.f{fill:#00a0d4;}.c{fill:#298995;}.c,.d,.e,.f{fill-rule:evenodd;}.d{fill:#63bdc8;}.e{fill:#02639b;}</style></defs><g transform="translate(-65.086 -118.382)"><path class="a" d="M112.2,167.739l-6.958-20.872a19.065,19.065,0,1,0-33.1,0l-6.957,20.872a1.816,1.816,0,0,0,2.473,2.227l8.512-3.869,4.614,7.69a1.811,1.811,0,0,0,1.555.881,1.66,1.66,0,0,0,.2-.011,1.817,1.817,0,0,0,1.525-1.23l4.632-13.9,4.632,13.9a1.816,1.816,0,0,0,1.526,1.23,1.621,1.621,0,0,0,.2.011,1.817,1.817,0,0,0,1.556-.881l4.613-7.69,8.512,3.869a1.815,1.815,0,0,0,2.473-2.227Zm-23.51-45.725a15.433,15.433,0,1,1-15.433,15.433A15.45,15.45,0,0,1,88.689,122.014ZM81.86,168.533l-3.416-5.693a1.814,1.814,0,0,0-2.308-.718l-6.2,2.816,4.833-14.5a19.012,19.012,0,0,0,11.168,5.854Zm19.381-6.411a1.812,1.812,0,0,0-2.307.718l-3.416,5.693L91.437,156.29a19.01,19.01,0,0,0,11.167-5.854l4.833,14.5Z"/><path class="b" d="M88.689,156.447a19,19,0,1,1,19-19A19.023,19.023,0,0,1,88.689,156.447Zm0-33.454a14.453,14.453,0,1,0,14.453,14.454A14.471,14.471,0,0,0,88.689,122.993Z"/><path class="c" d="M82.146,136.51l5.037,3.394a1.712,1.712,0,0,1,.755,1.42v1.341a1.711,1.711,0,0,1-2.675,1.414l-5.037-3.429a1.713,1.713,0,0,1-.748-1.415V137.93A1.712,1.712,0,0,1,82.146,136.51Z"/><path class="d" d="M82.146,138.384l5.037-3.394a1.712,1.712,0,0,0,.755-1.42v-1.341a1.712,1.712,0,0,0-2.675-1.415l-5.037,3.43a1.713,1.713,0,0,0-.748,1.415v3.576a1.713,1.713,0,0,0,.748,1.415l1.951,1.34a3.444,3.444,0,0,1-1.092-2.093A1.729,1.729,0,0,1,82.146,138.384Z"/><path class="e" d="M82.146,136.51l5.037,3.394a1.712,1.712,0,0,1,.755,1.42v1.341a1.711,1.711,0,0,1-2.675,1.414l-5.037-3.429a1.713,1.713,0,0,1-.748-1.415V137.93A1.712,1.712,0,0,1,82.146,136.51Z"/><path class="f" d="M82.146,138.384l5.037-3.394a1.712,1.712,0,0,0,.755-1.42v-1.341a1.712,1.712,0,0,0-2.675-1.415l-5.037,3.43a1.713,1.713,0,0,0-.748,1.415v3.576a1.713,1.713,0,0,0,.748,1.415l1.951,1.34a3.444,3.444,0,0,1-1.092-2.093A1.729,1.729,0,0,1,82.146,138.384Z"/><path class="c" d="M95.242,138.354l-5.018-3.381a1.706,1.706,0,0,1-.752-1.414v-1.336a1.705,1.705,0,0,1,2.665-1.41l5.017,3.417a1.7,1.7,0,0,1,.746,1.41v1.3A1.705,1.705,0,0,1,95.242,138.354Z"/><path class="d" d="M95.242,136.487l-5.018,3.381a1.706,1.706,0,0,0-.752,1.415v1.336a1.705,1.705,0,0,0,2.665,1.409l5.017-3.417A1.7,1.7,0,0,0,97.9,139.2V135.64a1.7,1.7,0,0,0-.746-1.41L95.211,132.9a3.429,3.429,0,0,1,1.088,2.084A1.722,1.722,0,0,1,95.242,136.487Z"/><path class="e" d="M95.242,138.354l-5.018-3.381a1.706,1.706,0,0,1-.752-1.414v-1.336a1.705,1.705,0,0,1,2.665-1.41l5.017,3.417a1.7,1.7,0,0,1,.746,1.41v1.3A1.705,1.705,0,0,1,95.242,138.354Z"/><path class="f" d="M95.242,136.487l-5.018,3.381a1.706,1.706,0,0,0-.752,1.415v1.336a1.705,1.705,0,0,0,2.665,1.409l5.017-3.417A1.7,1.7,0,0,0,97.9,139.2V135.64a1.7,1.7,0,0,0-.746-1.41L95.211,132.9a3.429,3.429,0,0,1,1.088,2.084A1.722,1.722,0,0,1,95.242,136.487Z"/></g></svg>