<svg xmlns="http://www.w3.org/2000/svg" width="53.412" height="58.662" viewBox="0 0 53.412 58.662"><defs><style>.a{fill:#00a0d4;}.b{fill:#6d6d6d;}.c{fill:#00639b;}</style></defs><g transform="translate(-542.244 -113.958)"><path class="a" d="M568.95,172.62a26.706,26.706,0,0,1,0-53.412,1.882,1.882,0,1,1,0,3.763,22.943,22.943,0,1,0,22.942,22.943,1.882,1.882,0,0,1,3.764,0A26.736,26.736,0,0,1,568.95,172.62Z"/><circle class="b" cx="1.509" cy="1.509" r="1.509" transform="translate(591.957 138.28)"/><path class="b" d="M593.467,141.674a1.885,1.885,0,1,1,1.883-1.885A1.887,1.887,0,0,1,593.467,141.674Zm0-3.017a1.132,1.132,0,1,0,1.131,1.132A1.134,1.134,0,0,0,593.467,138.657Z"/><circle class="b" cx="1.509" cy="1.509" r="1.509" transform="translate(590.026 132.668)"/><path class="b" d="M591.535,136.062a1.885,1.885,0,1,1,1.885-1.886A1.888,1.888,0,0,1,591.535,136.062Zm0-3.018a1.132,1.132,0,1,0,1.133,1.132A1.134,1.134,0,0,0,591.535,133.044Z"/><circle class="b" cx="1.509" cy="1.509" r="1.509" transform="translate(586.405 127.417)"/><path class="b" d="M587.914,130.811a1.885,1.885,0,1,1,1.885-1.885A1.888,1.888,0,0,1,587.914,130.811Zm0-3.018a1.132,1.132,0,1,0,1.133,1.133A1.135,1.135,0,0,0,587.914,127.793Z"/><circle class="b" cx="1.509" cy="1.509" r="1.509" transform="translate(581.396 122.891)"/><path class="b" d="M582.905,126.285a1.886,1.886,0,1,1,1.885-1.886A1.888,1.888,0,0,1,582.905,126.285Zm0-3.018a1.132,1.132,0,1,0,1.133,1.132A1.134,1.134,0,0,0,582.905,123.267Z"/><circle class="b" cx="1.509" cy="1.509" r="1.509" transform="translate(575.421 119.753)"/><path class="b" d="M576.93,123.146a1.885,1.885,0,1,1,1.884-1.885A1.886,1.886,0,0,1,576.93,123.146Zm0-3.017a1.132,1.132,0,1,0,1.132,1.132A1.134,1.134,0,0,0,576.93,120.129Z"/><path class="a" d="M566.325,128.221a1.881,1.881,0,0,1-1.33-3.212l3.919-3.92-3.919-3.919a1.881,1.881,0,1,1,2.66-2.661l5.25,5.25a1.881,1.881,0,0,1,0,2.661l-5.25,5.25A1.872,1.872,0,0,1,566.325,128.221Z"/><path class="c" d="M576.929,154.669a1.866,1.866,0,0,1-1.227-.456l-7.979-6.874a1.881,1.881,0,1,1,2.456-2.85l7.978,6.874a1.881,1.881,0,0,1-1.228,3.306Z"/><path class="a" d="M568.95,147.795a1.882,1.882,0,0,1-1.882-1.881V130.435a1.882,1.882,0,1,1,3.764,0v15.479A1.882,1.882,0,0,1,568.95,147.795Z"/></g></svg>