<svg xmlns="http://www.w3.org/2000/svg" width="62.498" height="62.497" viewBox="0 0 62.498 62.497"><defs><style>.a{fill:gray;}.b{fill:#16aedb;}.c{fill:#2574a9;}</style></defs><g transform="translate(-3.112 -3.05)"><g transform="translate(33.361 12.88)"><rect class="a" width="1.999" height="9.364"/></g><g transform="translate(33.361 46.437)"><rect class="a" width="1.999" height="9.28"/></g><g transform="translate(46.416 33.299)"><rect class="a" width="9.364" height="1.999"/></g><g transform="translate(12.943 33.299)"><rect class="a" width="9.28" height="1.999"/></g><g transform="translate(42.178 18.447)"><rect class="a" width="9.364" height="1.999" transform="translate(0 6.621) rotate(-45)"/></g><g transform="translate(18.509 42.175)"><rect class="a" width="9.28" height="1.999" transform="translate(0 6.562) rotate(-45)"/></g><g transform="translate(18.509 18.447)"><rect class="a" width="1.999" height="9.364" transform="translate(0 1.414) rotate(-45)"/></g><g transform="translate(42.237 42.175)"><rect class="a" width="1.999" height="9.281" transform="translate(0 1.414) rotate(-45)"/></g><g transform="translate(21.265 21.244)"><path class="b" d="M43.446,56.543a13.1,13.1,0,1,1,13.1-13.1A13.111,13.111,0,0,1,43.446,56.543Zm0-24.193a11.1,11.1,0,1,0,11.1,11.1A11.109,11.109,0,0,0,43.446,32.349Z" transform="translate(-30.35 -30.35)"/></g><g transform="translate(28.946 3.05)"><path class="c" d="M47.29,13.88a5.415,5.415,0,1,1,5.415-5.415A5.421,5.421,0,0,1,47.29,13.88Zm0-8.831a3.416,3.416,0,1,0,3.416,3.416A3.419,3.419,0,0,0,47.29,5.049Z" transform="translate(-41.875 -3.05)"/></g><g transform="translate(28.946 54.717)"><path class="c" d="M47.29,91.4a5.415,5.415,0,1,1,5.415-5.415A5.421,5.421,0,0,1,47.29,91.4Zm0-8.831a3.416,3.416,0,1,0,3.416,3.416A3.419,3.419,0,0,0,47.29,82.574Z" transform="translate(-41.875 -80.575)"/></g><g transform="translate(3.112 28.883)"><path class="c" d="M8.527,52.643a5.415,5.415,0,1,1,5.415-5.415A5.421,5.421,0,0,1,8.527,52.643Zm0-8.831a3.416,3.416,0,1,0,3.416,3.416A3.42,3.42,0,0,0,8.527,43.811Z" transform="translate(-3.112 -41.812)"/></g><g transform="translate(54.78 28.883)"><path class="c" d="M86.053,52.643a5.415,5.415,0,1,1,5.415-5.415A5.421,5.421,0,0,1,86.053,52.643Zm0-8.831a3.416,3.416,0,1,0,3.416,3.416A3.42,3.42,0,0,0,86.053,43.811Z" transform="translate(-80.638 -41.812)"/></g><g transform="translate(10.682 10.619)"><path class="c" d="M19.882,25.232a5.414,5.414,0,1,1,3.829-9.242h0a5.413,5.413,0,0,1-3.829,9.242Zm0-8.827a3.415,3.415,0,1,0,2.415,1A3.4,3.4,0,0,0,19.882,16.405Z" transform="translate(-14.47 -14.407)"/></g><g transform="translate(47.216 47.151)"><path class="c" d="M74.7,80.049a5.414,5.414,0,1,1,3.829-9.241h0A5.412,5.412,0,0,1,74.7,80.049Zm0-8.828a3.416,3.416,0,1,0,2.415,1h0A3.39,3.39,0,0,0,74.7,71.221Z" transform="translate(-69.288 -69.222)"/></g><g transform="translate(47.216 10.619)"><path class="c" d="M74.7,25.232a5.413,5.413,0,1,1,3.829-1.584h0A5.4,5.4,0,0,1,74.7,25.232Zm0-8.827a3.415,3.415,0,1,0,2.415,1A3.406,3.406,0,0,0,74.7,16.405Z" transform="translate(-69.288 -14.407)"/></g><g transform="translate(10.679 47.151)"><path class="c" d="M19.881,80.049a5.411,5.411,0,1,1,3.829-1.584A5.4,5.4,0,0,1,19.881,80.049Zm0-8.828a3.415,3.415,0,1,0,2.415,1A3.39,3.39,0,0,0,19.881,71.221Z" transform="translate(-14.466 -69.222)"/></g><g transform="translate(29.936 28.653)"><path class="c" d="M43.7,52.436V50.453h.075a.716.716,0,0,0,.453-.331,2.052,2.052,0,0,0,.271-.657,3.318,3.318,0,0,0,.093-.78l-.023-.49h-1.21v-2H44.5l-.052-1.33a3.316,3.316,0,0,1,.932-2.5,3.429,3.429,0,0,1,2.5-.906,3.661,3.661,0,0,1,2.593.858A2.855,2.855,0,0,1,51.36,44.6l-.015.045H48.79a1.314,1.314,0,0,0-.26-.9.846.846,0,0,0-.654-.286.67.67,0,0,0-.612.367,2.112,2.112,0,0,0-.212,1.044l.075,1.33h2.347v2h-2.25l.015.334A2.288,2.288,0,0,1,47,49.543a3.022,3.022,0,0,1-.7.91h3.052l.067-.965H51.33v2.948Z" transform="translate(-43.361 -41.466)"/></g></g></svg>