<svg xmlns="http://www.w3.org/2000/svg" width="54.496" height="54.496" viewBox="0 0 54.496 54.496"><defs><style>.a{fill:#6d6d6d;}.b{fill:#00639b;}.c{fill:#00a0d4;}</style></defs><g transform="translate(-327.307 -204.362)"><path class="a" d="M349.409,253.906a4.954,4.954,0,0,0,1.651-9.62V222.53a1.651,1.651,0,1,0-3.3,0v21.756a4.955,4.955,0,0,0,1.652,9.62Zm0-6.606a1.651,1.651,0,1,1-1.652,1.651A1.65,1.65,0,0,1,349.409,247.3Z" transform="translate(5.146 4.952)"/><path class="b" d="M347.514,234.881v-8.54a1.651,1.651,0,0,0-3.3,0v8.54a1.663,1.663,0,0,1-.485,1.167l-2.34,2.341a4.972,4.972,0,1,0,2.334,2.334l2.341-2.34A4.919,4.919,0,0,0,347.514,234.881Zm-8.256,9.625a1.651,1.651,0,1,1,1.652-1.651A1.651,1.651,0,0,1,339.257,244.506Z" transform="translate(2.086 6.095)"/><path class="b" d="M360.339,247.809a4.954,4.954,0,1,0-2.13-9.42l-2.34-2.341a1.657,1.657,0,0,1-.485-1.167v-8.54a1.651,1.651,0,0,0-3.3,0v8.54a4.925,4.925,0,0,0,1.452,3.5l2.34,2.34a4.943,4.943,0,0,0,4.466,7.085Zm1.651-4.954a1.651,1.651,0,1,1-1.651-1.652A1.651,1.651,0,0,1,361.99,242.855Z" transform="translate(7.428 6.095)"/><path class="c" d="M332.262,242.344h9.082a1.651,1.651,0,1,0,0-3.3h-9.082a1.652,1.652,0,0,1-1.652-1.652V215.921H378.5v21.468a1.652,1.652,0,0,1-1.652,1.652h-9.082a1.651,1.651,0,1,0,0,3.3h9.082a4.962,4.962,0,0,0,4.955-4.955V209.316a4.96,4.96,0,0,0-4.955-4.954H332.262a4.96,4.96,0,0,0-4.955,4.954v28.073A4.962,4.962,0,0,0,332.262,242.344Zm0-34.679h44.586a1.652,1.652,0,0,1,1.652,1.651v3.3H330.61v-3.3A1.652,1.652,0,0,1,332.262,207.665Z"/><circle class="b" cx="1.651" cy="1.651" r="1.651" transform="translate(331.436 208.49)"/><circle class="c" cx="1.651" cy="1.651" r="1.651" transform="translate(335.564 208.49)"/><circle class="a" cx="1.651" cy="1.651" r="1.651" transform="translate(339.693 208.49)"/></g></svg>