<svg xmlns="http://www.w3.org/2000/svg" xmlns:xlink="http://www.w3.org/1999/xlink" width="58" height="57" viewBox="0 0 58 57">
  <defs>
    <clipPath id="clip-path">
      <rect id="Rectangle_364" data-name="Rectangle 364" width="58" height="57" transform="translate(-0.042 -3.157)" fill="none"/>
    </clipPath>
  </defs>
  <g id="Group" transform="translate(0.416 -0.843)">
    <g id="Group_514" data-name="Group 514" transform="translate(-0.374 4)" clip-path="url(#clip-path)">
      <path id="Path_216" data-name="Path 216" d="M130.713,19.039c0,3.284-.262,4.26.738,4.664s1.071,0,5.7-4.664h7.841a2.38,2.38,0,0,0,2.38-2.38V14.28h3.165c.714.8,2.023,2.106,4.32,4.415h0a1.191,1.191,0,0,0,1.3.25c1.012-.416.738-1.285.738-4.664h0a2.38,2.38,0,0,0,2.38-2.38V2.381A2.38,2.38,0,0,0,156.891,0H142.612a2.38,2.38,0,0,0-2.38,2.38v2.38h-9.519a2.38,2.38,0,0,0-2.38,2.38v9.519a2.38,2.38,0,0,0,2.38,2.38Zm11.9-16.659H156.89V11.9c-2.249,0-2.38-.428-2.38,3.082-2.939-2.939-2.915-3.081-3.57-3.081h-3.57V7.14a2.38,2.38,0,0,0-2.38-2.38h-2.38Zm-11.9,4.76h14.279v9.519c-8.888,0-8.674-.143-9.174.345l-2.725,2.737V17.849a1.19,1.19,0,0,0-1.19-1.19h-1.19Z" transform="translate(-114.843 -0.001)" fill="#16aedb"/>
      <path id="Path_217" data-name="Path 217" d="M212.376,108.52a1.19,1.19,0,1,0-1.19,1.19,1.19,1.19,0,0,0,1.19-1.19" transform="translate(-188.178 -96.605)" fill="#2574a9"/>
      <path id="Path_218" data-name="Path 218" d="M245.141,106.639a1.19,1.19,0,1,0,0-.9,1.19,1.19,0,0,0,0,.9Z" transform="translate(-219.658 -94.272)" fill="#2574a9"/>
      <path id="Path_219" data-name="Path 219" d="M177.376,106.19a1.19,1.19,0,1,0-1.19,1.19,1.19,1.19,0,0,0,1.19-1.19" transform="translate(-156.747 -94.275)" fill="#2574a9"/>
      <path id="Path_220" data-name="Path 220" d="M328.661,58.632a1.195,1.195,0,1,0,0,1.69,1.195,1.195,0,0,0,0-1.69" transform="translate(-292.908 -52.338)" fill="#707070"/>
      <path id="Path_221" data-name="Path 221" d="M362.791,60.712a1.19,1.19,0,1,0-1.106-.734A1.19,1.19,0,0,0,362.791,60.712Z" transform="translate(-324.314 -52.382)" fill="#707070"/>
      <path id="Path_222" data-name="Path 222" d="M221.668,285.945a5.95,5.95,0,1,0,1.743-4.207,5.949,5.949,0,0,0-1.743,4.207m9.519,0a3.57,3.57,0,1,1-1.045-2.524,3.57,3.57,0,0,1,1.045,2.524" transform="translate(-198.659 -255.729)" fill="#2574a9"/>
      <path id="Path_224" data-name="Path 224" d="M396.668,250.044a5.048,5.048,0,1,0,1.479-3.569,5.048,5.048,0,0,0-1.479,3.569m5.048-3.029a3.029,3.029,0,1,1-2.142.887,3.029,3.029,0,0,1,2.142-.887" transform="translate(-358.287 -217.447)" fill="#707070"/>
      <path id="Path_225" data-name="Path 225" d="M396.668,250.044a5.048,5.048,0,1,0,1.479-3.569,5.048,5.048,0,0,0-1.479,3.569m5.048-3.029a3.029,3.029,0,1,1-2.142.887,3.029,3.029,0,0,1,2.142-.887" transform="translate(-387.229 -217.447)" fill="#707070"/>
      <g id="Group_131" data-name="Group 131" transform="translate(14.523 36.413)">
        <path id="Path_92" data-name="Path 92" d="M228.042,123.327H201.647a1.255,1.255,0,0,1-1.256-1.256v-4.928a8.922,8.922,0,0,1,8.234-8.869,1.22,1.22,0,0,1,.968.353,7.533,7.533,0,0,0,10.5,0,1.241,1.241,0,0,1,.969-.353,8.922,8.922,0,0,1,8.234,8.869v4.928A1.255,1.255,0,0,1,228.042,123.327ZM202.9,120.816h23.881v-3.672a6.4,6.4,0,0,0-5.388-6.3,10.051,10.051,0,0,1-13.109,0,6.4,6.4,0,0,0-5.384,6.3Z" transform="translate(-200.391 -108.271)" fill="#16aedb"/>
      </g>
      <g id="Group_133" data-name="Group 133" transform="translate(44.052 37.645)">
        <path id="Path_94" data-name="Path 94" d="M228.924,120.3H218.857a1.257,1.257,0,0,1,0-2.514h8.811v-2.514a3.773,3.773,0,0,0-3.77-3.77h-.118a6.985,6.985,0,0,1-4.909,1.886,1.257,1.257,0,0,1,0-2.514,4.529,4.529,0,0,0,3.475-1.489,1.256,1.256,0,0,1,.918-.4h.635a6.291,6.291,0,0,1,6.283,6.283v3.771A1.257,1.257,0,0,1,228.924,120.3Z" transform="translate(-217.601 -108.989)" fill="#2574a9"/>
      </g>
      <g id="Group_135" data-name="Group 135" transform="translate(1.325 37.645)">
        <path id="Path_96" data-name="Path 96" d="M204.023,120.3H193.957a1.258,1.258,0,0,1-1.258-1.256v-3.771a6.284,6.284,0,0,1,6.27-6.283h.628a1.252,1.252,0,0,1,.911.391,4.6,4.6,0,0,0,3.5,1.494,1.257,1.257,0,1,1,0,2.514,7.061,7.061,0,0,1-4.926-1.886h-.115a3.766,3.766,0,0,0-3.756,3.77v2.514h8.811a1.257,1.257,0,0,1,0,2.514Z" transform="translate(-192.699 -108.989)" fill="#2574a9"/>
      </g>
    </g>
  </g>
</svg>
