<svg xmlns="http://www.w3.org/2000/svg" width="60.012" height="57.794" viewBox="0 0 60.012 57.794"><defs><style>.a{fill:#00639b;}.b{fill:#00a0d4;}.c{fill:#6d6d6d;}</style></defs><g transform="translate(-382.122 -119.693)"><g transform="translate(396.895 155.65)"><path class="a" d="M416.067,153.821a8.079,8.079,0,0,1,6.019,6.852l.961,7.812a1.311,1.311,0,0,1-.513.513,57.759,57.759,0,0,1-23.886,0,.4.4,0,0,1-.32-.513l.961-7.812a8.079,8.079,0,0,1,6.019-6.852l-2.626-2.306a11.17,11.17,0,0,0-6.532,8.838l-.96,7.812a3.524,3.524,0,0,0,2.689,3.843,62.155,62.155,0,0,0,25.1,0,3.469,3.469,0,0,0,2.69-3.843l-.769-7.877a11.007,11.007,0,0,0-6.532-8.837Z" transform="translate(-395.169 -151.451)"/></g><g transform="translate(401.264 138.92)"><path class="b" d="M409.928,158.471a10.9,10.9,0,1,1,10.9-10.9A10.911,10.911,0,0,1,409.928,158.471Zm0-19.226a8.329,8.329,0,1,0,8.33,8.329A8.337,8.337,0,0,0,409.928,139.245Z" transform="translate(-399.029 -136.675)"/></g><g transform="translate(407.274 119.693)"><g transform="translate(3.469 8.223)"><path class="c" d="M408.943,135.047A1.542,1.542,0,0,1,407.4,133.5V128.5a1.542,1.542,0,0,1,3.083,0V133.5A1.541,1.541,0,0,1,408.943,135.047Z" transform="translate(-407.401 -126.956)"/></g><path class="b" d="M409.348,129.714a5.011,5.011,0,1,1,5.009-5.01A5.016,5.016,0,0,1,409.348,129.714Zm0-7.451a2.441,2.441,0,1,0,2.44,2.441A2.445,2.445,0,0,0,409.348,122.263Z" transform="translate(-404.337 -119.693)"/></g><g transform="translate(382.122 144.462)"><g transform="translate(8.223 3.468)"><path class="c" d="M395.934,147.717h-5.008a1.542,1.542,0,0,1,0-3.084h5.008a1.542,1.542,0,0,1,0,3.084Z" transform="translate(-389.385 -144.633)"/></g><path class="b" d="M387.133,151.591a5.011,5.011,0,1,1,5.01-5.011A5.016,5.016,0,0,1,387.133,151.591Zm0-7.452a2.441,2.441,0,1,0,2.441,2.441A2.445,2.445,0,0,0,387.133,144.139Z" transform="translate(-382.122 -141.57)"/></g><g transform="translate(425.821 144.462)"><g transform="translate(0 3.468)"><path class="c" d="M427.268,147.717h-5.009a1.542,1.542,0,0,1,0-3.084h5.009a1.542,1.542,0,0,1,0,3.084Z" transform="translate(-420.718 -144.633)"/></g><g transform="translate(6.292)"><path class="b" d="M431.286,151.591a5.011,5.011,0,1,1,5.01-5.011A5.017,5.017,0,0,1,431.286,151.591Zm0-7.452a2.441,2.441,0,1,0,2.44,2.441A2.445,2.445,0,0,0,431.286,144.139Z" transform="translate(-426.275 -141.57)"/></g></g><g transform="translate(422.757 126.593)"><g transform="translate(0 6.828)"><path class="c" d="M419.554,138.442a1.541,1.541,0,0,1-1.09-2.631l3.54-3.542a1.542,1.542,0,1,1,2.181,2.181l-3.54,3.542A1.54,1.54,0,0,1,419.554,138.442Z" transform="translate(-418.012 -131.817)"/></g><g transform="translate(3.436)"><path class="b" d="M426.055,135.8a5.009,5.009,0,1,1,3.543-1.466A5,5,0,0,1,426.055,135.8Zm0-7.449a2.44,2.44,0,1,0,1.725.714A2.434,2.434,0,0,0,426.055,128.355Z" transform="translate(-421.047 -125.787)"/></g></g><g transform="translate(388.736 126.592)"><g transform="translate(6.828 6.828)"><path class="c" d="M399.078,138.442a1.537,1.537,0,0,1-1.09-.451l-3.542-3.542a1.542,1.542,0,1,1,2.181-2.181l3.542,3.542a1.541,1.541,0,0,1-1.09,2.631Z" transform="translate(-393.994 -131.817)"/></g><path class="b" d="M392.973,135.8a5.009,5.009,0,1,1,3.543-1.466A5,5,0,0,1,392.973,135.8Zm0-7.449a2.44,2.44,0,1,0,1.725.714A2.432,2.432,0,0,0,392.973,128.355Z" transform="translate(-387.964 -125.787)"/></g></g></svg>