<svg xmlns="http://www.w3.org/2000/svg" xmlns:xlink="http://www.w3.org/1999/xlink" width="57.451" height="56.642" viewBox="0 0 57.451 56.642"><defs><style>.a{fill:none;}.b{clip-path:url(#a);}.c{fill:gray;}.d{clip-path:url(#b);}.e{fill:#17addb;}.f{fill:#2673a8;}</style><clipPath id="a"><rect class="a" width="57.451" height="56.642"/></clipPath><clipPath id="b"><path class="a" d="M271.571,89.656a21.195,21.195,0,1,0,21.195-21.195,21.195,21.195,0,0,0-21.195,21.195" transform="translate(-271.571 -68.461)"/></clipPath></defs><g transform="translate(-270.77 -67.66)"><g transform="translate(270.77 67.66)"><g class="b"><g transform="translate(33.935 33.125)"><path class="c" d="M308.357,110.052a5.253,5.253,0,0,1-3.725-1.541L290.11,93.992l1.988-1.986,14.522,14.518a2.459,2.459,0,0,0,3.478-3.478l-14.52-14.52,1.986-1.988,14.522,14.522a5.267,5.267,0,0,1-3.729,8.993Z" transform="translate(-290.11 -86.538)"/></g></g></g><g transform="translate(272.175 69.066)"><g class="d"><g transform="translate(13.911 11.025)"><path class="e" d="M286.8,76.4a5.654,5.654,0,1,1-5.654,5.654A5.662,5.662,0,0,1,286.8,76.4m0,12.916h0a7.284,7.284,0,1,0-7.3-7.263,7.319,7.319,0,0,0,7.3,7.263" transform="translate(-279.499 -74.744)"/></g><g transform="translate(13.209 10.323)"><path class="e" d="M287.105,90.315a7.985,7.985,0,1,1,8.007-8.007A7.994,7.994,0,0,1,287.105,90.315Zm0-14.565a6.581,6.581,0,1,0,6.6,6.559A6.611,6.611,0,0,0,287.105,75.749Zm0,12.956a6.355,6.355,0,1,1,6.355-6.355A6.363,6.363,0,0,1,287.105,88.706Zm0-11.305a4.951,4.951,0,1,0,4.95,4.95A4.957,4.957,0,0,0,287.105,77.4Z" transform="translate(-279.099 -74.344)"/></g><g transform="translate(6.813 26.006)"><path class="e" d="M302.606,95.951a3.7,3.7,0,0,1-3.713,3.715H280.818a3.7,3.7,0,0,1-3.715-3.715v-4a7.073,7.073,0,0,1,6.148-6.975,9.7,9.7,0,0,0,6.6,2.518,9.9,9.9,0,0,0,6.6-2.518,7.04,7.04,0,0,1,6.148,6.975Zm-6.4-12.669a.841.841,0,0,0-.619.247,8.274,8.274,0,0,1-11.472,0,.909.909,0,0,0-.618-.247,8.722,8.722,0,0,0-8.047,8.666v4a5.354,5.354,0,0,0,5.364,5.364h18.033a5.354,5.354,0,0,0,5.364-5.364v-4a8.655,8.655,0,0,0-8-8.666" transform="translate(-275.454 -83.282)"/></g><g transform="translate(6.111 25.302)"><path class="e" d="M299.152,102.319H281.122a6.073,6.073,0,0,1-6.068-6.068v-4a9.427,9.427,0,0,1,8.7-9.368h.007a1.634,1.634,0,0,1,1.16.451,7.6,7.6,0,0,0,5.238,2.106,7.473,7.473,0,0,0,5.246-2.113,1.537,1.537,0,0,1,1.109-.446l.051,0a9.348,9.348,0,0,1,8.657,9.375v3.994A6.074,6.074,0,0,1,299.152,102.319ZM283.938,84.341a7.936,7.936,0,0,0-7.48,7.91v4a4.669,4.669,0,0,0,4.664,4.662h18.031a4.668,4.668,0,0,0,4.662-4.662v-4a7.94,7.94,0,0,0-7.324-7.964.133.133,0,0,0-.1.04,8.868,8.868,0,0,1-6.234,2.518A9.014,9.014,0,0,1,283.938,84.341Zm15.257,16.329H281.122a4.422,4.422,0,0,1-4.418-4.418v-4a7.773,7.773,0,0,1,6.761-7.673l.321-.042.242.219a8.956,8.956,0,0,0,6.129,2.335,9.262,9.262,0,0,0,6.138-2.341l.237-.211.314.039a7.707,7.707,0,0,1,6.766,7.673v4A4.422,4.422,0,0,1,299.195,100.67ZM283.336,86.02a6.362,6.362,0,0,0-5.227,6.231v4a2.98,2.98,0,0,0,3.013,3.013h18.073a2.98,2.98,0,0,0,3.011-3.013v-4a6.306,6.306,0,0,0-5.229-6.236,10.655,10.655,0,0,1-6.82,2.481A10.344,10.344,0,0,1,283.336,86.02Z" transform="translate(-275.054 -82.881)"/></g></g></g><g transform="translate(270.77 67.66)"><g class="b"><g transform="translate(0.701 0.703)"><path class="e" d="M293.066,111.855a21.9,21.9,0,1,1,21.9-21.9A21.924,21.924,0,0,1,293.066,111.855Zm0-42.389a20.492,20.492,0,1,0,20.493,20.491A20.515,20.515,0,0,0,293.066,69.465Z" transform="translate(-271.17 -68.06)"/></g><g transform="translate(-0.001 -0.001)"><path class="f" d="M293.368,112.859a22.6,22.6,0,1,1,22.6-22.6A22.623,22.623,0,0,1,293.368,112.859Zm0-42.389a19.79,19.79,0,1,0,19.791,19.789A19.813,19.813,0,0,0,293.368,70.47Z" transform="translate(-270.77 -67.659)"/></g></g></g></g></svg>