<svg xmlns="http://www.w3.org/2000/svg" width="77.876" height="54.756" viewBox="0 0 77.876 54.756"><defs><style>.a{fill:#00a0d4;}.b{fill:#00639b;}.c{fill:#6d6d6d;}.d{fill:none;stroke:#00a0d4;stroke-miterlimit:10;stroke-width:2.474px;}</style></defs><g transform="translate(-207.218 -119.509)"><path class="a" d="M228.512,130.46a1.216,1.216,0,0,0-1.217-1.216H213.3a1.216,1.216,0,1,0,0,2.433h13.993A1.217,1.217,0,0,0,228.512,130.46Z"/><path class="b" d="M238.247,135.328a1.218,1.218,0,0,0-1.217-1.217H219.994a1.217,1.217,0,0,0,0,2.433H237.03A1.217,1.217,0,0,0,238.247,135.328Z"/><path class="a" d="M251.023,138.978H229.729a1.217,1.217,0,1,0,0,2.434h21.294a1.217,1.217,0,1,0,0-2.434Z"/><path class="a" d="M251.023,143.845H238.247a1.217,1.217,0,0,0,0,2.434h12.776a1.217,1.217,0,1,0,0-2.434Z"/><path class="b" d="M251.023,148.712h-6.084a1.217,1.217,0,1,0,0,2.434h6.084a1.217,1.217,0,1,0,0-2.434Z"/><path class="c" d="M281.443,119.509H210.868a3.635,3.635,0,0,0-3.65,3.61v42.66a3.644,3.644,0,0,0,3.66,3.619h29.194v2.434H234.6a1.216,1.216,0,1,0,0,2.433h23.119a1.216,1.216,0,1,0,0-2.433H252.24V169.4h2.445a6.063,6.063,0,0,1-1.106-2.434h-42.7a1.206,1.206,0,0,1-1.226-1.185V126.81H282.66v21.9a12.4,12.4,0,0,1,2.433,2.416v-28A3.634,3.634,0,0,0,281.443,119.509ZM242.505,169.4h7.3v2.434h-7.3Zm-31.637-47.455h70.575a1.2,1.2,0,0,1,1.217,1.176v1.257H209.652v-1.257A1.2,1.2,0,0,1,210.868,121.943Z"/><path class="a" d="M222.851,151.718a1.216,1.216,0,0,0-1.675-.388h0l-4.867,3.042a1.217,1.217,0,0,0,0,2.064l4.867,3.042a1.217,1.217,0,0,0,1.29-2.064l-3.217-2.01,3.217-2.01A1.217,1.217,0,0,0,222.851,151.718Z"/><path class="a" d="M231.739,159.092a1.218,1.218,0,0,0,1.677.387l4.867-3.042a1.217,1.217,0,0,0,0-2.064l-4.867-3.042a1.217,1.217,0,0,0-1.29,2.064l3.216,2.01-3.216,2.01A1.217,1.217,0,0,0,231.739,159.092Z"/><path class="a" d="M225.814,162.068a1.252,1.252,0,0,0,.266.029,1.214,1.214,0,0,0,1.186-.953l2.434-10.951a1.217,1.217,0,0,0-2.376-.528l-2.433,10.952a1.216,1.216,0,0,0,.923,1.451Z"/><path class="b" d="M275.811,151.244a7.782,7.782,0,0,1,5.8,6.6l.925,7.524a1.261,1.261,0,0,1-.493.493,55.606,55.606,0,0,1-23,0,.381.381,0,0,1-.308-.493l.925-7.524a7.782,7.782,0,0,1,5.8-6.6l-2.528-2.22a10.752,10.752,0,0,0-6.29,8.51l-.925,7.523a3.394,3.394,0,0,0,2.59,3.7,59.855,59.855,0,0,0,24.173,0,3.341,3.341,0,0,0,2.59-3.7l-.74-7.585a10.6,10.6,0,0,0-6.29-8.509Z"/><circle class="d" cx="9.257" cy="9.257" r="9.257" transform="translate(261.134 134.091)"/></g></svg>