<svg xmlns="http://www.w3.org/2000/svg" width="47.418" height="52.573" viewBox="0 0 47.418 52.573">
  <g id="Individual_Icon" data-name="Individual Icon" transform="translate(-470.291 -8634.713)">
    <path id="Path_201" data-name="Path 201" d="M216.792,123.107a12.37,12.37,0,1,1,12.367-12.37A12.384,12.384,0,0,1,216.792,123.107Zm0-20.617a8.247,8.247,0,1,0,8.244,8.247A8.255,8.255,0,0,0,216.792,102.49Z" transform="translate(277.21 8536.346)" fill="#16aedb"/>
    <g id="Group_419" data-name="Group 419" transform="translate(470.291 8662.588)">
      <path id="Path_92" data-name="Path 92" d="M245.749,132.969h-43.3a2.059,2.059,0,0,1-2.06-2.06v-8.084A14.636,14.636,0,0,1,213.9,108.277a2,2,0,0,1,1.587.58,12.358,12.358,0,0,0,17.225,0,2.036,2.036,0,0,1,1.59-.58,14.636,14.636,0,0,1,13.507,14.549v8.084A2.059,2.059,0,0,1,245.749,132.969Zm-41.234-4.121h39.174v-6.023a10.5,10.5,0,0,0-8.838-10.338,16.487,16.487,0,0,1-21.5,0,10.5,10.5,0,0,0-8.832,10.338Z" transform="translate(-200.391 -108.271)" fill="#2574a9"/>
    </g>
  </g>
</svg>
