<svg xmlns="http://www.w3.org/2000/svg" width="20" height="19.969" viewBox="0 0 20 19.969"><defs><style>.a{fill:#fff;}</style></defs><g transform="translate(-7.37 -7.43)"><path class="a" d="M7.7,14.059h4.145V27.394H7.7ZM9.771,7.43a2.4,2.4,0,1,1-2.4,2.406,2.4,2.4,0,0,1,2.4-2.406" transform="translate(0 0)"/><path class="a" d="M21.04,19.931h3.974v1.821h.057A4.35,4.35,0,0,1,28.993,19.6c4.2,0,4.973,2.763,4.973,6.349v7.312H29.821V26.782c0-1.547-.026-3.534-2.153-3.534-2.158,0-2.484,1.687-2.484,3.426v6.6H21.04Z" transform="translate(-6.596 -5.872)"/></g></svg>