<svg xmlns="http://www.w3.org/2000/svg" width="40.69" height="37.533" viewBox="0 0 40.69 37.533"><defs><style>.a{fill:#2574a9;}.b{fill:#707070;}.c{fill:#16aedb;}</style></defs><g transform="translate(-2.515 -6.1)"><g transform="translate(2.515 6.1)"><path class="a" d="M62.077,6.1H45.491A3.585,3.585,0,0,0,41.9,9.691v8.763a3.6,3.6,0,0,0,3.548,3.591v2.18a2.421,2.421,0,0,0,1.5,2.223,2.3,2.3,0,0,0,.94.171,2.4,2.4,0,0,0,1.71-.727L53.485,22h8.678a3.585,3.585,0,0,0,3.591-3.591V9.734A3.753,3.753,0,0,0,62.077,6.1Zm1.069,12.4a1.132,1.132,0,0,1-1.111,1.111H52.886a1.23,1.23,0,0,0-.9.385l-4.061,4.018V20.805a1.241,1.241,0,0,0-1.24-1.24H45.534a1.132,1.132,0,0,1-1.111-1.111V9.734a1.132,1.132,0,0,1,1.111-1.111H62.12a1.132,1.132,0,0,1,1.111,1.111V18.5Z" transform="translate(-25.064 -6.1)"/><circle class="b" cx="1.753" cy="1.753" r="1.753" transform="translate(21.581 6.241)"/><circle class="b" cx="1.753" cy="1.753" r="1.753" transform="translate(26.968 6.241)"/><circle class="b" cx="1.753" cy="1.753" r="1.753" transform="translate(32.311 6.241)"/><path class="c" d="M28.542,46.613,25.165,43.92a4.078,4.078,0,0,0-2.565-.9,4.169,4.169,0,0,0-3.163,1.453c-.171.214-.3.342-.427.513a14.673,14.673,0,0,1-2.479-2.095,14.673,14.673,0,0,1-2.095-2.479c.128-.128.3-.256.513-.427a4.11,4.11,0,0,0,.556-5.728l-2.736-3.377A4.2,4.2,0,0,0,9.519,29.3h0a4.649,4.649,0,0,0-1.667.342A15.248,15.248,0,0,0,4.09,32.378c-2.608,2.608-1.411,6.455-.427,8.464a32.568,32.568,0,0,0,6.412,8.507c2.821,2.821,8.25,7.566,12.953,7.566a5.581,5.581,0,0,0,4.018-1.582,16.135,16.135,0,0,0,2.736-3.762A4.277,4.277,0,0,0,28.542,46.613Zm-1.069,3.933a13.553,13.553,0,0,1-2.18,2.992,3.06,3.06,0,0,1-2.266.855c-2.864,0-7.1-2.736-11.2-6.84C6.484,42.21,3.406,36.567,5.843,34.131a16.476,16.476,0,0,1,2.992-2.223,1.715,1.715,0,0,1,.641-.128,1.523,1.523,0,0,1,1.282.641L13.452,35.8a1.619,1.619,0,0,1-.214,2.266c-.684.6-1.154,1.026-1.282,1.154-1.026,1.026.47,3.163,2.736,5.429,1.753,1.753,3.463,3.078,4.617,3.078a.958.958,0,0,0,.812-.342c.128-.128.556-.6,1.154-1.282a1.715,1.715,0,0,1,1.24-.6,1.842,1.842,0,0,1,1.026.342l3.377,2.693A1.7,1.7,0,0,1,27.474,50.546Z" transform="translate(-2.515 -19.382)"/></g></g></svg>