<svg xmlns="http://www.w3.org/2000/svg" width="55.795" height="53.2" viewBox="0 0 55.795 53.2">
  <g id="Part_Time_Learning_Icon" data-name="Part Time Learning Icon" transform="translate(0)">
    <g id="Group_164" data-name="Group 164" transform="translate(0)">
      <path id="Path_185" data-name="Path 185" d="M166.579,0A9.725,9.725,0,1,0,176.3,9.725,9.755,9.755,0,0,0,166.579,0m0,15.561a5.835,5.835,0,1,1,5.835-5.835,5.806,5.806,0,0,1-5.835,5.835" transform="translate(-138.681)" fill="#16aedb"/>
      <path id="Path_186" data-name="Path 186" d="M139.218,190.862A15.876,15.876,0,0,0,123.9,179.069h0a15.878,15.878,0,0,0-15.318,11.792l4.357-.749A12.05,12.05,0,0,1,123.9,182.96h0a12.05,12.05,0,0,1,10.962,7.152Z" transform="translate(-96.003 -158.323)" fill="#2574a9"/>
      <path id="Path_187" data-name="Path 187" d="M38.86,274.238c-.349-.018-.7-.02-1.054-.02a19.077,19.077,0,0,0-9.908,2.918,19.079,19.079,0,0,0-9.908-2.918c-.356,0-.7,0-1.054.02a24.1,24.1,0,0,0-4.357.749A16.907,16.907,0,0,0,5.1,279.343c-.2.2-4.984,13.677-4.984,13.677a2.014,2.014,0,0,0,.929,2.432,2.014,2.014,0,0,0,2.516-.669c1.9-2.725,6.429-5,11.367-5,4.977,0,9.477,2.236,11.367,4.984a1.945,1.945,0,0,0,3.2,0c1.751-2.546,5.686-4.686,10.192-4.984a1.949,1.949,0,1,0-.243-3.89,18.685,18.685,0,0,0-9.6,3.3v-8.733a15.82,15.82,0,0,1,7.963-2.35,14.11,14.11,0,0,1,9.807,3.708l2.087,5.937a16.6,16.6,0,0,0-3.181-1.155,1.945,1.945,0,1,0-.932,3.769,10.626,10.626,0,0,1,6.646,4.417,1.945,1.945,0,0,0,3.444-1.763s-4.787-13.476-4.984-13.677a16.9,16.9,0,0,0-7.477-4.356,35.338,35.338,0,0,0-4.355-.749m-20.87,3.869a15.82,15.82,0,0,1,7.963,2.35v8.773a19.075,19.075,0,0,0-11.023-3.343,20.278,20.278,0,0,0-8.895,2.026l2.148-6.1a14.11,14.11,0,0,1,9.807-3.708Z" transform="translate(0 -242.449)" fill="gray"/>
    </g>
  </g>
</svg>
