<svg width="49" height="44" viewBox="0 0 49 44" fill="none" xmlns="http://www.w3.org/2000/svg">
<g id="Plan">
<g id="Group 170">
<path id="Path 191" d="M28.3664 14.8911C28.7936 19.0393 27.5998 23.192 25.0412 26.4584C22.4825 29.7249 18.7628 31.845 14.6797 32.364H14.5286C14.2081 32.3775 13.8952 32.2629 13.6572 32.0449C13.4192 31.8269 13.2751 31.5229 13.2559 31.1984C13.2367 30.8738 13.344 30.5546 13.5546 30.3094C13.7653 30.0642 14.0624 29.9126 14.3822 29.8871C17.8143 29.4484 20.9421 27.6702 23.1009 24.9307C25.2597 22.1912 26.2791 18.7063 25.9425 15.2169L24.1488 17.5455C24.05 17.6737 23.9272 17.7808 23.7876 17.8609C23.6479 17.941 23.494 17.9924 23.3347 18.0121C23.1754 18.0319 23.0139 18.0197 22.8592 17.9762C22.7046 17.9328 22.5599 17.8588 22.4335 17.7587C22.3071 17.6585 22.2013 17.5341 22.1223 17.3925C22.0433 17.2509 21.9926 17.095 21.9731 16.9335C21.9535 16.7721 21.9656 16.6083 22.0085 16.4516C22.0514 16.2949 22.1244 16.1483 22.2232 16.0201L25.8354 11.3232C26.0351 11.0646 26.3279 10.8968 26.6495 10.8569C26.9711 10.8169 27.2953 10.908 27.5507 11.1101L32.1849 14.7711C32.4302 14.9769 32.5866 15.2715 32.6209 15.5924C32.6551 15.9132 32.5646 16.235 32.3684 16.4892C32.1723 16.7434 31.8861 16.91 31.5706 16.9537C31.2551 16.9973 30.9353 16.9145 30.6791 16.7228L28.3664 14.8911Z" fill="#16AEDB"/>
<path id="Path 192" d="M13.3658 23.5853L14.1431 21.5445L12.1295 20.7615C11.9786 20.7036 11.8405 20.6161 11.723 20.5041C11.6055 20.3921 11.5109 20.2578 11.4446 20.1087C11.3783 19.9597 11.3416 19.7988 11.3367 19.6354C11.3317 19.472 11.3586 19.3092 11.4157 19.1563C11.4729 19.0034 11.5591 18.8634 11.6697 18.7443C11.7802 18.6252 11.9127 18.5293 12.0598 18.4621C12.2069 18.395 12.3656 18.3578 12.5268 18.3528C12.688 18.3478 12.8487 18.375 12.9995 18.4329L15.0131 19.2159L15.7856 17.175C15.9201 16.8947 16.1538 16.6761 16.4403 16.5628C16.7267 16.4495 17.0448 16.4498 17.331 16.5636C17.6172 16.6775 17.8506 16.8965 17.9845 17.177C18.1184 17.4576 18.1431 17.779 18.0536 18.0771L17.2962 20.118L19.3147 20.9106C19.4645 20.9689 19.6016 21.0564 19.7181 21.1683C19.8345 21.2803 19.9281 21.4143 19.9935 21.5629C20.0588 21.7115 20.0947 21.8716 20.0989 22.0342C20.1032 22.1968 20.0758 22.3587 20.0184 22.5106C19.9609 22.6625 19.8746 22.8014 19.7641 22.9194C19.6537 23.0375 19.5214 23.1323 19.3748 23.1986C19.2283 23.2648 19.0702 23.3011 18.9098 23.3055C18.7494 23.3098 18.5897 23.2821 18.4398 23.2238L16.4262 22.4409L15.6537 24.4817C15.5333 24.7825 15.3014 25.0234 15.0078 25.1527C14.7141 25.282 14.3821 25.2893 14.0831 25.1732C13.7841 25.0571 13.542 24.8268 13.4088 24.5317C13.2755 24.2366 13.2618 23.9003 13.3706 23.5951L13.3658 23.5853Z" fill="#949494"/>
<path id="Path 193" d="M38.3281 26.8149C38.2706 26.9668 38.1843 27.1057 38.0738 27.2238C37.9634 27.3418 37.8312 27.4367 37.6846 27.5029C37.538 27.5692 37.3799 27.6055 37.2195 27.6098C37.059 27.6141 36.8993 27.5864 36.7495 27.5281L34.7359 26.7452L33.9586 28.786C33.8382 29.0868 33.6063 29.3276 33.3126 29.4569C33.019 29.5862 32.687 29.5936 32.388 29.4775C32.089 29.3614 31.8469 29.131 31.7136 28.8359C31.5804 28.5408 31.5667 28.2046 31.6755 27.8993L32.448 25.8633L30.4343 25.0706C30.2845 25.0124 30.1474 24.9249 30.0309 24.8129C29.9145 24.701 29.8209 24.567 29.7555 24.4184C29.6902 24.2698 29.6544 24.1097 29.6501 23.9471C29.6458 23.7845 29.6732 23.6226 29.7306 23.4707C29.7881 23.3188 29.8745 23.1799 29.9849 23.0618C30.0953 22.9438 30.2276 22.8489 30.3742 22.7827C30.5208 22.7165 30.6788 22.6802 30.8392 22.6758C30.9996 22.6715 31.1594 22.6992 31.3092 22.7574L33.3228 23.5404L34.0953 21.4995C34.1534 21.3473 34.2405 21.2082 34.3516 21.0901C34.4627 20.972 34.5957 20.8773 34.743 20.8113C34.8902 20.7453 35.0489 20.7093 35.2098 20.7054C35.3708 20.7016 35.5309 20.7299 35.6811 20.7887C35.8313 20.8476 35.9685 20.9358 36.0851 21.0485C36.2016 21.1611 36.2951 21.2959 36.3602 21.4451C36.4253 21.5944 36.4608 21.7552 36.4646 21.9183C36.4684 22.0815 36.4405 22.2438 36.3824 22.396L35.6099 24.4368L37.6043 25.2149C37.7556 25.2715 37.8944 25.3579 38.0126 25.4692C38.1308 25.5804 38.2261 25.7142 38.293 25.863C38.3599 26.0117 38.3971 26.1724 38.4024 26.3358C38.4078 26.4991 38.3811 26.662 38.3241 26.8149H38.3281Z" fill="#949494"/>
<path id="Path 194" d="M43.4389 13.5445L45.3582 14.1589C45.391 14.1692 45.4213 14.1861 45.4476 14.2085C45.4738 14.2309 45.4953 14.2584 45.5109 14.2894C45.527 14.3201 45.5369 14.3538 45.5399 14.3885C45.543 14.4232 45.5391 14.4581 45.5285 14.4912L44.6312 17.3677L46.0955 22.0687L48.1915 15.3471C48.3124 14.9595 48.3568 14.5515 48.3221 14.1464C48.2875 13.7414 48.1744 13.3473 47.9894 12.9865C47.8044 12.6258 47.5511 12.3055 47.244 12.044C46.9369 11.7824 46.5819 11.5848 46.1994 11.4623L42.4121 10.2466L43.4389 13.5445Z" fill="#949494"/>
<path id="Path 195" d="M5.22818 30.5881L3.30893 29.9737C3.2429 29.9525 3.18788 29.9056 3.15594 29.8433C3.12401 29.781 3.11777 29.7084 3.13859 29.6414L4.03584 26.7633L2.57241 22.0615L0.475629 28.7888C0.354706 29.1763 0.310314 29.5843 0.344989 29.9893C0.379663 30.3943 0.492725 30.7883 0.677714 31.149C0.862703 31.5097 1.116 31.8299 1.42312 32.0914C1.73024 32.3528 2.08518 32.5504 2.46765 32.6727L6.25658 33.8885L5.22818 30.5881Z" fill="#949494"/>
<path id="Path 196" d="M39.1542 34.9282L37.3829 40.6075C37.3619 40.6742 37.3157 40.7298 37.2544 40.7621C37.1932 40.7945 37.1218 40.8009 37.0558 40.7801L28.9669 38.1865L24.3287 39.6705L36.2113 43.4799C36.9837 43.7261 37.8208 43.6518 38.5391 43.2733C39.2575 42.8948 39.7985 42.2431 40.0434 41.4609L42.4057 33.8867L39.1542 34.9282Z" fill="#949494"/>
<path id="Path 197" d="M9.51132 9.20027L11.2826 3.52184C11.2929 3.48864 11.3096 3.45783 11.3316 3.43117C11.3537 3.40451 11.3807 3.38252 11.4112 3.36648C11.4416 3.35044 11.4749 3.34066 11.5091 3.33769C11.5433 3.33473 11.5778 3.33864 11.6105 3.3492L19.6986 5.94283L24.3368 4.45879L12.4518 0.649391C12.0693 0.526821 11.6668 0.481817 11.2671 0.516951C10.8675 0.552084 10.4786 0.666667 10.1227 0.854154C9.76674 1.04164 9.45074 1.29836 9.19271 1.60965C8.93468 1.92093 8.73969 2.28069 8.61887 2.66837L6.25739 10.2426L9.51132 9.20027Z" fill="#949494"/>
<path id="Path 198" d="M11.5305 43.6208C10.8811 43.6203 10.2487 43.4104 9.72487 43.0215C9.201 42.6326 8.81279 42.0849 8.61642 41.4575L0.477183 15.3389C0.356387 14.9512 0.312113 14.5433 0.34689 14.1383C0.381666 13.7333 0.494812 13.3392 0.679867 12.9785C0.864921 12.6179 1.11826 12.2977 1.42541 12.0363C1.73257 11.7748 2.08752 11.5773 2.47001 11.4549L36.2185 0.652429C36.601 0.530016 37.0036 0.485179 37.4032 0.520479C37.8028 0.555779 38.1917 0.670525 38.5475 0.858163C38.9034 1.0458 39.2193 1.30266 39.4772 1.61405C39.7351 1.92545 39.9299 2.2853 40.0506 2.67303L48.1898 28.7901C48.4327 29.573 48.3593 30.4215 47.9857 31.1496C47.6121 31.8777 46.9688 32.426 46.197 32.674L12.4501 43.4773C12.1532 43.5728 11.8436 43.6215 11.5321 43.6216M37.1405 3.33927C37.1134 3.33934 37.0864 3.34372 37.0605 3.35224L3.31128 14.1547C3.27862 14.1651 3.2483 14.182 3.22206 14.2043C3.19582 14.2266 3.17417 14.2539 3.15835 14.2847C3.14253 14.3155 3.13286 14.3491 3.12987 14.3837C3.12688 14.4183 3.13065 14.4531 3.14095 14.4862L11.2826 40.6049C11.3035 40.6718 11.3498 40.7276 11.4113 40.7599C11.4728 40.7923 11.5444 40.7986 11.6105 40.7775L45.3573 29.9742C45.4233 29.953 45.4784 29.9061 45.5103 29.8438C45.5422 29.7815 45.5485 29.7089 45.5276 29.6419L37.3876 3.52406C37.3709 3.47057 37.3379 3.4238 37.2934 3.39047C37.2489 3.35713 37.1951 3.33892 37.1397 3.33846" fill="#2574A9"/>
</g>
</g>
</svg>
