<svg id="ROI" xmlns="http://www.w3.org/2000/svg" xmlns:xlink="http://www.w3.org/1999/xlink" width="50.348" height="53.2" viewBox="0 0 50.348 53.2">
  <defs>
    <clipPath id="clip-path">
      <rect id="Rectangle_362" data-name="Rectangle 362" width="50.347" height="53.2" fill="none"/>
    </clipPath>
  </defs>
  <g id="Group_510" data-name="Group 510" clip-path="url(#clip-path)">
    <path id="Path_211" data-name="Path 211" d="M125.675,38.5a13.88,13.88,0,0,0,5.691-1.172c3.85-1.507,7.031-4.185,8.2-7.366a1.477,1.477,0,0,0-.837-2.009,13.551,13.551,0,0,0-10.881-.167,18.013,18.013,0,0,0-5.189,3.18V26.616a13.508,13.508,0,0,0,11.718-13.224,13.392,13.392,0,0,0-26.784,0,13.174,13.174,0,0,0,2.009,7.031,12.447,12.447,0,0,0-6.7,1.674,1.589,1.589,0,0,0-.669,1.842c1,3.515,4.185,6.7,8.37,8.37a16.074,16.074,0,0,0,5.524,1,11.6,11.6,0,0,0,3.348-.5v8.2l3.348-.383V38.119a9.445,9.445,0,0,0,2.846.382m-6.194-9.039c-2.009.837-4.687.67-7.533-.334a12.146,12.146,0,0,1-5.859-4.855,10.2,10.2,0,0,1,7.366.167,13.8,13.8,0,0,0,6.026,2.344Zm-8.5-16.071A10.044,10.044,0,1,1,121.03,23.435a10.073,10.073,0,0,1-10.044-10.044M130.2,34.317a11.39,11.39,0,0,1-6.529.669,11.619,11.619,0,0,1,5.524-4.018,11.39,11.39,0,0,1,6.529-.669,12.822,12.822,0,0,1-5.524,4.018" transform="translate(-89.35)" fill="#16aedb"/>
    <path id="Path_212" data-name="Path 212" d="M30.131,259.553l-2.678.335a4.65,4.65,0,0,0-.5-3.013A4.589,4.589,0,0,0,24.1,254.7L13.726,252.02h-1L8.37,253.694V252.02A1.581,1.581,0,0,0,6.7,250.346H1.674a1.674,1.674,0,0,0,0,3.348H5.022v15.066H1.674a1.674,1.674,0,0,0,0,3.348H6.7A1.465,1.465,0,0,0,8.2,270.768l3.85-1c.669.167,12.22,2.511,12.722,2.344l20.088-5.357a4.546,4.546,0,0,0,3.18-2.846,4.174,4.174,0,0,0-.669-4.185,4.7,4.7,0,0,0-4.185-1.842l-9.709,1.34Zm13.727,1.674a1.446,1.446,0,0,1,1,.5,1.607,1.607,0,0,1,.167,1.172,1.323,1.323,0,0,1-.837.837L24.44,268.927l-12.053-2.511h-.837l-3.18,1V257.376l5.022-1.842,9.709,2.511a1.673,1.673,0,0,1,.837.669,2.125,2.125,0,0,1,.167,1,1.408,1.408,0,0,1-1.172.67H16.74a1.677,1.677,0,0,0-1.674,1.674,1.581,1.581,0,0,0,1.674,1.674h6.7Z" transform="translate(0 -218.916)" fill="#2574a9"/>
    <path id="Path_57" data-name="Path 57" d="M220.224,151.507a.767.767,0,0,0-1.057-.245h0l-3.07,1.919a.768.768,0,0,0,0,1.3l3.07,1.919a.768.768,0,0,0,.814-1.3l-2.029-1.268,2.029-1.268A.768.768,0,0,0,220.224,151.507Z" transform="translate(-191.44 -140.489)" fill="#707070"/>
    <path id="Path_58" data-name="Path 58" d="M231.671,156.158a.768.768,0,0,0,1.058.244l3.07-1.919a.768.768,0,0,0,0-1.3l-3.07-1.919a.768.768,0,1,0-.814,1.3l2.029,1.268-2.029,1.268A.768.768,0,0,0,231.671,156.158Z" transform="translate(-197.28 -140.489)" fill="#707070"/>
    <path id="Path_59" data-name="Path 59" d="M225.462,157.137a.79.79,0,0,0,.168.018.766.766,0,0,0,.748-.6l1.535-6.908a.768.768,0,0,0-1.5-.333l-1.535,6.908a.767.767,0,0,0,.582.915Z" transform="translate(-194.809 -139.591)" fill="#2574a9"/>
  </g>
</svg>
