<svg id="Session_Icon" data-name="Session Icon" xmlns="http://www.w3.org/2000/svg" width="60.012" height="56.849" viewBox="0 0 60.012 56.849">
  <g id="Group_161" data-name="Group 161">
    <path id="Path_173" data-name="Path 173" d="M28.131,34.128H6.446A6.452,6.452,0,0,0,0,40.575V80.308a6.453,6.453,0,0,0,6.446,6.448H53.564a6.454,6.454,0,0,0,6.448-6.448V40.575a6.454,6.454,0,0,0-6.448-6.447H28.131Zm10.548,0H31.646m17.583,0H42.195m10.55,3.516h.819A2.933,2.933,0,0,1,56.5,40.575v5.274H3.516V40.575a2.933,2.933,0,0,1,2.93-2.932h46.3Zm-10.55,0h7.034m-17.583,0h7.033M53.564,83.238H6.446a2.933,2.933,0,0,1-2.93-2.932V49.364H56.5V80.307a2.934,2.934,0,0,1-2.932,2.932Z" transform="translate(0 -29.906)" fill="#16aedb" fill-rule="evenodd"/>
    <path id="Path_174" data-name="Path 174" d="M95.067,193.326H88.034a1.758,1.758,0,0,0-1.758,1.758h0v7.266a1.76,1.76,0,0,0,1.758,1.758h7.032a1.761,1.761,0,0,0,1.761-1.758v-7.266a1.759,1.759,0,0,0-1.759-1.758m-1.76,7.266H89.792v-3.751h3.515Z" transform="translate(-75.604 -169.412)" fill="#2574a9" fill-rule="evenodd"/>
    <path id="Path_175" data-name="Path 175" d="M322.47,307.012h-7.033a1.758,1.758,0,0,0-1.758,1.758v7.266a1.758,1.758,0,0,0,1.758,1.758h7.032a1.76,1.76,0,0,0,1.761-1.758h0V308.77a1.759,1.759,0,0,0-1.759-1.758m-1.759,7.266h-3.516v-3.751h3.516Z" transform="translate(-274.877 -269.035)" fill="#2574a9" fill-rule="evenodd"/>
    <path id="Path_176" data-name="Path 176" d="M323.052,200.9a1.758,1.758,0,0,1-2.488,2.485L318.173,201l-2.391,2.391A1.757,1.757,0,0,1,313.3,200.9l2.391-2.391-2.273-2.274a1.758,1.758,0,1,1,2.465-2.508l.02.02,2.274,2.274,2.273-2.274a1.759,1.759,0,1,1,2.488,2.488l-2.274,2.274Z" transform="translate(-274.097 -169.323)" fill="gray" fill-rule="evenodd"/>
    <path id="Path_177" data-name="Path 177" d="M209.183,200.975a1.757,1.757,0,0,1-2.471,2.5l-.014-.014-2.391-2.391-2.391,2.391a1.758,1.758,0,0,1-2.52-2.452l.033-.033,2.391-2.391-2.274-2.274a1.759,1.759,0,0,1,2.487-2.488l2.273,2.274,2.273-2.274a1.758,1.758,0,1,1,2.485,2.488l-2.272,2.274Z" transform="translate(-174.295 -169.396)" fill="gray" fill-rule="evenodd"/>
    <path id="Path_178" data-name="Path 178" d="M209.355,315.687h0a1.758,1.758,0,1,1-2.485,2.488l-2.391-2.391-2.391,2.391a1.759,1.759,0,0,1-2.487-2.488l2.391-2.391-2.274-2.273a1.758,1.758,0,0,1,2.487-2.485l2.273,2.273,2.273-2.273a1.757,1.757,0,0,1,2.485,2.485l-2.272,2.273Z" transform="translate(-174.466 -269.927)" fill="gray" fill-rule="evenodd"/>
    <path id="Path_179" data-name="Path 179" d="M95.546,315.67h0a1.759,1.759,0,1,1-2.469,2.506l-.018-.018-2.391-2.391-2.391,2.387a1.757,1.757,0,1,1-2.5-2.471l.014-.014,2.391-2.39-2.273-2.273a1.757,1.757,0,0,1,2.485-2.485l2.273,2.273,2.274-2.273a1.758,1.758,0,0,1,2.488,2.485l-2.274,2.273Z" transform="translate(-74.722 -269.91)" fill="gray" fill-rule="evenodd"/>
    <path id="Path_180" data-name="Path 180" d="M61.376,4.222V1.759a1.758,1.758,0,0,0-3.516,0V10.2a1.758,1.758,0,0,0,3.516,0V4.222Z" transform="translate(-50.703 0)" fill="gray" fill-rule="evenodd"/>
    <path id="Path_181" data-name="Path 181" d="M146.626,4.222V1.759a1.758,1.758,0,1,0-3.516,0V10.2a1.758,1.758,0,0,0,3.516,0V4.222Z" transform="translate(-125.407 0)" fill="gray" fill-rule="evenodd"/>
    <path id="Path_182" data-name="Path 182" d="M231.876,4.222V1.759a1.758,1.758,0,1,0-3.516,0V10.2a1.758,1.758,0,0,0,3.516,0V4.222Z" transform="translate(-200.112 0)" fill="gray" fill-rule="evenodd"/>
    <path id="Path_183" data-name="Path 183" d="M317.126,4.222V1.759a1.758,1.758,0,0,0-3.516,0V10.2a1.758,1.758,0,0,0,3.516,0V4.222Z" transform="translate(-274.816 0)" fill="gray" fill-rule="evenodd"/>
    <path id="Path_184" data-name="Path 184" d="M402.376,4.222V1.759a1.758,1.758,0,0,0-3.516,0V10.2a1.758,1.758,0,0,0,3.516,0V4.222Z" transform="translate(-349.521 0)" fill="gray" fill-rule="evenodd"/>
  </g>
</svg>
