<svg xmlns="http://www.w3.org/2000/svg" width="53.607" height="53.412" viewBox="0 0 53.607 53.412">
  <g id="x3_half_day" data-name="x3 half day" transform="translate(-544.126 -119.208)">
    <g id="Group_35" data-name="Group 35" transform="translate(597.538 119.208) rotate(90)">
      <path id="Path_73" data-name="Path 73" d="M568.95,172.62a26.736,26.736,0,0,0,26.706-26.706,1.883,1.883,0,1,0-3.764,0,22.942,22.942,0,1,1-45.884,0,1.882,1.882,0,0,0-3.764,0A26.736,26.736,0,0,0,568.95,172.62Z" transform="translate(-542.244 -119.208)" fill="#00a0d4"/>
    </g>
    <g id="Group_41" data-name="Group 41" transform="translate(596.733 120.372) rotate(90)">
      <g id="Group_36" data-name="Group 36" transform="translate(0 18.528)">
        <ellipse id="Ellipse_2" data-name="Ellipse 2" cx="1.509" cy="1.509" rx="1.509" ry="1.509" transform="translate(0.375 0.376)" fill="#6d6d6d"/>
        <path id="Path_74" data-name="Path 74" d="M593.465,141.674a1.885,1.885,0,1,0-1.883-1.885A1.887,1.887,0,0,0,593.465,141.674Zm0-3.017a1.132,1.132,0,1,1-1.131,1.132A1.134,1.134,0,0,1,593.465,138.657Z" transform="translate(-591.582 -137.904)" fill="#6d6d6d"/>
      </g>
      <g id="Group_37" data-name="Group 37" transform="translate(1.93 12.915)">
        <ellipse id="Ellipse_3" data-name="Ellipse 3" cx="1.509" cy="1.509" rx="1.509" ry="1.509" transform="translate(0.376 0.377)" fill="#6d6d6d"/>
        <path id="Path_75" data-name="Path 75" d="M591.535,136.062a1.885,1.885,0,1,0-1.885-1.886A1.888,1.888,0,0,0,591.535,136.062Zm0-3.018a1.132,1.132,0,1,1-1.133,1.132A1.134,1.134,0,0,1,591.535,133.044Z" transform="translate(-589.65 -132.291)" fill="#6d6d6d"/>
      </g>
      <g id="Group_38" data-name="Group 38" transform="translate(5.551 7.665)">
        <ellipse id="Ellipse_4" data-name="Ellipse 4" cx="1.509" cy="1.509" rx="1.509" ry="1.509" transform="translate(0.376 0.376)" fill="#6d6d6d"/>
        <path id="Path_76" data-name="Path 76" d="M587.914,130.811a1.885,1.885,0,1,0-1.885-1.885A1.888,1.888,0,0,0,587.914,130.811Zm0-3.018a1.132,1.132,0,1,1-1.133,1.133A1.135,1.135,0,0,1,587.914,127.793Z" transform="translate(-586.029 -127.041)" fill="#6d6d6d"/>
      </g>
      <g id="Group_39" data-name="Group 39" transform="translate(10.56 3.138)">
        <ellipse id="Ellipse_5" data-name="Ellipse 5" cx="1.509" cy="1.509" rx="1.509" ry="1.509" transform="translate(0.376 0.377)" fill="#6d6d6d"/>
        <path id="Path_77" data-name="Path 77" d="M582.9,126.285a1.886,1.886,0,1,0-1.885-1.886A1.888,1.888,0,0,0,582.9,126.285Zm0-3.018a1.132,1.132,0,1,1-1.133,1.132A1.134,1.134,0,0,1,582.9,123.267Z" transform="translate(-581.02 -122.514)" fill="#6d6d6d"/>
      </g>
      <g id="Group_40" data-name="Group 40" transform="translate(16.536 0)">
        <ellipse id="Ellipse_6" data-name="Ellipse 6" cx="1.509" cy="1.509" rx="1.509" ry="1.509" transform="translate(0.375 0.377)" fill="#6d6d6d"/>
        <path id="Path_78" data-name="Path 78" d="M576.929,123.146a1.885,1.885,0,1,0-1.884-1.885A1.886,1.886,0,0,0,576.929,123.146Zm0-3.017a1.132,1.132,0,1,1-1.132,1.132A1.134,1.134,0,0,1,576.929,120.129Z" transform="translate(-575.045 -119.376)" fill="#6d6d6d"/>
      </g>
    </g>
    <g id="Group_508" data-name="Group 508" transform="translate(574.435 171.677) rotate(-90)">
      <g id="Group_36-2" data-name="Group 36" transform="translate(0 0)">
        <ellipse id="Ellipse_2-2" data-name="Ellipse 2" cx="1.509" cy="1.509" rx="1.509" ry="1.509" transform="translate(0.375 0.376)" fill="#6d6d6d"/>
        <path id="Path_74-2" data-name="Path 74" d="M1.883,0A1.885,1.885,0,1,1,0,1.885,1.887,1.887,0,0,1,1.883,0Zm0,3.017A1.132,1.132,0,1,0,.752,1.885,1.134,1.134,0,0,0,1.883,3.017Z" fill="#6d6d6d"/>
      </g>
      <g id="Group_37-2" data-name="Group 37" transform="translate(1.93 5.612)">
        <ellipse id="Ellipse_3-2" data-name="Ellipse 3" cx="1.509" cy="1.509" rx="1.509" ry="1.509" transform="translate(0.376 0.377)" fill="#6d6d6d"/>
        <path id="Path_75-2" data-name="Path 75" d="M1.885,0A1.885,1.885,0,1,1,0,1.886,1.888,1.888,0,0,1,1.885,0Zm0,3.018A1.132,1.132,0,1,0,.752,1.886,1.134,1.134,0,0,0,1.885,3.018Z" fill="#6d6d6d"/>
      </g>
      <g id="Group_38-2" data-name="Group 38" transform="translate(5.551 10.863)">
        <ellipse id="Ellipse_4-2" data-name="Ellipse 4" cx="1.509" cy="1.509" rx="1.509" ry="1.509" transform="translate(0.376 0.376)" fill="#6d6d6d"/>
        <path id="Path_76-2" data-name="Path 76" d="M1.885,0A1.885,1.885,0,1,1,0,1.885,1.888,1.888,0,0,1,1.885,0Zm0,3.018A1.132,1.132,0,1,0,.752,1.885,1.135,1.135,0,0,0,1.885,3.018Z" transform="translate(0 0)" fill="#6d6d6d"/>
      </g>
      <g id="Group_39-2" data-name="Group 39" transform="translate(10.56 15.389)">
        <ellipse id="Ellipse_5-2" data-name="Ellipse 5" cx="1.509" cy="1.509" rx="1.509" ry="1.509" transform="translate(0.376 0.377)" fill="#6d6d6d"/>
        <path id="Path_77-2" data-name="Path 77" d="M1.885,0A1.885,1.885,0,1,1,0,1.886,1.888,1.888,0,0,1,1.885,0Zm0,3.018A1.132,1.132,0,1,0,.752,1.886,1.134,1.134,0,0,0,1.885,3.018Z" fill="#6d6d6d"/>
      </g>
      <g id="Group_40-2" data-name="Group 40" transform="translate(16.536 18.528)">
        <ellipse id="Ellipse_6-2" data-name="Ellipse 6" cx="1.509" cy="1.509" rx="1.509" ry="1.509" transform="translate(0.375 0.376)" fill="#6d6d6d"/>
        <ellipse id="Ellipse_35" data-name="Ellipse 35" cx="1.509" cy="1.509" rx="1.509" ry="1.509" transform="translate(7.375 1.376)" fill="#6d6d6d"/>
        <path id="Path_78-2" data-name="Path 78" d="M1.884,0A1.885,1.885,0,1,1,0,1.885,1.886,1.886,0,0,1,1.884,0Zm0,3.017A1.132,1.132,0,1,0,.752,1.885,1.134,1.134,0,0,0,1.884,3.017Z" fill="#6d6d6d"/>
        <path id="Path_203" data-name="Path 203" d="M1.884,0A1.885,1.885,0,1,1,0,1.885,1.886,1.886,0,0,1,1.884,0Zm0,3.017A1.132,1.132,0,1,0,.752,1.885,1.134,1.134,0,0,0,1.884,3.017Z" transform="translate(7 1)" fill="#6d6d6d"/>
      </g>
    </g>
  </g>
</svg>
