<svg width="48" height="38" viewBox="0 0 48 38" fill="none" xmlns="http://www.w3.org/2000/svg">
<g id="Layer_1" clip-path="url(#clip0_259_172)">
<path id="Vector" d="M29.6 0.443303C24.8 0.443303 20.2133 2.3286 16.8 5.66827C16.2133 6.20692 16.2133 7.12264 16.8 7.66129C17.3333 8.19995 18.24 8.25382 18.7733 7.66129C21.6533 4.80642 25.5467 3.24431 29.6 3.24431C38.1867 3.24431 45.1733 10.2468 45.1733 18.9731C45.1733 27.6454 38.24 34.7018 29.6 34.7018C25.5467 34.7018 21.6533 33.0859 18.7733 30.2848C18.24 29.7462 17.3333 29.7462 16.8 30.2848C16.2667 30.8235 16.2667 31.7392 16.8 32.2779C20.2133 35.6175 24.8533 37.5028 29.6 37.5028C39.7333 37.5028 48 29.1537 48 18.9192C48 8.68474 39.7333 0.335571 29.6 0.335571V0.443303Z" fill="#16AEDB"/>
<path id="Vector_2" d="M29.5467 4.26782C28.7467 4.26782 28.1067 4.91421 28.1067 5.66833V7.01497C28.1067 7.82295 28.7467 8.46934 29.4934 8.46934C30.2934 8.46934 30.88 7.82295 30.88 7.01497V5.66833C30.88 4.86034 30.24 4.26782 29.4934 4.26782H29.5467Z" fill="#949494"/>
<path id="Vector_3" d="M38.8267 8.19995C38.4534 8.19995 38.08 8.36155 37.8134 8.63088L36.8534 9.60046C36.32 10.1391 36.32 11.0548 36.8534 11.5935C37.1734 11.9167 37.5467 12.0244 37.9734 12.0244C38.2934 12.0244 38.6134 11.8628 38.8267 11.5935L39.7867 10.6239C40.32 10.0852 40.32 9.16953 39.7867 8.63088C39.52 8.36155 39.1467 8.19995 38.7734 8.19995H38.8267Z" fill="#949494"/>
<path id="Vector_4" d="M7.03999 11.1088C6.23999 11.1088 5.65332 11.7552 5.65332 12.5093C5.65332 13.3173 6.29332 13.9636 7.03999 13.9636H21.6533C22.4533 13.9636 23.04 13.3173 23.04 12.5093C23.04 11.7013 22.4 11.1088 21.6533 11.1088H7.03999Z" fill="#2574A9"/>
<path id="Vector_5" d="M34.5067 12.5631C34.1334 12.5631 33.7601 12.7247 33.4934 12.994L29.9734 16.5492C29.9734 16.5492 29.7067 16.5492 29.6001 16.5492C29.6001 16.5492 29.6001 16.5492 29.5467 16.5492C28.2134 16.5492 27.1467 17.6803 27.1467 19.027C27.1467 20.3736 28.2667 21.5048 29.6001 21.5048C30.9334 21.5048 32.0534 20.3736 32.0534 19.027C32.0534 18.8654 32.0534 18.7038 32.0534 18.5422L35.5734 14.9871C36.1067 14.4484 36.1067 13.5327 35.5734 12.994C35.3067 12.7247 34.9334 12.5631 34.5601 12.5631H34.5067Z" fill="#2574A9"/>
<path id="Vector_6" d="M1.38667 17.5726C0.64 17.5726 0 18.219 0 19.027C0 19.835 0.64 20.4814 1.38667 20.4814H16C16.8 20.4814 17.3867 19.835 17.3867 19.027C17.3867 18.219 16.7467 17.6265 16 17.6265H1.38667V17.5726Z" fill="#16AEDB"/>
<path id="Vector_7" d="M41.3867 17.5726C40.5867 17.5726 40 18.219 40 18.9731C40 19.7811 40.64 20.4275 41.3867 20.4275H42.72C43.52 20.4275 44.16 19.7811 44.16 19.027C44.16 18.219 43.52 17.6265 42.72 17.6265H41.3867V17.5726Z" fill="#949494"/>
<path id="Vector_8" d="M7.03999 24.0903C6.23999 24.0903 5.65332 24.7367 5.65332 25.5447C5.65332 26.3527 6.29332 26.9452 7.03999 26.9452H21.6533C22.4533 26.9452 23.04 26.2988 23.04 25.5447C23.04 24.7367 22.4 24.0903 21.6533 24.0903H7.03999Z" fill="#2574A9"/>
<path id="Vector_9" d="M37.8667 26.0295C37.4934 26.0295 37.12 26.1911 36.8534 26.4605C36.32 26.9991 36.32 27.9148 36.8534 28.4535L37.8134 29.4231C38.3467 29.9617 39.2534 29.9617 39.7867 29.4231C40.32 28.8844 40.32 27.9687 39.7867 27.43L38.8267 26.4605C38.8267 26.4605 38.1867 26.0295 37.8134 26.0295H37.8667Z" fill="#949494"/>
<path id="Vector_10" d="M29.5467 29.5308C28.7467 29.5308 28.1067 30.1772 28.1067 30.9313V32.2779C28.1067 33.0859 28.7467 33.6784 29.5467 33.6784C30.3467 33.6784 30.9334 33.0321 30.9334 32.2779V30.9313C30.9334 30.1233 30.2934 29.4769 29.5467 29.4769V29.5308Z" fill="#949494"/>
</g>
<defs>
<clipPath id="clip0_259_172">
<rect width="48" height="37.1134" fill="white" transform="translate(0 0.443359)"/>
</clipPath>
</defs>
</svg>
