<svg xmlns="http://www.w3.org/2000/svg" width="17.331" height="14.092" viewBox="0 0 17.331 14.092"><defs><style>.a{fill:#fff;}</style></defs><g transform="translate(-3.755 -4.92)"><g transform="translate(3.755 4.92)"><path class="a" d="M80.544,112.492a10.053,10.053,0,0,0,10.118-10.118c0-.153,0-.305-.007-.458a7.245,7.245,0,0,0,1.775-1.845,7.208,7.208,0,0,1-2.046.562,3.578,3.578,0,0,0,1.567-1.97,7.074,7.074,0,0,1-2.261.86,3.557,3.557,0,0,0-6.151,2.434,3.931,3.931,0,0,0,.09.811,10.1,10.1,0,0,1-7.33-3.717,3.57,3.57,0,0,0,1.1,4.751,3.6,3.6,0,0,1-1.609-.444v.049a3.564,3.564,0,0,0,2.85,3.488,3.577,3.577,0,0,1-1.6.062,3.556,3.556,0,0,0,3.322,2.469,7.133,7.133,0,0,1-4.418,1.526,6.845,6.845,0,0,1-.846-.049,10.116,10.116,0,0,0,5.444,1.588" transform="translate(-75.1 -98.4)"/></g></g></svg>