<svg xmlns="http://www.w3.org/2000/svg" width="15" height="25" viewBox="0 0 15 25" fill="none">
  <path fill-rule="evenodd" clip-rule="evenodd" d="M10.0605 14.2268L1.31182 8.35223C0.907958 8.08104 0.577118 7.71514 0.348382 7.2867C0.119646 6.85826 1.41472e-05 6.38039 0 5.89509V3.5734C0 1.19361 2.67307 -0.215102 4.64685 1.12461L13.3957 7.06187C13.7961 7.33363 14.1239 7.69879 14.3504 8.12558C14.5769 8.55236 14.6953 9.02785 14.6954 9.51066V11.7696C14.6954 14.1428 12.0354 15.553 10.0605 14.2268Z" fill="#3599A5"/>
  <path fill-rule="evenodd" clip-rule="evenodd" d="M10.0605 10.9841L1.31182 16.8588C0.907958 17.13 0.577118 17.4959 0.348382 17.9244C0.119646 18.3528 1.41472e-05 18.8307 0 19.316V21.6375C0 24.0173 2.67307 25.426 4.64685 24.0863L13.3957 18.1491C13.7961 17.8773 14.1239 17.5122 14.3504 17.0854C14.5769 16.6586 14.6953 16.1831 14.6954 15.7003V9.51077C14.6953 9.02796 14.5769 8.55248 14.3504 8.12569C14.1239 7.6989 13.7961 7.33374 13.3957 7.06199L10.0076 4.74219C10.0076 4.74219 11.9037 6.47428 11.9037 8.36392C11.9037 10.2536 10.0605 10.9841 10.0605 10.9841Z" fill="#6FCDD6"/>
  <path fill-rule="evenodd" clip-rule="evenodd" d="M10.0605 14.2268L1.31182 8.35223C0.907958 8.08104 0.577118 7.71514 0.348382 7.2867C0.119646 6.85826 1.41472e-05 6.38039 0 5.89509V3.5734C0 1.19361 2.67307 -0.215102 4.64685 1.12461L13.3957 7.06187C13.7961 7.33363 14.1239 7.69879 14.3504 8.12558C14.5769 8.55236 14.6953 9.02785 14.6954 9.51066V11.7696C14.6954 14.1428 12.0354 15.553 10.0605 14.2268Z" fill="#BDBDBD"/>
  <path fill-rule="evenodd" clip-rule="evenodd" d="M10.0605 10.9841L1.31182 16.8588C0.907958 17.13 0.577118 17.4959 0.348382 17.9244C0.119646 18.3528 1.41472e-05 18.8307 0 19.316V21.6375C0 24.0173 2.67307 25.426 4.64685 24.0863L13.3957 18.1491C13.7961 17.8773 14.1239 17.5122 14.3504 17.0854C14.5769 16.6586 14.6953 16.1831 14.6954 15.7003V9.51077C14.6953 9.02796 14.5769 8.55248 14.3504 8.12569C14.1239 7.6989 13.7961 7.33374 13.3957 7.06199L10.0076 4.74219C10.0076 4.74219 11.9037 6.47428 11.9037 8.36392C11.9037 10.2536 10.0605 10.9841 10.0605 10.9841Z" fill="white"/>
</svg>