<svg id="Workshop_Icon" data-name="Workshop Icon" xmlns="http://www.w3.org/2000/svg" xmlns:xlink="http://www.w3.org/1999/xlink" width="57.854" height="53.166" viewBox="0 0 57.854 53.166">
  <defs>
    <clipPath id="clip-path">
      <rect id="Rectangle_361" data-name="Rectangle 361" width="57.854" height="53.166" fill="none"/>
    </clipPath>
  </defs>
  <g id="Group_509" data-name="Group 509" clip-path="url(#clip-path)">
    <path id="Path_204" data-name="Path 204" d="M210.592,337.078v5.961a.9.9,0,0,0,.9.9h9.516a.9.9,0,0,0,.9-.9v-5.961a.9.9,0,0,0-.9-.9h-9.516a.9.9,0,0,0-.9.9m1.825,5.054V337.98H220.1v4.153Z" transform="translate(-185.828 -296.646)" fill="#16aedb"/>
    <path id="Path_205" data-name="Path 205" d="M62.96,95.4H83.954a.9.9,0,0,0,.9-.9V76.551a.9.9,0,0,0-.9-.9H62.96a.9.9,0,0,0-.9.9V94.5a.9.9,0,0,0,.9.9m.907-17.941H83.048V93.58H63.866Z" transform="translate(-54.765 -66.758)" fill="#2574a9"/>
    <path id="Path_206" data-name="Path 206" d="M200.735,168.176H179.747a.9.9,0,0,0-.9.9v12.745H163.831a.9.9,0,0,0-.9.9v17.945a.9.9,0,0,0,.9.9h20.977a.9.9,0,0,0,.9-.9V187.92h15.018a.9.9,0,0,0,.9-.9V169.073a.908.908,0,0,0-.894-.9m-20.985,19.758h4.162v11.828H164.738V183.639h14.111v3.4a.905.905,0,0,0,.9.9m20.082-1.818H180.652V169.993h19.182Z" transform="translate(-143.775 -148.4)" fill="#2574a9"/>
    <path id="Path_207" data-name="Path 207" d="M118.108,116.84l0,0a.907.907,0,0,0-1.605-.011l-4.073,7.642a.9.9,0,0,0,0,.875.875.875,0,0,0,.76.452h0l8.06.147a.922.922,0,0,0,.758-.415l.012-.019a.9.9,0,0,0,.005-.882Zm1.672,7.274-5.064-.089,2.559-4.826Z" transform="translate(-99.108 -102.665)" fill="#16aedb"/>
    <path id="Path_208" data-name="Path 208" d="M358.581,217.765h.007a5.073,5.073,0,0,0,5.073-5.075,5.073,5.073,0,0,0-5.072-5.069h-.013a5.106,5.106,0,0,0-3.586,1.5,5.072,5.072,0,0,0,3.591,8.646m.008-8.356a3.269,3.269,0,1,1-3.269,3.3,3.269,3.269,0,0,1,3.262-3.3Z" transform="translate(-311.946 -183.207)" fill="#16aedb"/>
    <path id="Path_209" data-name="Path 209" d="M10.688,231.541l0,0a.906.906,0,0,0-1.2-.4.895.895,0,0,0-.4,1.2l.631,1.272a10.581,10.581,0,0,1-7.324-6.287c-1.325-3.506-.35-7.364,2.676-10.591a.9.9,0,1,0-1.314-1.212C.236,219.278-.877,223.817.7,227.987a12.258,12.258,0,0,0,8.646,7.383l-1.106.83a.9.9,0,0,0,.394,1.656.872.872,0,0,0,.091,0,.905.905,0,0,0,.586-.215l2.625-1.911a.9.9,0,0,0,.266-1.127Z" transform="translate(0 -189.845)" fill="#707070"/>
    <path id="Path_210" data-name="Path 210" d="M230.061,4.8,233.074,6.4a.9.9,0,0,0,1.287-1.054.885.885,0,0,0-.438-.524l-1.256-.677a10.469,10.469,0,0,1,9.612.87c3.118,2.116,4.559,5.832,3.954,10.193h0A.9.9,0,0,0,247,16.235l.118,0h.008a.892.892,0,0,0,.886-.778c.726-5.091-1-9.443-4.738-11.943a12.24,12.24,0,0,0-11.309-1.026l.433-1.3a.9.9,0,0,0-1.716-.565l-1.022,3.095a.9.9,0,0,0,.4,1.082" transform="translate(-202.611 0)" fill="#707070"/>
  </g>
</svg>
