<?xml version="1.0" encoding="iso-8859-1"?>
<!-- Generator: Adobe Illustrator 19.0.0, SVG Export Plug-In . SVG Version: 6.00 Build 0)  -->
<svg version="1.1" id="Layer_1" xmlns="http://www.w3.org/2000/svg" xmlns:xlink="http://www.w3.org/1999/xlink" x="0px" y="0px"
	 viewBox="0 0 512 512" style="enable-background:new 0 0 512 512;" xml:space="preserve">
<g>
	<g>
		<g>
			<rect x="87.952" y="88.162" width="32.009" height="15.723"/>
			<rect x="392.037" y="88.162" width="32.009" height="15.723"/>
			<path d="M415.903,24.495V0H400.18v24.495H111.819V0H96.096v24.495H0.07v127.406h32.009V512h447.842V151.901h32.009V24.495
				H415.903z M464.198,496.277H47.8V183.909h416.397V496.277z M464.198,168.187H47.8v-16.285h416.397V168.187z M15.792,136.179
				V40.217h80.304v24.496h15.723V40.217h288.361v24.496h15.723V40.217h80.304v95.961H15.792z"/>
			<rect x="247.997" y="456.27" width="16.005" height="15.723"/>
			<rect x="215.986" y="456.27" width="16.005" height="15.723"/>
			<rect x="280.008" y="456.27" width="16.005" height="15.723"/>
			<polygon points="349.583,261.629 338.465,250.511 239.994,348.981 213.545,322.531 202.428,333.649 239.994,371.216 			"/>
		</g>
	</g>
</g>
<g>
</g>
<g>
</g>
<g>
</g>
<g>
</g>
<g>
</g>
<g>
</g>
<g>
</g>
<g>
</g>
<g>
</g>
<g>
</g>
<g>
</g>
<g>
</g>
<g>
</g>
<g>
</g>
<g>
</g>
</svg>
