<svg xmlns="http://www.w3.org/2000/svg" width="904" height="344.816" viewBox="0 0 904 344.816"><defs><style>.a{opacity:0.2;}.b{fill:#86ba90;}.c{fill:#f2a541;}.d{fill:#c94b62;}.e{fill:#16aedb;}.e,.h,.i,.j{fill-rule:evenodd;}.f,.h{fill:#064789;}.g,.j{fill:#2574a9;}.i{fill:#1966a5;}</style></defs><g transform="translate(-886.371 -2406.565)"><g transform="translate(654.371 2272.381)"><g class="a" transform="translate(792 134.367)"><rect class="b" width="77.386" height="11.18" rx="5.59" transform="translate(234.599 261.633) rotate(180)"/><rect class="b" width="86.469" height="11.18" rx="5.59" transform="translate(270.645 219.542) rotate(180)"/><rect class="b" width="87.537" height="11.18" rx="5.59" transform="translate(340.195 177.452) rotate(180)"/><rect class="b" width="48.838" height="11.18" rx="5.59" transform="translate(344 156.517) rotate(180)"/><rect class="b" width="66.312" height="11.18" rx="5.59" transform="translate(285.69 156.517) rotate(180)"/><rect class="b" width="66.312" height="11.18" rx="5.59" transform="translate(196.266 176.495) rotate(180)"/><rect class="b" width="72.17" height="10.87" rx="5.435" transform="translate(298.337 240.269) rotate(180)"/><rect class="b" width="65.511" height="10.87" rx="5.435" transform="translate(223.183 198.411) rotate(180)"/><rect class="b" width="52.878" height="11.198" rx="5.599" transform="translate(213.379 240.596) rotate(180)"/><rect class="b" width="70.874" height="11.198" rx="5.599" transform="translate(330.682 198.506) rotate(180)"/><rect class="b" width="64.215" height="11.198" rx="5.599" transform="translate(322.12 115.742) rotate(180)"/><rect class="b" width="59.615" height="11.198" rx="5.599" transform="translate(307.533 135.701) rotate(180)"/><rect class="b" width="103.454" height="11.198" rx="5.599" transform="translate(171.289 219.551) rotate(180)"/><rect class="b" width="33.88" height="11.189" rx="5.594" transform="translate(317.363 219.542) rotate(180)"/><rect class="b" width="29.123" height="11.189" rx="5.594" transform="translate(270.749 261.4) rotate(180)"/><rect class="b" width="17.099" height="11.189" rx="5.594" transform="translate(249.943 198.267) rotate(180)"/><rect class="b" width="17.099" height="11.189" rx="5.594" transform="translate(84.863 53.195) rotate(180)"/><rect class="b" width="67.122" height="11.189" rx="5.594" transform="translate(120.564 176.386) rotate(180)"/><rect class="b" width="35.322" height="11.189" rx="5.594" transform="translate(241.381 177.338) rotate(180)"/><rect class="b" width="77.386" height="11.18" rx="5.59" transform="translate(232.556 74.08) rotate(180)"/><rect class="b" width="77.386" height="11.18" rx="5.59" transform="translate(113.952 74.08) rotate(180)"/><rect class="b" width="77.386" height="11.18" rx="5.59" transform="translate(158.291 93.474) rotate(180)"/><rect class="b" width="52.878" height="11.198" rx="5.599" transform="translate(211.336 53.043) rotate(180)"/><rect class="b" width="52.878" height="11.198" rx="5.599" transform="translate(58.552 53.043) rotate(180)"/><rect class="b" width="53.614" height="11.198" rx="5.599" transform="translate(147.278 53.043) rotate(180)"/><rect class="b" width="54.348" height="11.189" rx="5.594" transform="translate(223.166 93.478) rotate(180)"/><rect class="b" width="21.052" height="11.189" rx="5.594" transform="translate(143.255 74.452) rotate(180)"/><rect class="b" width="21.052" height="11.189" rx="5.594" transform="translate(72.666 93.478) rotate(180)"/><rect class="b" width="64.49" height="11.189" rx="5.594" transform="translate(149.732 198.245) rotate(180)"/><rect class="b" width="52.878" height="11.198" rx="5.599" transform="translate(149.953 32.243) rotate(180)"/><rect class="b" width="53.614" height="11.198" rx="5.599" transform="translate(127.985 11.198) rotate(180)"/><rect class="b" width="34.999" height="11.189" rx="5.594" transform="translate(88.441 32.611) rotate(180)"/><rect class="b" width="86.469" height="11.18" rx="5.59" transform="translate(185.403 134.892) rotate(180)"/><rect class="b" width="72.17" height="10.87" rx="5.435" transform="translate(213.094 155.618) rotate(180)"/><rect class="b" width="65.511" height="10.87" rx="5.435" transform="translate(137.941 113.761) rotate(180)"/><rect class="b" width="52.878" height="11.198" rx="5.599" transform="translate(128.137 155.946) rotate(180)"/><rect class="b" width="70.874" height="11.198" rx="5.599" transform="translate(245.439 113.856) rotate(180)"/><rect class="b" width="52.878" height="11.198" rx="5.599" transform="translate(86.046 134.901) rotate(180)"/><rect class="b" width="33.88" height="11.189" rx="5.594" transform="translate(232.121 134.892) rotate(180)"/><rect class="b" width="17.099" height="11.189" rx="5.594" transform="translate(164.701 113.616) rotate(180)"/><rect class="b" width="64.49" height="11.189" rx="5.594" transform="translate(64.49 113.595) rotate(180)"/></g><g class="a" transform="translate(539 217.367)"><rect class="c" width="77.386" height="11.18" rx="5.59" transform="translate(157.213 250.452)"/><rect class="c" width="86.469" height="11.18" rx="5.59" transform="translate(184.177 208.362)"/><rect class="c" width="87.537" height="11.18" rx="5.59" transform="translate(252.658 166.272)"/><rect class="c" width="48.838" height="11.18" rx="5.59" transform="translate(295.162 145.337)"/><rect class="c" width="66.312" height="11.18" rx="5.59" transform="translate(219.378 145.337)"/><rect class="c" width="66.312" height="11.18" rx="5.59" transform="translate(129.954 165.314)"/><rect class="c" width="72.17" height="10.87" rx="5.435" transform="translate(226.167 229.399)"/><rect class="c" width="65.511" height="10.87" rx="5.435" transform="translate(157.672 187.54)"/><rect class="c" width="52.878" height="11.198" rx="5.599" transform="translate(160.501 229.398)"/><rect class="c" width="70.874" height="11.198" rx="5.599" transform="translate(259.808 187.308)"/><rect class="c" width="64.215" height="11.198" rx="5.599" transform="translate(257.905 104.544)"/><rect class="c" width="59.615" height="11.198" rx="5.599" transform="translate(247.917 124.503)"/><rect class="c" width="52.878" height="11.198" rx="5.599" transform="translate(118.411 208.353)"/><rect class="c" width="33.88" height="11.189" rx="5.594" transform="translate(283.484 208.353)"/><rect class="c" width="29.123" height="11.189" rx="5.594" transform="translate(241.626 250.211)"/><rect class="c" width="17.099" height="11.189" rx="5.594" transform="translate(232.844 187.078)"/><rect class="c" width="17.099" height="11.189" rx="5.594" transform="translate(67.764 42.006)"/><rect class="c" width="17.099" height="11.189" rx="5.594" transform="translate(103.465 165.197)"/><rect class="c" width="35.322" height="11.189" rx="5.594" transform="translate(206.059 166.149)"/><rect class="c" width="77.386" height="11.18" rx="5.59" transform="translate(155.17 62.899)"/><rect class="c" width="77.386" height="11.18" rx="5.59" transform="translate(36.566 62.899)"/><rect class="c" width="77.386" height="11.18" rx="5.59" transform="translate(80.905 82.293)"/><rect class="c" width="52.878" height="11.198" rx="5.599" transform="translate(158.458 41.845)"/><rect class="c" width="52.878" height="11.198" rx="5.599" transform="translate(5.674 41.845)"/><rect class="c" width="53.614" height="11.198" rx="5.599" transform="translate(93.664 41.845)"/><rect class="c" width="54.348" height="11.189" rx="5.594" transform="translate(168.818 82.289)"/><rect class="c" width="21.052" height="11.189" rx="5.594" transform="translate(122.203 63.263)"/><rect class="c" width="21.052" height="11.189" rx="5.594" transform="translate(51.614 82.289)"/><rect class="c" width="64.49" height="11.189" rx="5.594" transform="translate(85.242 187.056)"/><rect class="c" width="52.878" height="11.198" rx="5.599" transform="translate(97.075 21.045)"/><rect class="c" width="53.614" height="11.198" rx="5.599" transform="translate(74.371)"/><rect class="c" width="34.999" height="11.189" rx="5.594" transform="translate(53.442 21.422)"/><rect class="c" width="86.469" height="11.18" rx="5.59" transform="translate(98.934 123.712)"/><rect class="c" width="72.17" height="10.87" rx="5.435" transform="translate(140.925 144.748)"/><rect class="c" width="65.511" height="10.87" rx="5.435" transform="translate(72.43 102.89)"/><rect class="c" width="52.878" height="11.198" rx="5.599" transform="translate(75.259 144.748)"/><rect class="c" width="70.874" height="11.198" rx="5.599" transform="translate(174.565 102.658)"/><rect class="c" width="52.878" height="11.198" rx="5.599" transform="translate(33.169 123.703)"/><rect class="c" width="33.88" height="11.189" rx="5.594" transform="translate(198.241 123.703)"/><rect class="c" width="17.099" height="11.189" rx="5.594" transform="translate(147.601 102.427)"/><rect class="c" width="64.49" height="11.189" rx="5.594" transform="translate(0 102.406)"/></g><g class="a" transform="translate(232 134.184)"><rect class="d" width="77.386" height="11.18" rx="5.59" transform="translate(157.213 0)"/><rect class="d" width="86.469" height="11.18" rx="5.59" transform="translate(184.177 42.09)"/><rect class="d" width="87.537" height="11.18" rx="5.59" transform="translate(252.658 84.181)"/><rect class="d" width="48.838" height="11.18" rx="5.59" transform="translate(295.162 105.115)"/><rect class="d" width="66.312" height="11.18" rx="5.59" transform="translate(219.378 105.115)"/><rect class="d" width="66.312" height="11.18" rx="5.59" transform="translate(129.954 85.138)"/><rect class="d" width="72.17" height="10.87" rx="5.435" transform="translate(226.167 21.364)"/><rect class="d" width="65.511" height="10.87" rx="5.435" transform="translate(157.672 63.222)"/><rect class="d" width="52.878" height="11.198" rx="5.599" transform="translate(160.501 21.036)"/><rect class="d" width="70.874" height="11.198" rx="5.599" transform="translate(259.808 63.127)"/><rect class="d" width="64.215" height="11.198" rx="5.599" transform="translate(257.905 145.891)"/><rect class="d" width="59.615" height="11.198" rx="5.599" transform="translate(247.917 125.932)"/><rect class="d" width="52.878" height="11.198" rx="5.599" transform="translate(118.411 42.081)"/><rect class="d" width="33.88" height="11.189" rx="5.594" transform="translate(283.484 42.09)"/><rect class="d" width="29.123" height="11.189" rx="5.594" transform="translate(241.626 0.232)"/><rect class="d" width="17.099" height="11.189" rx="5.594" transform="translate(232.844 63.366)"/><rect class="d" width="17.099" height="11.189" rx="5.594" transform="translate(67.764 208.437)"/><rect class="d" width="17.099" height="11.189" rx="5.594" transform="translate(103.465 85.246)"/><rect class="d" width="35.322" height="11.189" rx="5.594" transform="translate(206.059 84.295)"/><rect class="d" width="77.386" height="11.18" rx="5.59" transform="translate(155.17 187.553)"/><rect class="d" width="77.386" height="11.18" rx="5.59" transform="translate(36.566 187.553)"/><rect class="d" width="77.386" height="11.18" rx="5.59" transform="translate(80.905 168.159)"/><rect class="d" width="52.878" height="11.198" rx="5.599" transform="translate(158.458 208.589)"/><rect class="d" width="52.878" height="11.198" rx="5.599" transform="translate(5.674 208.589)"/><rect class="d" width="53.614" height="11.198" rx="5.599" transform="translate(93.664 208.589)"/><rect class="d" width="54.348" height="11.189" rx="5.594" transform="translate(168.818 168.155)"/><rect class="d" width="21.052" height="11.189" rx="5.594" transform="translate(122.203 187.181)"/><rect class="d" width="21.052" height="11.189" rx="5.594" transform="translate(51.614 168.155)"/><rect class="d" width="64.49" height="11.189" rx="5.594" transform="translate(85.242 63.388)"/><rect class="d" width="52.878" height="11.198" rx="5.599" transform="translate(97.075 229.39)"/><rect class="d" width="53.614" height="11.198" rx="5.599" transform="translate(74.371 250.435)"/><rect class="d" width="34.999" height="11.189" rx="5.594" transform="translate(53.442 229.021)"/><rect class="d" width="86.469" height="11.18" rx="5.59" transform="translate(98.934 126.741)"/><rect class="d" width="72.17" height="10.87" rx="5.435" transform="translate(140.925 106.014)"/><rect class="d" width="65.511" height="10.87" rx="5.435" transform="translate(72.43 147.872)"/><rect class="d" width="52.878" height="11.198" rx="5.599" transform="translate(75.259 105.686)"/><rect class="d" width="70.874" height="11.198" rx="5.599" transform="translate(174.565 147.777)"/><rect class="d" width="52.878" height="11.198" rx="5.599" transform="translate(33.169 126.732)"/><rect class="d" width="33.88" height="11.189" rx="5.594" transform="translate(198.241 126.741)"/><rect class="d" width="17.099" height="11.189" rx="5.594" transform="translate(147.601 148.016)"/><rect class="d" width="64.49" height="11.189" rx="5.594" transform="translate(0 148.038)"/></g></g><path class="e" d="M1174.114,2638.974c-3.737,7.422-7.176,15.458-10.674,23.634-17.735,41.443-36.07,84.3-99.9,70.293l-30.877-9.989a5.2,5.2,0,1,0-3.2,9.887l31.589,10.2a119.307,119.307,0,0,0,25.694,3.032c20.3,0,37.1-6.514,50.91-19.656,16.521-15.72,26.084-38.067,35.332-59.677,3.8-8.89,7.531-17.6,11.6-25.363Z" transform="translate(0 -106.653)"/><g transform="translate(1134.513 2428.47)"><path class="f" d="M1246.087,2551.167v-24.494l80.642-96.817a4.074,4.074,0,0,1,3.466-1.386h16.637a4.388,4.388,0,0,1,4.391,4.39l.231,94.738h18.254a4.2,4.2,0,0,1,4.39,4.16v19.179a4.387,4.387,0,0,1-4.39,4.39h-18.254l.231,28.421a4.545,4.545,0,0,1-4.39,4.39h-24.724a4.545,4.545,0,0,1-4.39-4.39v-28.19h-67.7A4.387,4.387,0,0,1,1246.087,2551.167Zm73.017-24.262v-42.979l-36.74,42.979Z" transform="translate(-1246.087 -2428.47)"/><path class="f" d="M1546.777,2509.812c0-50.6,21.49-80.874,59.154-80.874s59.153,30.27,59.153,80.874-21.489,80.874-59.153,80.874S1546.777,2560.415,1546.777,2509.812Zm81.105,0c0-30.27-7.856-47.369-21.951-47.369s-21.952,17.1-21.952,47.369c0,30.5,7.856,47.369,21.952,47.369S1627.882,2540.313,1627.882,2509.812Z" transform="translate(-1398.433 -2428.707)"/><path class="f" d="M1819.367,2551.167v-24.494l80.643-96.817a4.072,4.072,0,0,1,3.466-1.386h16.637a4.387,4.387,0,0,1,4.39,4.39l.231,94.738h18.254a4.2,4.2,0,0,1,4.39,4.16v19.179a4.387,4.387,0,0,1-4.39,4.39h-18.254l.231,28.421a4.545,4.545,0,0,1-4.39,4.39h-24.725a4.545,4.545,0,0,1-4.39-4.39v-28.19h-67.7A4.387,4.387,0,0,1,1819.367,2551.167Zm73.018-24.262v-42.979l-36.74,42.979Z" transform="translate(-1536.541 -2428.47)"/></g><g transform="translate(1127.121 2428.47)"><path class="g" d="M1231.1,2551.167v-24.494l80.642-96.817a4.074,4.074,0,0,1,3.466-1.386h16.637a4.387,4.387,0,0,1,4.391,4.39l.231,94.738h18.254a4.2,4.2,0,0,1,4.391,4.16v19.179a4.388,4.388,0,0,1-4.391,4.39H1336.47l.231,28.421a4.545,4.545,0,0,1-4.39,4.39h-24.724a4.545,4.545,0,0,1-4.39-4.39v-28.19h-67.7A4.387,4.387,0,0,1,1231.1,2551.167Zm73.017-24.262v-42.979l-36.74,42.979Z" transform="translate(-1231.103 -2428.47)"/><path class="g" d="M1531.793,2509.812c0-50.6,21.49-80.874,59.154-80.874s59.153,30.27,59.153,80.874-21.489,80.874-59.153,80.874S1531.793,2560.415,1531.793,2509.812Zm81.105,0c0-30.27-7.856-47.369-21.951-47.369s-21.951,17.1-21.951,47.369c0,30.5,7.856,47.369,21.951,47.369S1612.9,2540.313,1612.9,2509.812Z" transform="translate(-1383.448 -2428.707)"/><path class="g" d="M1804.383,2551.167v-24.494l80.643-96.817a4.072,4.072,0,0,1,3.466-1.386h16.637a4.387,4.387,0,0,1,4.39,4.39l.231,94.738H1928a4.2,4.2,0,0,1,4.39,4.16v19.179a4.387,4.387,0,0,1-4.39,4.39H1909.75l.231,28.421a4.545,4.545,0,0,1-4.39,4.39h-24.725a4.545,4.545,0,0,1-4.39-4.39v-28.19h-67.7A4.387,4.387,0,0,1,1804.383,2551.167Zm73.018-24.262v-42.979l-36.74,42.979Z" transform="translate(-1521.557 -2428.47)"/></g><g transform="translate(1177.042 2494.948)"><g transform="translate(0)"><path class="e" d="M1344.354,2595.176c6.1-9.787,13.159-17.2,22.328-20.131a25.129,25.129,0,0,1,22.091,2.618c30.424,18.933,41.955,94.31,42.068,95.069l10.281-1.53c-.49-3.293-12.4-80.918-46.858-102.365-9.532-5.932-19.878-7.174-30.752-3.692-13.919,4.456-23.354,15.758-31.22,30.028Z" transform="translate(-1332.292 -2563.219)"/></g><path class="h" d="M1493.333,2859.349l-11.062-53.631a36.933,36.933,0,0,1,71.907-16.786l13.574,52.017Z" transform="translate(-1407.891 -2663.584)"/><path class="i" d="M1505.465,2940.5c1.188,4.935,19.023,4.872,39.835-.141s36.718-13.077,35.529-18.012-19.023-4.872-39.835.141S1504.276,2935.569,1505.465,2940.5Z" transform="translate(-1419.999 -2743.319)"/><path class="e" d="M1596.592,2931.368c-.3,1.666,2.678,3.594,6.65,4.307s7.433-.059,7.732-1.725-2.678-3.594-6.65-4.306S1596.891,2929.7,1596.592,2931.368Z" transform="translate(-1466.19 -2748.734)"/><path class="e" d="M1543.433,2947.669c-.3,1.666,2.678,3.594,6.65,4.307s7.433-.059,7.732-1.724-2.679-3.594-6.65-4.307S1543.732,2946,1543.433,2947.669Z" transform="translate(-1439.256 -2756.994)"/><path class="j" d="M1573.037,2777.595s16.046,5.835,21.152,22.611,9.482,38.293,9.482,38.293l-14.588.365Z" transform="translate(-1454.266 -2671.833)"/></g><g transform="translate(1353.039 2455.879)"><g transform="translate(105.126)"><path class="e" d="M2091.648,2504.3c-3.489,4.467-8.481-.042-8.481-.042-7-6.044-16.731-12.556-23.367-9.236-4.762,2.381-15.4,14.2-11.349,72.393,4.417,63.457-16.986,113.685-63.618,149.288-30.18,23.042-80.583,15.295-82.714,14.953l1.592-9.948c.635.1,48.331,7.354,75.008-13.013,43.769-33.418,63.849-80.717,59.681-140.582-3.333-47.893,2.192-74.749,16.892-82.1,9.314-4.66,20.909-1.084,34.461,10.624C2089.753,2496.63,2095.137,2499.83,2091.648,2504.3ZM1903.711,2721.7h0l-.793,4.975.8-4.974Z" transform="translate(-1902.119 -2484.027)"/></g><g transform="translate(0 234.734)"><path class="e" d="M1695.366,2960.022l31.491,9.081a4.959,4.959,0,1,1-2.749,9.53l-31.491-9.081a4.959,4.959,0,0,1,2.749-9.531Z" transform="translate(-1689.031 -2959.827)"/></g><g transform="translate(9.257 200.075)"><path class="e" d="M1714.13,2889.769l31.491,9.081a4.959,4.959,0,1,1-2.748,9.53l-31.491-9.081a4.959,4.959,0,0,1,2.748-9.53Z" transform="translate(-1707.796 -2889.573)"/></g><path class="h" d="M1724.653,2935.4l53.317,12.49a36.933,36.933,0,0,0,18.7-71.433l-51.636-14.959Z" transform="translate(-1707.079 -2675.276)"/><path class="j" d="M1755.509,2987.376l5.087-17.042,64.265,18.334a33.58,33.58,0,0,1-26.571,8.74C1781.747,2995.645,1755.509,2987.376,1755.509,2987.376Z" transform="translate(-1722.713 -2730.416)"/></g></g></svg>