<svg xmlns="http://www.w3.org/2000/svg" xmlns:xlink="http://www.w3.org/1999/xlink" width="12.97" height="17.83"   viewBox="0 0 278.81 456.933" transform="scale(-1,1)"><defs><style>.a{fill:none;clip-rule:evenodd;}.b{fill:#298995;}.b,.c,.d,.h{fill-rule:evenodd;}.c{fill:#63bdc8;}.d{fill:#02639b;}.e{opacity:0.2;}.f{clip-path:url(#a);}.g{fill:#fff;}.h{fill:#00a0d4;}</style><clipPath id="a"><path class="a" d="M-437.506,1554.632l165.987,111.847a56.413,56.413,0,0,1,24.888,46.782v44.2c0,45.308-50.715,72.129-88.164,46.626l-165.987-113.038a56.411,56.411,0,0,1-24.659-46.626v-43.009C-525.441,1556.231-474.976,1529.384-437.506,1554.632Z" transform="translate(525.441 -1544.907)"/></clipPath></defs><g transform="translate(0 0)"><path class="b" d="M-437.506,1554.632l165.987,111.847a56.413,56.413,0,0,1,24.888,46.782v44.2c0,45.308-50.715,72.129-88.164,46.626l-165.987-113.038a56.411,56.411,0,0,1-24.659-46.626v-43.009C-525.441,1556.231-474.976,1529.384-437.506,1554.632Z" transform="translate(525.441 -1357.035)"/><path class="c" d="M-437.506,817.429-271.52,705.582A56.412,56.412,0,0,0-246.631,658.8V614.6c0-45.308-50.715-72.129-88.164-46.626L-500.782,681.012a56.411,56.411,0,0,0-24.659,46.626V845.481a56.411,56.411,0,0,0,24.659,46.626l64.281,44.166s-35.976-32.977-35.976-68.953S-437.506,817.429-437.506,817.429Z" transform="translate(525.441 -558.093)"/><path class="d" d="M-437.506,1554.632l165.987,111.847a56.413,56.413,0,0,1,24.888,46.782v44.2c0,45.308-50.715,72.129-88.164,46.626l-165.987-113.038a56.411,56.411,0,0,1-24.659-46.626v-43.009C-525.441,1556.231-474.976,1529.384-437.506,1554.632Z" transform="translate(525.441 -1357.035)"/><g class="e" transform="translate(0 187.872)"><g class="f"><rect class="g" width="84.671" height="12.233" rx="6.116" transform="translate(71.649 -6.547)"/><rect class="g" width="94.608" height="12.233" rx="6.116" transform="translate(32.209 39.505)"/><rect class="g" width="95.777" height="12.233" rx="6.116" transform="translate(-43.887 85.558)"/><rect class="g" width="53.435" height="12.233" rx="6.116" transform="translate(-48.05 108.463)"/><rect class="g" width="72.554" height="12.233" rx="6.116" transform="translate(15.749 108.463)"/><rect class="g" width="72.554" height="12.233" rx="6.116" transform="translate(113.591 86.605)"/><rect class="g" width="78.963" height="11.893" rx="5.947" transform="translate(1.911 16.828)"/><rect class="g" width="71.677" height="11.893" rx="5.947" transform="translate(84.14 62.626)"/><rect class="g" width="57.856" height="12.252" rx="6.126" transform="translate(94.866 16.469)"/><rect class="g" width="77.545" height="12.252" rx="6.126" transform="translate(-33.478 62.522)"/><rect class="g" width="70.259" height="12.252" rx="6.126" transform="translate(-24.111 153.077)"/><rect class="g" width="65.227" height="12.252" rx="6.126" transform="translate(-8.15 131.239)"/><rect class="g" width="57.856" height="12.252" rx="6.126" transform="translate(140.919 39.496)"/><rect class="g" width="37.069" height="12.242" rx="6.121" transform="translate(-18.906 39.505)"/><rect class="g" width="31.864" height="12.242" rx="6.121" transform="translate(32.096 -6.293)"/><rect class="g" width="18.709" height="12.242" rx="6.121" transform="translate(54.861 62.784)"/><rect class="g" width="18.709" height="12.242" rx="6.121" transform="translate(235.48 221.511)"/><rect class="g" width="18.709" height="12.242" rx="6.121" transform="translate(196.418 86.723)"/><rect class="g" width="38.647" height="12.242" rx="6.121" transform="translate(64.228 85.683)"/><rect class="g" width="84.671" height="12.233" rx="6.116" transform="translate(73.884 198.661)"/><rect class="g" width="84.671" height="12.233" rx="6.116" transform="translate(203.653 198.661)"/><rect class="g" width="84.671" height="12.233" rx="6.116" transform="translate(155.141 177.441)"/><rect class="g" width="57.856" height="12.252" rx="6.126" transform="translate(97.102 221.678)"/><rect class="g" width="57.856" height="12.252" rx="6.126" transform="translate(264.268 221.678)"/><rect class="g" width="58.661" height="12.252" rx="6.126" transform="translate(167.19 221.678)"/><rect class="g" width="59.464" height="12.242" rx="6.121" transform="translate(84.158 177.436)"/><rect class="g" width="23.034" height="12.242" rx="6.121" transform="translate(171.591 198.254)"/><rect class="g" width="23.034" height="12.242" rx="6.121" transform="translate(248.826 177.436)"/><rect class="g" width="70.561" height="12.242" rx="6.121" transform="translate(164.504 62.807)"/><rect class="g" width="57.856" height="12.252" rx="6.126" transform="translate(164.263 244.436)"/><rect class="g" width="58.661" height="12.252" rx="6.126" transform="translate(188.299 267.462)"/><rect class="g" width="38.294" height="12.242" rx="6.121" transform="translate(231.565 244.033)"/><rect class="g" width="94.608" height="12.233" rx="6.116" transform="translate(125.476 132.124)"/><rect class="g" width="78.963" height="11.893" rx="5.947" transform="translate(95.178 109.446)"/><rect class="g" width="71.677" height="11.893" rx="5.947" transform="translate(177.406 155.245)"/><rect class="g" width="57.856" height="12.252" rx="6.126" transform="translate(188.133 109.088)"/><rect class="g" width="77.545" height="12.252" rx="6.126" transform="translate(59.788 155.14)"/><rect class="g" width="57.856" height="12.252" rx="6.126" transform="translate(234.185 132.114)"/><rect class="g" width="37.069" height="12.242" rx="6.121" transform="translate(74.36 132.124)"/><rect class="g" width="18.709" height="12.242" rx="6.121" transform="translate(148.127 155.402)"/><rect class="g" width="70.561" height="12.242" rx="6.121" transform="translate(257.771 155.426)"/></g></g><path class="h" d="M-437.506,817.429-271.52,705.582A56.412,56.412,0,0,0-246.631,658.8V614.6c0-45.308-50.715-72.129-88.164-46.626L-500.782,681.012a56.411,56.411,0,0,0-24.659,46.626V845.481a56.411,56.411,0,0,0,24.659,46.626l64.281,44.166s-35.976-32.977-35.976-68.953S-437.506,817.429-437.506,817.429Z" transform="translate(525.441 -558.093)"/></g></svg>