<?xml version="1.0" encoding="UTF-8"?>
<svg width="206px" height="313px" viewBox="0 0 206 313" version="1.1" xmlns="http://www.w3.org/2000/svg" xmlns:xlink="http://www.w3.org/1999/xlink">
    <!-- Generator: Sketch 55.2 (78181) - https://sketchapp.com -->
    <title>Desktop</title>
    <desc>Created with Sketch.</desc>
    <g id="Desktop" stroke="none" stroke-width="1" fill="none" fill-rule="evenodd" opacity="0.35" stroke-linecap="round" stroke-linejoin="round">
        <path d="M96.125,7 L146.875,7" id="Path" stroke="#86BA90" stroke-width="13.38"></path>
        <path d="M70.9375,32 L100.3125,32" id="Path" stroke="#86BA90" stroke-width="13.38"></path>
        <path d="M124.125,32 L172.5,32" id="Path" stroke="#86BA90" stroke-width="13.38"></path>
        <path d="M16.125,57 L66.875,57" id="Path" stroke="#86BA90" stroke-width="13.38"></path>
        <path d="M89.125,57 L96.125,57" id="Path" stroke="#86BA90" stroke-width="13.38"></path>
        <path d="M119.125,57 L169.5,57" id="Path" stroke="#86BA90" stroke-width="13.38"></path>
        <path d="M196.125,57 L246.875,57" id="Path" stroke="#86BA90" stroke-width="13.38"></path>
        <path d="M52.125,82 L130.5,82" id="Path" stroke="#86BA90" stroke-width="13.38"></path>
        <path d="M153.125,82 L164.5,82" id="Path" stroke="#86BA90" stroke-width="13.38"></path>
        <path d="M192.125,82 L242.875,82" id="Path" stroke="#86BA90" stroke-width="13.38"></path>
        <path d="M70.125,105 L81.5,105" id="Path" stroke="#86BA90" stroke-width="13.38"></path>
        <path d="M105.125,105 L182.5,105" id="Path" stroke="#86BA90" stroke-width="13.38"></path>
        <path d="M206.125,105 L256.875,105" id="Path" stroke="#86BA90" stroke-width="13.38"></path>
        <path d="M9.15625,129 L70.96875,129" id="Path" stroke="#86BA90" stroke-width="13.38"></path>
        <path d="M183.125,129 L192.125,129" id="Path" stroke="#86BA90" stroke-width="13.38"></path>
        <path d="M48.125,154 L96.125,154" id="Path" stroke="#86BA90" stroke-width="13.38"></path>
        <path d="M126.125,154 L206.125,154" id="Path" stroke="#86BA90" stroke-width="13.38"></path>
        <path d="M98.125,179 L146.875,179" id="Path" stroke="#86BA90" stroke-width="13.38"></path>
        <path d="M176.125,179 L226.875,179" id="Path" stroke="#86BA90" stroke-width="13.38"></path>
        <path d="M131.125,203 L138.5,203" id="Path" stroke="#86BA90" stroke-width="13.38"></path>
        <path d="M162.125,203 L212.875,203" id="Path" stroke="#86BA90" stroke-width="13.38"></path>
        <path d="M110.125,229 L172.5,229" id="Path" stroke="#86BA90" stroke-width="13.38"></path>
        <path d="M196.125,229 L246.875,229" id="Path" stroke="#86BA90" stroke-width="13.38"></path>
        <path d="M148.125,255 L198.875,255" id="Path" stroke="#86BA90" stroke-width="13.38"></path>
        <path d="M94.09375,129 L158.78125,129" id="Path" stroke="#86BA90" stroke-width="13.38"></path>
        <path d="M199.125,279 L249.875,279" id="Path" stroke="#86BA90" stroke-width="13.38"></path>
        <path d="M194.125,303 L244.875,303" id="Path" stroke="#86BA90" stroke-width="13.38"></path>
    </g>
</svg>