<?xml version="1.0" encoding="iso-8859-1"?>
<!-- Generator: Adobe Illustrator 19.0.0, SVG Export Plug-In . SVG Version: 6.00 Build 0)  -->
<svg version="1.1" id="Capa_1" xmlns="http://www.w3.org/2000/svg" xmlns:xlink="http://www.w3.org/1999/xlink" x="0px" y="0px"
	 viewBox="0 0 489.9 489.9" style="enable-background:new 0 0 489.9 489.9;" xml:space="preserve">
<g>
	<g>
		<g>
			<path d="M374.347,0c-47.4,0-85.9,38.5-85.9,85.9v314.6c0,38.9-31.5,70.8-70.8,70.8s-70.4-31.9-70.4-70.8v-66.1V334
				c54.8-4.7,97.6-50.9,97.6-106.9v-62.2h-214.3v62.2c0,56,43.2,101.9,97.6,106.9v0.4v66.1c0,49.4,40.1,89.4,89.4,89.4
				s89.4-40.1,89.4-89.4V85.9c0-36.9,29.9-66.9,66.9-66.9s66.9,29.9,66.9,66.9v134.9c0,5.1,4.3,9.3,9.3,9.3c5.1,0,9.3-4.3,9.3-9.3
				V85.9C459.947,38.5,421.447,0,374.347,0z M112.647,244.6c0-14,11.3-24.9,24.9-24.9c14,0,24.9,11.3,24.9,24.9
				c0,14-11.3,24.9-24.9,24.9C123.947,269.9,112.647,258.6,112.647,244.6z"/>
			<path d="M244.847,145.8v-29.2h-34.6V14c0-6.6-5.4-12.1-12.1-12.1c-6.6,0-12.1,5.4-12.1,12.1v102.7h-97.1V14
				c0-6.6-5.4-12.1-12.1-12.1s-12.1,5.5-12.1,12.1v102.7h-34.2v29.2h214.3V145.8z"/>
		</g>
	</g>
</g>
<g>
</g>
<g>
</g>
<g>
</g>
<g>
</g>
<g>
</g>
<g>
</g>
<g>
</g>
<g>
</g>
<g>
</g>
<g>
</g>
<g>
</g>
<g>
</g>
<g>
</g>
<g>
</g>
<g>
</g>
</svg>
