<svg id="date_range_black_24dp" xmlns="http://www.w3.org/2000/svg" width="16" height="16" viewBox="0 0 16 16">
  <path id="Path_159" data-name="Path 159" d="M0,0H16V16H0Z" fill="none"/>
  <path id="Path_160" data-name="Path 160" d="M5.667,8H7V9.333H5.667ZM15,4.667V14a1.337,1.337,0,0,1-1.333,1.333H4.333A1.333,1.333,0,0,1,3,14l.007-9.333A1.327,1.327,0,0,1,4.333,3.333H5V2H6.333V3.333h5.333V2H13V3.333h.667A1.337,1.337,0,0,1,15,4.667ZM4.333,6h9.333V4.667H4.333Zm9.333,8V7.333H4.333V14ZM11,9.333h1.333V8H11Zm-2.667,0H9.667V8H8.333Z" transform="translate(-1 -0.667)" fill="#16aedb"/>
</svg>
