<svg id="date_range_black_24dp" xmlns="http://www.w3.org/2000/svg" width="20" height="20" viewBox="0 0 20 20">
  <path id="Path_159" data-name="Path 159" d="M0,0H20V20H0Z" fill="none"/>
  <path id="Path_160" data-name="Path 160" d="M6.333,9.5H8v1.667H6.333ZM18,5.333V17a1.672,1.672,0,0,1-1.667,1.667H4.667A1.666,1.666,0,0,1,3,17L3.008,5.333A1.659,1.659,0,0,1,4.667,3.667H5.5V2H7.167V3.667h6.667V2H15.5V3.667h.833A1.672,1.672,0,0,1,18,5.333ZM4.667,7H16.333V5.333H4.667ZM16.333,17V8.667H4.667V17ZM13,11.167h1.667V9.5H13Zm-3.333,0h1.667V9.5H9.667Z" transform="translate(-0.5 -0.333)" fill="#16aedb"/>
</svg>
