<svg xmlns="http://www.w3.org/2000/svg" width="48.833" height="49.894" viewBox="0 0 48.833 49.894">
  <g id="Google__G__Logo" transform="translate(26.754 -39.239)">
    <path id="Path_165" data-name="Path 165" d="M9.133,53.958a28.9,28.9,0,0,0-.395-4.719H-14.754v9.376H-1.3a11.581,11.581,0,0,1-4.989,7.442v6.237H1.732C6.43,67.949,9.133,61.546,9.133,53.958Z" transform="translate(12.947 10.789)" fill="#4285f4"/>
    <path id="Path_166" data-name="Path 166" d="M-3.2,73.715a23.763,23.763,0,0,0,16.486-6.05L5.262,61.429A15.049,15.049,0,0,1-3.2,63.84,14.9,14.9,0,0,1-17.19,53.529h-8.274v6.424A24.91,24.91,0,0,0-3.2,73.715Z" transform="translate(1.392 15.418)" fill="#34a853"/>
    <path id="Path_167" data-name="Path 167" d="M-15.8,61.8a14.476,14.476,0,0,1-.79-4.761,15.04,15.04,0,0,1,.79-4.761V45.859h-8.274a24.658,24.658,0,0,0-2.682,11.184,24.657,24.657,0,0,0,2.682,11.185Z" transform="translate(0 7.142)" fill="#fbbc05"/>
    <path id="Path_168" data-name="Path 168" d="M-3.2,49.114a13.535,13.535,0,0,1,9.563,3.742l7.11-7.11A23.851,23.851,0,0,0-3.2,39.239,24.91,24.91,0,0,0-25.464,53l8.274,6.424A14.9,14.9,0,0,1-3.2,49.114Z" transform="translate(1.392 0)" fill="#ea4335"/>
  </g>
</svg>
