<svg id="Group_147" data-name="Group 147" xmlns="http://www.w3.org/2000/svg" width="12.968" height="21.549" viewBox="0 0 12.968 21.549">
  <path id="Path_37" data-name="Path 37" d="M977.659,165.23l-7.72-5.275a2.671,2.671,0,0,1-1.158-2.206v-2.084a2.622,2.622,0,0,1,4.1-2.2L980.6,158.8a2.671,2.671,0,0,1,1.147,2.2v2.028A2.623,2.623,0,0,1,977.659,165.23Z" transform="translate(-968.781 -153)" fill="#3599a5"/>
  <path id="Path_38" data-name="Path 38" d="M977.659,250.124l-7.72,5.275a2.671,2.671,0,0,0-1.158,2.206v2.084a2.622,2.622,0,0,0,4.1,2.2l7.721-5.331a2.671,2.671,0,0,0,1.147-2.2V248.8a2.671,2.671,0,0,0-1.147-2.2l-2.99-2.083a5.369,5.369,0,0,1,1.673,3.252A2.681,2.681,0,0,1,977.659,250.124Z" transform="translate(-968.781 -240.805)" fill="#6fcdd6"/>
  <path id="Path_39" data-name="Path 39" d="M977.659,165.23l-7.72-5.275a2.671,2.671,0,0,1-1.158-2.206v-2.084a2.622,2.622,0,0,1,4.1-2.2L980.6,158.8a2.671,2.671,0,0,1,1.147,2.2v2.028A2.623,2.623,0,0,1,977.659,165.23Z" transform="translate(-968.781 -153)" fill="#2574a9"/>
  <path id="Path_40" data-name="Path 40" d="M977.659,250.124l-7.72,5.275a2.671,2.671,0,0,0-1.158,2.206v2.084a2.622,2.622,0,0,0,4.1,2.2l7.721-5.331a2.671,2.671,0,0,0,1.147-2.2V248.8a2.671,2.671,0,0,0-1.147-2.2l-2.99-2.083a5.369,5.369,0,0,1,1.673,3.252A2.681,2.681,0,0,1,977.659,250.124Z" transform="translate(-968.781 -240.805)" fill="#16aedb"/>
</svg>
