<svg id="LINKEDIN_ICON" data-name="LINKEDIN ICON" xmlns="http://www.w3.org/2000/svg" width="24" height="24" viewBox="0 0 24 24">
  <rect id="Rectangle_6" data-name="Rectangle 6" width="24" height="24" rx="4" fill="#16aedb"/>
  <g id="In_Symbol" transform="translate(5.533 5.578)">
    <path id="Path_77" data-name="Path 77" d="M7.58,11.7h2.673v8.6H7.58ZM8.918,7.43A1.55,1.55,0,1,1,7.37,8.982,1.55,1.55,0,0,1,8.918,7.43" transform="translate(-7.37 -7.43)" fill="#fff"/>
    <path id="Path_78" data-name="Path 78" d="M21.04,19.814H23.6v1.175h.037A2.8,2.8,0,0,1,26.169,19.6c2.706,0,3.207,1.782,3.207,4.094v4.715H26.7V24.231c0-1-.017-2.279-1.388-2.279-1.391,0-1.6,1.088-1.6,2.209v4.254H21.04Z" transform="translate(-16.479 -15.539)" fill="#fff"/>
  </g>
</svg>
