<svg xmlns="http://www.w3.org/2000/svg" width="10.855" height="15.446" viewBox="0 0 10.855 15.446">
  <g id="noun_Pound_1056201" transform="translate(-61.519 -18.281)">
    <g id="Group_308" data-name="Group 308" transform="translate(61.519 18.281)">
      <path id="Path_169" data-name="Path 169" d="M27.749,33.727H38.555V31.044H31.237a4.012,4.012,0,0,0,.976-1.561,7.15,7.15,0,0,0,.244-2.244h4.025V24.775h-3.83V22.262a2.022,2.022,0,0,1,.781-1.025,2.079,2.079,0,0,1,1.317-.268,6.393,6.393,0,0,1,2.22.634c-.024-.024.805-1.781.878-2.22a7.175,7.175,0,0,0-4.854-1,4.041,4.041,0,0,0-1.83.756,4.43,4.43,0,0,0-1.586,3.025v2.61H27.7v2.366h1.83c-.073.659-.146,1.317-.244,1.976-.073.2-.2.439-.342.732a3.059,3.059,0,0,1-.39.585,2.252,2.252,0,0,1-.829.61v2.683Z" transform="translate(-27.7 -18.281)" fill="#16aedb"/>
    </g>
  </g>
</svg>
