<svg id="place_black_24dp" xmlns="http://www.w3.org/2000/svg" width="16" height="16" viewBox="0 0 16 16">
  <path id="Path_157" data-name="Path 157" d="M0,0H16V16H0Z" fill="none"/>
  <path id="Path_158" data-name="Path 158" d="M9.333,8.667a1.333,1.333,0,1,1,1.333-1.333A1.337,1.337,0,0,1,9.333,8.667Zm4-1.2a4,4,0,1,0-8,0c0,1.56,1.3,3.627,4,6.093C12.033,11.093,13.333,9.027,13.333,7.467ZM9.333,2a5.3,5.3,0,0,1,5.333,5.467q0,3.32-5.333,7.867Q4,10.783,4,7.467A5.3,5.3,0,0,1,9.333,2Z" transform="translate(-1.333 -0.667)" fill="#16aedb"/>
</svg>
