<svg id="place_black_24dp" xmlns="http://www.w3.org/2000/svg" width="20" height="20" viewBox="0 0 20 20">
  <path id="Path_157" data-name="Path 157" d="M0,0H20V20H0Z" fill="none"/>
  <path id="Path_158" data-name="Path 158" d="M10.667,10.333a1.667,1.667,0,1,1,1.667-1.667A1.672,1.672,0,0,1,10.667,10.333Zm5-1.5a5,5,0,1,0-10,0c0,1.95,1.625,4.533,5,7.617C14.042,13.367,15.667,10.783,15.667,8.833ZM10.667,2a6.629,6.629,0,0,1,6.667,6.833q0,4.15-6.667,9.833Q4,12.979,4,8.833A6.629,6.629,0,0,1,10.667,2Z" transform="translate(-0.667 -0.333)" fill="#16aedb"/>
</svg>
