<svg id="TCG_Icon" data-name="TCG Icon" xmlns="http://www.w3.org/2000/svg" width="39.159" height="28.86" viewBox="0 0 39.159 28.86">
  <g id="Group_5" data-name="Group 5">
    <path id="Path_33" data-name="Path 33" d="M590.411,371.94,601.079,379a3.547,3.547,0,0,1,1.6,2.955v2.792a3.629,3.629,0,0,1-5.667,2.945l-10.668-7.139a3.546,3.546,0,0,1-1.585-2.945v-2.716A3.629,3.629,0,0,1,590.411,371.94Z" transform="translate(-584.759 -359.459)" fill="#3599a5"/>
    <path id="Path_34" data-name="Path 34" d="M590.411,169.38l10.668-7.064a3.547,3.547,0,0,0,1.6-2.955v-2.792a3.629,3.629,0,0,0-5.667-2.945l-10.668,7.139a3.546,3.546,0,0,0-1.585,2.945v7.443a3.546,3.546,0,0,0,1.585,2.945l4.131,2.789s-2.312-2.083-2.312-4.355A3.613,3.613,0,0,1,590.411,169.38Z" transform="translate(-584.759 -153)" fill="#6fcdd6"/>
    <path id="Path_35" data-name="Path 35" d="M590.411,371.94,601.079,379a3.547,3.547,0,0,1,1.6,2.955v2.792a3.629,3.629,0,0,1-5.667,2.945l-10.668-7.139a3.546,3.546,0,0,1-1.585-2.945v-2.716A3.629,3.629,0,0,1,590.411,371.94Z" transform="translate(-584.759 -359.459)" fill="#dedede"/>
    <path id="Path_36" data-name="Path 36" d="M590.411,169.38l10.668-7.064a3.547,3.547,0,0,0,1.6-2.955v-2.792a3.629,3.629,0,0,0-5.667-2.945l-10.668,7.139a3.546,3.546,0,0,0-1.585,2.945v7.443a3.546,3.546,0,0,0,1.585,2.945l4.131,2.789s-2.312-2.083-2.312-4.355A3.613,3.613,0,0,1,590.411,169.38Z" transform="translate(-584.759 -153)" fill="#fff"/>
  </g>
  <g id="Group_6" data-name="Group 6" transform="translate(21.239)">
    <path id="Path_37" data-name="Path 37" d="M981.049,169.38l-10.668-7.064a3.547,3.547,0,0,1-1.6-2.955v-2.792a3.629,3.629,0,0,1,5.666-2.945l10.668,7.139a3.546,3.546,0,0,1,1.585,2.945v2.716A3.629,3.629,0,0,1,981.049,169.38Z" transform="translate(-968.781 -153)" fill="#3599a5"/>
    <path id="Path_38" data-name="Path 38" d="M981.049,252.025l-10.668,7.064a3.547,3.547,0,0,0-1.6,2.955v2.792a3.629,3.629,0,0,0,5.666,2.945l10.668-7.139A3.546,3.546,0,0,0,986.7,257.7v-7.443a3.546,3.546,0,0,0-1.585-2.945l-4.131-2.79s2.312,2.083,2.312,4.355A3.613,3.613,0,0,1,981.049,252.025Z" transform="translate(-968.781 -239.545)" fill="#6fcdd6"/>
    <path id="Path_39" data-name="Path 39" d="M981.049,169.38l-10.668-7.064a3.547,3.547,0,0,1-1.6-2.955v-2.792a3.629,3.629,0,0,1,5.666-2.945l10.668,7.139a3.546,3.546,0,0,1,1.585,2.945v2.716A3.629,3.629,0,0,1,981.049,169.38Z" transform="translate(-968.781 -153)" fill="#dedede"/>
    <path id="Path_40" data-name="Path 40" d="M981.049,252.025l-10.668,7.064a3.547,3.547,0,0,0-1.6,2.955v2.792a3.629,3.629,0,0,0,5.666,2.945l10.668-7.139A3.546,3.546,0,0,0,986.7,257.7v-7.443a3.546,3.546,0,0,0-1.585-2.945l-4.131-2.79s2.312,2.083,2.312,4.355A3.613,3.613,0,0,1,981.049,252.025Z" transform="translate(-968.781 -239.545)" fill="#fff"/>
  </g>
</svg>
