<svg xmlns="http://www.w3.org/2000/svg" width="24" height="24" viewBox="0 0 24 24">
  <g id="TWITTER_ICON" data-name="TWITTER ICON" transform="translate(0.032)">
    <rect id="Rectangle_7" data-name="Rectangle 7" width="24" height="24" rx="4" transform="translate(-0.032)" fill="#16aedb"/>
    <g id="Twitter_Logo_WhiteOnImage" transform="translate(5.195 6.697)">
      <g id="Logo__x2014__FIXED" transform="translate(0 0)">
        <g id="Group_11" data-name="Group 11">
          <path id="Path_79" data-name="Path 79" d="M79.187,108.98a7.548,7.548,0,0,0,7.6-7.6c0-.115,0-.229-.005-.344a5.44,5.44,0,0,0,1.333-1.385,5.412,5.412,0,0,1-1.536.422A2.686,2.686,0,0,0,87.753,98.6a5.311,5.311,0,0,1-1.7.646,2.671,2.671,0,0,0-4.619,1.828,2.951,2.951,0,0,0,.068.609A7.582,7.582,0,0,1,76,98.889a2.681,2.681,0,0,0,.828,3.567,2.7,2.7,0,0,1-1.208-.333v.036a2.676,2.676,0,0,0,2.14,2.619,2.686,2.686,0,0,1-1.2.047,2.67,2.67,0,0,0,2.494,1.854,5.355,5.355,0,0,1-3.317,1.146,5.14,5.14,0,0,1-.635-.036,7.6,7.6,0,0,0,4.087,1.192" transform="translate(-75.1 -98.4)" fill="#fff"/>
        </g>
      </g>
    </g>
  </g>
</svg>
