<svg width="135" height="44" viewBox="0 0 135 44" fill="none" xmlns="http://www.w3.org/2000/svg">
<g clip-path="url(#clip0_714_1367)">
<path d="M0.0527344 17.1799L1.04797 15.7656C2.48845 16.8394 4.08607 17.468 5.6575 17.468C7.25512 17.468 8.4075 16.6561 8.4075 15.3466V15.2942C8.4075 13.9585 6.83607 13.4347 5.08131 12.9632C2.98607 12.3608 0.681306 11.6537 0.681306 9.1918V9.13942C0.681306 6.86084 2.59321 5.3418 5.21226 5.3418C6.83607 5.3418 8.64321 5.91799 10.0051 6.80846L9.11464 8.30132C7.88369 7.51561 6.4694 7.01799 5.18607 7.01799C3.61464 7.01799 2.6194 7.82989 2.6194 8.95608V9.00846C2.6194 10.2656 4.2694 10.7632 6.05035 11.287C8.1194 11.9156 10.3194 12.7013 10.3194 15.0847V15.137C10.3194 17.6513 8.22416 19.118 5.57892 19.118C3.66702 19.1442 1.54559 18.3847 0.0527344 17.1799Z" fill="#52266F"/>
<path d="M13.252 0.078125H15.2424V13.0424L22.4186 5.55193H24.8805L19.302 11.2876L25.0639 18.8829H22.7067L17.94 12.6757L15.2424 15.3996V18.8829H13.252V0.078125Z" fill="#52266F"/>
<path d="M27.2383 0.470703H29.5169V2.6707H27.2383V0.470703ZM27.3692 5.57785H29.3597V18.8826H27.3692V5.57785Z" fill="#52266F"/>
<path d="M33.4199 0.078125H35.4104V18.8829H33.4199V0.078125Z" fill="#52266F"/>
<path d="M39.4688 0.078125H41.4592V18.8829H39.4688V0.078125Z" fill="#52266F"/>
<path d="M44.2363 17.1799L45.2316 15.7656C46.672 16.8394 48.2697 17.468 49.8411 17.468C51.4387 17.468 52.5911 16.6561 52.5911 15.3466V15.2942C52.5911 13.9585 51.0197 13.4347 49.2649 12.9632C47.1697 12.3608 44.8649 11.6537 44.8649 9.1918V9.13942C44.8649 6.86084 46.7768 5.3418 49.3959 5.3418C51.0197 5.3418 52.8268 5.91799 54.1887 6.80846L53.2982 8.30132C52.0673 7.51561 50.653 7.01799 49.3697 7.01799C47.7982 7.01799 46.803 7.82989 46.803 8.95608V9.00846C46.803 10.2656 48.453 10.7632 50.2339 11.287C52.303 11.9156 54.503 12.7013 54.503 15.0847V15.137C54.503 17.6513 52.4078 19.118 49.7625 19.118C47.8506 19.1442 45.7292 18.3847 44.2363 17.1799Z" fill="#52266F"/>
<path d="M95.4386 28.9135L98.6339 23.623H88.2624L85.041 28.9135H95.4386Z" fill="#0B7A01"/>
<path d="M91.1168 36.0635L94.443 30.5373H82.1858L86.3763 23.623H79.9073L73.543 33.2873L80.143 43.4492H80.1692H86.6382L82.1858 36.0635H91.1168Z" fill="#52266F"/>
<path d="M85.041 37.6875L87.5815 41.878L90.122 37.6875H85.041Z" fill="#0B7A01"/>
<path d="M17.2329 39.8884C16.3948 38.736 16.2115 38.1075 15.8972 37.0598C14.6138 38.5265 13.0948 39.286 11.3138 39.286C10.24 39.286 9.27098 39.0503 8.43289 38.5789C7.59479 38.1075 6.94003 37.4265 6.4686 36.5622C5.99717 35.6979 5.76146 34.7027 5.76146 33.5765C5.76146 32.4503 5.99717 31.4551 6.4686 30.5908C6.94003 29.7265 7.59479 29.0456 8.43289 28.5741C9.27098 28.1027 10.24 27.867 11.3138 27.867C13.0948 27.867 14.64 28.6003 15.8972 30.0932C16.1853 29.0456 16.6305 28.0503 17.1805 27.1075C17.4948 26.5836 17.8615 26.086 18.2543 25.6146C17.5734 25.0384 16.8138 24.5408 15.9496 24.1741C14.4829 23.5194 12.8329 23.2051 11.0257 23.2051C8.93051 23.2051 7.07098 23.6503 5.39479 24.5408C3.74479 25.4313 2.43527 26.6622 1.49241 28.2337C0.549554 29.8051 0.078125 31.586 0.078125 33.5765C0.078125 35.567 0.549554 37.3479 1.49241 38.9194C2.43527 40.4908 3.74479 41.7217 5.39479 42.6122C7.04479 43.5027 8.93051 43.9479 11.0257 43.9479C12.8591 43.9479 14.4829 43.6336 15.9496 42.9789C16.8138 42.6122 17.9138 41.9575 18.5948 41.3813C18.1496 40.936 17.6257 40.4384 17.2329 39.8884Z" fill="#0B7A01"/>
<path d="M68.5666 23.625V34.2321L59.7666 23.625H55.1309H54.2404V34.2321L45.4404 23.625H40.8047V43.556H46.3309V32.9226L55.1309 43.556H59.7666H60.6571V32.9226L69.4571 43.556H74.0928V37.3226L71.4737 33.2893L74.0928 29.3607V23.625H68.5666Z" fill="#0B7A01"/>
<path d="M101.383 42.6122C99.7331 41.7217 98.4236 40.4908 97.4807 38.9194C96.5378 37.3479 96.0664 35.567 96.0664 33.5765C96.0664 31.586 96.5378 29.8051 97.4807 28.2337C98.4236 26.6622 99.7331 25.4313 101.383 24.5408C103.033 23.6503 104.919 23.2051 107.014 23.2051C108.847 23.2051 110.471 23.5194 111.938 24.1741C113.405 24.8289 114.609 25.7456 115.578 26.9765L111.99 30.2241C110.707 28.6789 109.135 27.8932 107.302 27.8932C106.228 27.8932 105.259 28.1289 104.421 28.6003C103.583 29.0717 102.928 29.7527 102.457 30.617C101.985 31.4813 101.75 32.4765 101.75 33.6027C101.75 34.7289 101.985 35.7241 102.457 36.5884C102.928 37.4527 103.583 38.1336 104.421 38.6051C105.259 39.0765 106.228 39.3122 107.302 39.3122C109.135 39.3122 110.707 38.5265 111.99 36.9813L115.578 40.2289C114.609 41.4337 113.405 42.3765 111.938 43.0313C110.471 43.686 108.821 44.0003 107.014 44.0003C104.919 43.9479 103.059 43.5027 101.383 42.6122Z" fill="#0B7A01"/>
<path d="M122.283 28.0762H116.154V23.5977H134.016V28.0762H127.914V43.5286H122.283V28.0762Z" fill="#0B7A01"/>
<path d="M22.8115 42.2716C21.1877 41.4073 19.9044 40.2025 18.9877 38.6835C18.071 37.1644 17.5996 35.4358 17.5996 33.5239C17.5996 31.612 18.071 29.8835 18.9877 28.3644C19.9044 26.8454 21.1877 25.6406 22.8115 24.7763C24.4353 23.912 26.2687 23.4668 28.3115 23.4668C30.3544 23.4668 32.1877 23.912 33.8115 24.7763C35.4353 25.6406 36.7187 26.8454 37.6353 28.3644C38.552 29.8835 39.0234 31.612 39.0234 33.5239C39.0234 35.4358 38.552 37.1644 37.6353 38.6835C36.7187 40.2025 35.4353 41.4073 33.8115 42.2716C32.1877 43.1358 30.3544 43.5811 28.3115 43.5811C26.2687 43.5811 24.4353 43.1358 22.8115 42.2716ZM30.9568 38.343C31.7425 37.8716 32.371 37.243 32.8425 36.4049C33.3139 35.5668 33.5234 34.5978 33.5234 33.5239C33.5234 32.4501 33.2877 31.4811 32.8425 30.643C32.371 29.8049 31.7687 29.1501 30.9568 28.7049C30.171 28.2335 29.2806 28.0239 28.3115 28.0239C27.3425 28.0239 26.452 28.2597 25.6663 28.7049C24.8806 29.1763 24.252 29.8049 23.7806 30.643C23.3091 31.4811 23.0996 32.4501 23.0996 33.5239C23.0996 34.5978 23.3353 35.5668 23.7806 36.4049C24.252 37.243 24.8544 37.8977 25.6663 38.343C26.452 38.8144 27.3425 39.0239 28.3115 39.0239C29.2806 39.0501 30.171 38.8144 30.9568 38.343Z" fill="#0B7A01"/>
</g>
<defs>
<clipPath id="clip0_714_1367">
<rect width="134.095" height="44" fill="white"/>
</clipPath>
</defs>
</svg>
