<svg xmlns="http://www.w3.org/2000/svg" width="279.47" height="212.554" viewBox="0 0 279.47 212.554"><defs><style>.a{opacity:0.2;}.b{fill:#16aedb;}</style></defs><g class="a" transform="translate(-732.046 -1205.175)"><rect class="b" width="62.869" height="9.083" rx="4.541" transform="translate(922.637 1417.729) rotate(180)"/><rect class="b" width="70.248" height="9.083" rx="4.541" transform="translate(951.922 1383.534) rotate(180)"/><rect class="b" width="71.116" height="9.083" rx="4.541" transform="translate(1008.424 1349.34) rotate(180)"/><rect class="b" width="39.677" height="9.083" rx="4.541" transform="translate(1011.516 1332.332) rotate(180)"/><rect class="b" width="53.873" height="9.083" rx="4.541" transform="translate(964.143 1332.332) rotate(180)"/><rect class="b" width="53.873" height="9.083" rx="4.541" transform="translate(891.495 1348.562) rotate(180)"/><rect class="b" width="58.632" height="8.831" rx="4.416" transform="translate(974.418 1400.373) rotate(180)"/><rect class="b" width="53.222" height="8.831" rx="4.416" transform="translate(913.362 1366.367) rotate(180)"/><rect class="b" width="42.959" height="9.097" rx="4.549" transform="translate(905.397 1400.639) rotate(180)"/><rect class="b" width="57.579" height="9.097" rx="4.549" transform="translate(1000.696 1366.444) rotate(180)"/><rect class="b" width="52.169" height="9.097" rx="4.549" transform="translate(993.74 1299.205) rotate(180)"/><rect class="b" width="48.432" height="9.097" rx="4.549" transform="translate(981.889 1315.42) rotate(180)"/><rect class="b" width="42.959" height="9.097" rx="4.549" transform="translate(871.203 1383.541) rotate(180)"/><rect class="b" width="27.524" height="9.09" rx="4.545" transform="translate(989.876 1383.534) rotate(180)"/><rect class="b" width="23.66" height="9.09" rx="4.545" transform="translate(952.005 1417.54) rotate(180)"/><rect class="b" width="13.892" height="9.09" rx="4.545" transform="translate(935.102 1366.25) rotate(180)"/><rect class="b" width="13.892" height="9.09" rx="4.545" transform="translate(800.99 1248.392) rotate(180)"/><rect class="b" width="13.892" height="9.09" rx="4.545" transform="translate(829.994 1348.474) rotate(180)"/><rect class="b" width="28.696" height="9.09" rx="4.545" transform="translate(928.147 1349.247) rotate(180)"/><rect class="b" width="62.869" height="9.083" rx="4.541" transform="translate(920.977 1265.359) rotate(180)"/><rect class="b" width="62.869" height="9.083" rx="4.541" transform="translate(824.621 1265.359) rotate(180)"/><rect class="b" width="62.869" height="9.083" rx="4.541" transform="translate(860.643 1281.115) rotate(180)"/><rect class="b" width="42.959" height="9.097" rx="4.549" transform="translate(903.738 1248.268) rotate(180)"/><rect class="b" width="42.959" height="9.097" rx="4.549" transform="translate(779.614 1248.268) rotate(180)"/><rect class="b" width="43.557" height="9.097" rx="4.549" transform="translate(851.696 1248.268) rotate(180)"/><rect class="b" width="44.153" height="9.09" rx="4.545" transform="translate(913.348 1281.118) rotate(180)"/><rect class="b" width="17.103" height="9.09" rx="4.545" transform="translate(848.428 1265.661) rotate(180)"/><rect class="b" width="17.103" height="9.09" rx="4.545" transform="translate(791.08 1281.118) rotate(180)"/><rect class="b" width="52.393" height="9.09" rx="4.545" transform="translate(853.69 1366.232) rotate(180)"/><rect class="b" width="42.959" height="9.097" rx="4.549" transform="translate(853.87 1231.37) rotate(180)"/><rect class="b" width="43.557" height="9.097" rx="4.549" transform="translate(836.022 1214.272) rotate(180)"/><rect class="b" width="28.434" height="9.09" rx="4.545" transform="translate(803.897 1231.669) rotate(180)"/><rect class="b" width="70.248" height="9.083" rx="4.541" transform="translate(882.669 1314.763) rotate(180)"/><rect class="b" width="58.632" height="8.831" rx="4.416" transform="translate(905.166 1331.602) rotate(180)"/><rect class="b" width="53.222" height="8.831" rx="4.416" transform="translate(844.11 1297.596) rotate(180)"/><rect class="b" width="42.959" height="9.097" rx="4.549" transform="translate(836.146 1331.868) rotate(180)"/><rect class="b" width="57.579" height="9.097" rx="4.549" transform="translate(931.444 1297.673) rotate(180)"/><rect class="b" width="42.959" height="9.097" rx="4.549" transform="translate(801.951 1314.77) rotate(180)"/><rect class="b" width="27.524" height="9.09" rx="4.545" transform="translate(920.624 1314.763) rotate(180)"/><rect class="b" width="13.892" height="9.09" rx="4.545" transform="translate(865.85 1297.479) rotate(180)"/><rect class="b" width="52.393" height="9.09" rx="4.545" transform="translate(784.438 1297.461) rotate(180)"/></g></svg>