<svg xmlns="http://www.w3.org/2000/svg" width="279.47" height="212.554" viewBox="0 0 279.47 212.554"><defs><style>.a{opacity:0.2;}.b{fill:#16aedb;}</style></defs><g class="a"><rect class="b" width="62.869" height="9.083" rx="4.541" transform="translate(88.879 203.471)"/><rect class="b" width="70.248" height="9.083" rx="4.541" transform="translate(59.594 169.276)"/><rect class="b" width="71.116" height="9.083" rx="4.541" transform="translate(3.091 135.081)"/><rect class="b" width="39.677" height="9.083" rx="4.541" transform="translate(0 118.074)"/><rect class="b" width="53.872" height="9.083" rx="4.541" transform="translate(47.372 118.074)"/><rect class="b" width="53.872" height="9.083" rx="4.541" transform="translate(120.021 134.304)"/><rect class="b" width="58.632" height="8.831" rx="4.416" transform="translate(37.097 186.366)"/><rect class="b" width="53.222" height="8.831" rx="4.416" transform="translate(98.153 152.36)"/><rect class="b" width="42.959" height="9.097" rx="4.549" transform="translate(106.118 186.366)"/><rect class="b" width="57.579" height="9.097" rx="4.549" transform="translate(10.82 152.172)"/><rect class="b" width="52.169" height="9.097" rx="4.549" transform="translate(17.776 84.933)"/><rect class="b" width="48.432" height="9.097" rx="4.549" transform="translate(29.627 101.148)"/><rect class="b" width="42.959" height="9.097" rx="4.549" transform="translate(140.313 169.269)"/><rect class="b" width="27.524" height="9.09" rx="4.545" transform="translate(21.64 169.269)"/><rect class="b" width="23.66" height="9.09" rx="4.545" transform="translate(59.51 203.275)"/><rect class="b" width="13.892" height="9.09" rx="4.545" transform="translate(76.413 151.984)"/><rect class="b" width="13.892" height="9.09" rx="4.545" transform="translate(210.526 34.126)"/><rect class="b" width="13.892" height="9.09" rx="4.545" transform="translate(181.522 134.208)"/><rect class="b" width="28.696" height="9.09" rx="4.545" transform="translate(83.369 134.981)"/><rect class="b" width="62.869" height="9.083" rx="4.541" transform="translate(90.539 51.1)"/><rect class="b" width="62.869" height="9.083" rx="4.541" transform="translate(186.894 51.1)"/><rect class="b" width="62.869" height="9.083" rx="4.541" transform="translate(150.873 66.856)"/><rect class="b" width="42.959" height="9.097" rx="4.549" transform="translate(107.778 33.996)"/><rect class="b" width="42.959" height="9.097" rx="4.549" transform="translate(231.901 33.996)"/><rect class="b" width="43.557" height="9.097" rx="4.549" transform="translate(159.819 33.996)"/><rect class="b" width="44.153" height="9.09" rx="4.545" transform="translate(98.167 66.853)"/><rect class="b" width="17.103" height="9.09" rx="4.545" transform="translate(163.088 51.396)"/><rect class="b" width="17.103" height="9.09" rx="4.545" transform="translate(220.435 66.853)"/><rect class="b" width="52.393" height="9.09" rx="4.545" transform="translate(157.826 151.967)"/><rect class="b" width="42.959" height="9.097" rx="4.549" transform="translate(157.646 17.097)"/><rect class="b" width="43.557" height="9.097" rx="4.549" transform="translate(175.493 0)"/><rect class="b" width="28.434" height="9.09" rx="4.545" transform="translate(207.619 17.404)"/><rect class="b" width="70.248" height="9.083" rx="4.541" transform="translate(128.846 100.505)"/><rect class="b" width="58.632" height="8.831" rx="4.416" transform="translate(106.349 117.595)"/><rect class="b" width="53.222" height="8.831" rx="4.416" transform="translate(167.405 83.59)"/><rect class="b" width="42.959" height="9.097" rx="4.549" transform="translate(175.37 117.595)"/><rect class="b" width="57.579" height="9.097" rx="4.549" transform="translate(80.072 83.401)"/><rect class="b" width="42.959" height="9.097" rx="4.549" transform="translate(209.565 100.498)"/><rect class="b" width="27.524" height="9.09" rx="4.545" transform="translate(90.892 100.498)"/><rect class="b" width="13.892" height="9.09" rx="4.545" transform="translate(145.665 83.213)"/><rect class="b" width="52.393" height="9.09" rx="4.545" transform="translate(227.077 83.196)"/></g></svg>