<svg xmlns="http://www.w3.org/2000/svg" width="411.017" height="212.023" viewBox="0 0 411.017 212.023"><defs><style>.a{opacity:0.25;}.b{fill:#86ba90;}</style></defs><g class="a"><rect class="b" width="104.591" height="13.358" rx="6.679" transform="translate(4.546 0)"/><rect class="b" width="58.353" height="13.358" rx="6.679" transform="translate(0 25.013)"/><rect class="b" width="79.23" height="13.358" rx="6.679" transform="translate(69.67 25.013)"/><rect class="b" width="79.23" height="13.358" rx="6.679" transform="translate(176.515 1.144)"/><rect class="b" width="76.725" height="13.379" rx="6.69" transform="translate(26.143 73.733)"/><rect class="b" width="71.229" height="13.379" rx="6.69" transform="translate(43.572 49.885)"/><rect class="b" width="20.43" height="13.369" rx="6.684" transform="translate(309.621 148.464)"/><rect class="b" width="20.43" height="13.369" rx="6.684" transform="translate(266.964 1.273)"/><rect class="b" width="42.203" height="13.369" rx="6.684" transform="translate(122.611 0.137)"/><rect class="b" width="92.462" height="13.358" rx="6.679" transform="translate(133.155 123.511)"/><rect class="b" width="92.462" height="13.358" rx="6.679" transform="translate(274.865 123.511)"/><rect class="b" width="92.462" height="13.358" rx="6.679" transform="translate(221.888 100.339)"/><rect class="b" width="63.179" height="13.379" rx="6.69" transform="translate(158.509 148.646)"/><rect class="b" width="63.179" height="13.379" rx="6.69" transform="translate(341.057 148.646)"/><rect class="b" width="64.059" height="13.379" rx="6.69" transform="translate(235.047 148.646)"/><rect class="b" width="64.936" height="13.369" rx="6.684" transform="translate(144.375 100.334)"/><rect class="b" width="25.153" height="13.369" rx="6.684" transform="translate(239.853 123.066)"/><rect class="b" width="25.153" height="13.369" rx="6.684" transform="translate(324.194 100.334)"/><rect class="b" width="63.179" height="13.379" rx="6.69" transform="translate(231.85 173.498)"/><rect class="b" width="64.059" height="13.379" rx="6.69" transform="translate(258.098 198.643)"/><rect class="b" width="41.818" height="13.369" rx="6.684" transform="translate(305.345 173.058)"/><rect class="b" width="103.314" height="13.358" rx="6.679" transform="translate(189.494 50.851)"/><rect class="b" width="86.23" height="12.988" rx="6.494" transform="translate(156.408 26.087)"/><rect class="b" width="78.273" height="12.988" rx="6.494" transform="translate(246.203 76.1)"/><rect class="b" width="63.179" height="13.379" rx="6.69" transform="translate(257.917 25.696)"/><rect class="b" width="84.681" height="13.379" rx="6.69" transform="translate(117.762 75.986)"/><rect class="b" width="63.179" height="13.379" rx="6.69" transform="translate(308.207 50.841)"/><rect class="b" width="40.48" height="13.369" rx="6.684" transform="translate(133.675 50.851)"/><rect class="b" width="20.43" height="13.369" rx="6.684" transform="translate(214.23 76.272)"/><rect class="b" width="77.054" height="13.369" rx="6.684" transform="translate(333.963 76.298)"/></g></svg>