<svg xmlns="http://www.w3.org/2000/svg" width="411.017" height="212.023" viewBox="0 0 411.017 212.023"><defs><style>.a{opacity:0.25;}.b{fill:#f2a541;}</style></defs><g class="a"><rect class="b" width="104.591" height="13.358" rx="6.679" transform="translate(301.879 198.664)"/><rect class="b" width="58.353" height="13.358" rx="6.679" transform="translate(352.664 173.651)"/><rect class="b" width="79.23" height="13.358" rx="6.679" transform="translate(262.116 173.651)"/><rect class="b" width="79.23" height="13.358" rx="6.679" transform="translate(155.271 197.52)"/><rect class="b" width="76.725" height="13.379" rx="6.69" transform="translate(308.149 124.911)"/><rect class="b" width="71.229" height="13.379" rx="6.69" transform="translate(296.215 148.758)"/><rect class="b" width="20.43" height="13.369" rx="6.684" transform="translate(80.966 50.19)"/><rect class="b" width="20.43" height="13.369" rx="6.684" transform="translate(123.622 197.381)"/><rect class="b" width="42.203" height="13.369" rx="6.684" transform="translate(246.203 198.517)"/><rect class="b" width="92.462" height="13.358" rx="6.679" transform="translate(185.399 75.153)"/><rect class="b" width="92.462" height="13.358" rx="6.679" transform="translate(43.689 75.153)"/><rect class="b" width="92.462" height="13.358" rx="6.679" transform="translate(96.666 98.326)"/><rect class="b" width="63.179" height="13.379" rx="6.69" transform="translate(189.328 49.998)"/><rect class="b" width="63.179" height="13.379" rx="6.69" transform="translate(6.78 49.998)"/><rect class="b" width="64.059" height="13.379" rx="6.69" transform="translate(111.911 49.998)"/><rect class="b" width="64.936" height="13.369" rx="6.684" transform="translate(201.706 98.32)"/><rect class="b" width="25.153" height="13.369" rx="6.684" transform="translate(146.01 75.587)"/><rect class="b" width="25.153" height="13.369" rx="6.684" transform="translate(61.669 98.32)"/><rect class="b" width="63.179" height="13.379" rx="6.69" transform="translate(115.987 25.145)"/><rect class="b" width="64.059" height="13.379" rx="6.69" transform="translate(88.86 0)"/><rect class="b" width="41.818" height="13.369" rx="6.684" transform="translate(63.854 25.596)"/><rect class="b" width="103.314" height="13.358" rx="6.679" transform="translate(118.208 147.813)"/><rect class="b" width="86.23" height="12.988" rx="6.494" transform="translate(168.379 172.947)"/><rect class="b" width="78.273" height="12.988" rx="6.494" transform="translate(86.54 122.935)"/><rect class="b" width="63.179" height="13.379" rx="6.69" transform="translate(89.92 172.948)"/><rect class="b" width="84.681" height="13.379" rx="6.69" transform="translate(208.574 122.657)"/><rect class="b" width="63.179" height="13.379" rx="6.69" transform="translate(39.63 147.803)"/><rect class="b" width="40.48" height="13.369" rx="6.684" transform="translate(236.862 147.802)"/><rect class="b" width="20.43" height="13.369" rx="6.684" transform="translate(176.356 122.382)"/><rect class="b" width="77.054" height="13.369" rx="6.684" transform="translate(0 122.356)"/></g></svg>