<svg xmlns="http://www.w3.org/2000/svg" width="411.017" height="312.603" viewBox="0 0 411.017 312.603"><defs><style>.a{opacity:0.2;}.b{fill:#fff;}</style></defs><g class="a"><rect class="b" width="92.462" height="13.358" rx="6.679" transform="translate(130.714 299.245)"/><rect class="b" width="103.314" height="13.358" rx="6.679" transform="translate(87.645 248.954)"/><rect class="b" width="104.591" height="13.358" rx="6.679" transform="translate(4.546 198.664)"/><rect class="b" width="58.353" height="13.358" rx="6.679" transform="translate(0 173.651)"/><rect class="b" width="79.23" height="13.358" rx="6.679" transform="translate(69.67 173.651)"/><rect class="b" width="79.23" height="13.358" rx="6.679" transform="translate(176.515 197.52)"/><rect class="b" width="86.23" height="12.988" rx="6.494" transform="translate(54.559 274.089)"/><rect class="b" width="78.273" height="12.988" rx="6.494" transform="translate(144.354 224.077)"/><rect class="b" width="63.179" height="13.379" rx="6.69" transform="translate(156.068 274.089)"/><rect class="b" width="84.681" height="13.379" rx="6.69" transform="translate(15.913 223.799)"/><rect class="b" width="76.725" height="13.379" rx="6.69" transform="translate(26.143 124.911)"/><rect class="b" width="71.229" height="13.379" rx="6.69" transform="translate(43.572 148.758)"/><rect class="b" width="63.179" height="13.379" rx="6.69" transform="translate(206.358 248.944)"/><rect class="b" width="40.48" height="13.369" rx="6.684" transform="translate(31.826 248.944)"/><rect class="b" width="34.797" height="13.369" rx="6.684" transform="translate(87.522 298.957)"/><rect class="b" width="20.43" height="13.369" rx="6.684" transform="translate(112.381 223.524)"/><rect class="b" width="20.43" height="13.369" rx="6.684" transform="translate(309.621 50.19)"/><rect class="b" width="20.43" height="13.369" rx="6.684" transform="translate(266.965 197.381)"/><rect class="b" width="42.203" height="13.369" rx="6.684" transform="translate(122.611 198.517)"/><rect class="b" width="92.462" height="13.358" rx="6.679" transform="translate(133.155 75.153)"/><rect class="b" width="92.462" height="13.358" rx="6.679" transform="translate(274.866 75.153)"/><rect class="b" width="92.462" height="13.358" rx="6.679" transform="translate(221.889 98.326)"/><rect class="b" width="63.179" height="13.379" rx="6.69" transform="translate(158.509 49.998)"/><rect class="b" width="63.179" height="13.379" rx="6.69" transform="translate(341.058 49.998)"/><rect class="b" width="64.059" height="13.379" rx="6.69" transform="translate(235.047 49.998)"/><rect class="b" width="64.936" height="13.369" rx="6.684" transform="translate(144.375 98.32)"/><rect class="b" width="25.153" height="13.369" rx="6.684" transform="translate(239.853 75.588)"/><rect class="b" width="25.153" height="13.369" rx="6.684" transform="translate(324.195 98.32)"/><rect class="b" width="77.054" height="13.369" rx="6.684" transform="translate(232.114 223.498)"/><rect class="b" width="63.179" height="13.379" rx="6.69" transform="translate(231.85 25.145)"/><rect class="b" width="64.059" height="13.379" rx="6.69" transform="translate(258.098 0)"/><rect class="b" width="41.818" height="13.369" rx="6.684" transform="translate(305.346 25.596)"/><rect class="b" width="103.314" height="13.358" rx="6.679" transform="translate(189.494 147.813)"/><rect class="b" width="86.23" height="12.988" rx="6.494" transform="translate(156.408 172.947)"/><rect class="b" width="78.273" height="12.988" rx="6.494" transform="translate(246.203 122.935)"/><rect class="b" width="63.179" height="13.379" rx="6.69" transform="translate(257.917 172.948)"/><rect class="b" width="84.681" height="13.379" rx="6.69" transform="translate(117.762 122.658)"/><rect class="b" width="63.179" height="13.379" rx="6.69" transform="translate(308.207 147.803)"/><rect class="b" width="40.48" height="13.369" rx="6.684" transform="translate(133.675 147.802)"/><rect class="b" width="20.43" height="13.369" rx="6.684" transform="translate(214.23 122.382)"/><rect class="b" width="77.054" height="13.369" rx="6.684" transform="translate(333.963 122.356)"/></g></svg>