<svg xmlns="http://www.w3.org/2000/svg" width="411.017" height="312.603" viewBox="0 0 411.017 312.603"><defs><style>.a{opacity:0.2;}.b{fill:#a18276;}</style></defs><g class="a" transform="translate(0)"><rect class="b" width="92.462" height="13.358" rx="6.679" transform="translate(280.303 13.358) rotate(180)"/><rect class="b" width="103.314" height="13.358" rx="6.679" transform="translate(323.372 63.649) rotate(180)"/><rect class="b" width="104.591" height="13.358" rx="6.679" transform="translate(406.471 113.939) rotate(180)"/><rect class="b" width="58.353" height="13.358" rx="6.679" transform="translate(411.017 138.952) rotate(180)"/><rect class="b" width="79.23" height="13.358" rx="6.679" transform="translate(341.347 138.952) rotate(180)"/><rect class="b" width="79.23" height="13.358" rx="6.679" transform="translate(234.502 115.083) rotate(180)"/><rect class="b" width="86.23" height="12.988" rx="6.494" transform="translate(356.458 38.514) rotate(180)"/><rect class="b" width="78.273" height="12.988" rx="6.494" transform="translate(266.663 88.526) rotate(180)"/><rect class="b" width="63.179" height="13.379" rx="6.69" transform="translate(254.949 38.514) rotate(180)"/><rect class="b" width="84.681" height="13.379" rx="6.69" transform="translate(395.104 88.804) rotate(180)"/><rect class="b" width="76.725" height="13.379" rx="6.69" transform="translate(384.874 187.692) rotate(180)"/><rect class="b" width="71.229" height="13.379" rx="6.69" transform="translate(367.445 163.845) rotate(180)"/><rect class="b" width="63.179" height="13.379" rx="6.69" transform="translate(204.659 63.659) rotate(180)"/><rect class="b" width="40.48" height="13.369" rx="6.684" transform="translate(379.191 63.659) rotate(180)"/><rect class="b" width="34.797" height="13.369" rx="6.684" transform="translate(323.495 13.646) rotate(180)"/><rect class="b" width="20.43" height="13.369" rx="6.684" transform="translate(298.636 89.079) rotate(180)"/><rect class="b" width="20.43" height="13.369" rx="6.684" transform="translate(101.396 262.413) rotate(180)"/><rect class="b" width="20.43" height="13.369" rx="6.684" transform="translate(144.052 115.222) rotate(180)"/><rect class="b" width="42.203" height="13.369" rx="6.684" transform="translate(288.406 114.086) rotate(180)"/><rect class="b" width="92.462" height="13.358" rx="6.679" transform="translate(277.862 237.45) rotate(180)"/><rect class="b" width="92.462" height="13.358" rx="6.679" transform="translate(136.151 237.45) rotate(180)"/><rect class="b" width="92.462" height="13.358" rx="6.679" transform="translate(189.128 214.277) rotate(180)"/><rect class="b" width="63.179" height="13.379" rx="6.69" transform="translate(252.508 262.605) rotate(180)"/><rect class="b" width="63.179" height="13.379" rx="6.69" transform="translate(69.959 262.605) rotate(180)"/><rect class="b" width="64.059" height="13.379" rx="6.69" transform="translate(175.97 262.605) rotate(180)"/><rect class="b" width="64.936" height="13.369" rx="6.684" transform="translate(266.642 214.283) rotate(180)"/><rect class="b" width="25.153" height="13.369" rx="6.684" transform="translate(171.164 237.016) rotate(180)"/><rect class="b" width="25.153" height="13.369" rx="6.684" transform="translate(86.822 214.283) rotate(180)"/><rect class="b" width="77.054" height="13.369" rx="6.684" transform="translate(178.903 89.105) rotate(180)"/><rect class="b" width="63.179" height="13.379" rx="6.69" transform="translate(179.167 287.458) rotate(180)"/><rect class="b" width="64.059" height="13.379" rx="6.69" transform="translate(152.919 312.603) rotate(180)"/><rect class="b" width="41.818" height="13.369" rx="6.684" transform="translate(105.671 287.007) rotate(180)"/><rect class="b" width="103.314" height="13.358" rx="6.679" transform="translate(221.523 164.79) rotate(180)"/><rect class="b" width="86.23" height="12.988" rx="6.494" transform="translate(254.609 139.656) rotate(180)"/><rect class="b" width="78.273" height="12.988" rx="6.494" transform="translate(164.814 189.668) rotate(180)"/><rect class="b" width="63.179" height="13.379" rx="6.69" transform="translate(153.1 139.655) rotate(180)"/><rect class="b" width="84.681" height="13.379" rx="6.69" transform="translate(293.255 189.946) rotate(180)"/><rect class="b" width="63.179" height="13.379" rx="6.69" transform="translate(102.81 164.8) rotate(180)"/><rect class="b" width="40.48" height="13.369" rx="6.684" transform="translate(277.342 164.801) rotate(180)"/><rect class="b" width="20.43" height="13.369" rx="6.684" transform="translate(196.787 190.221) rotate(180)"/><rect class="b" width="77.054" height="13.369" rx="6.684" transform="translate(77.054 190.247) rotate(180)"/></g></svg>