<svg xmlns="http://www.w3.org/2000/svg" width="279" height="212.196" viewBox="0 0 279 212.196">
  <g id="Group_280" data-name="Group 280" transform="translate(-732.046 -1205.175)" opacity="0.24">
    <rect id="Rectangle_199" data-name="Rectangle 199" width="62.764" height="9.068" rx="4.534" transform="translate(922.316 1417.371) rotate(180)" fill="#064789"/>
    <rect id="Rectangle_200" data-name="Rectangle 200" width="70.13" height="9.068" rx="4.534" transform="translate(951.552 1383.234) rotate(180)" fill="#064789"/>
    <rect id="Rectangle_201" data-name="Rectangle 201" width="70.997" height="9.068" rx="4.534" transform="translate(1007.96 1349.097) rotate(180)" fill="#064789"/>
    <rect id="Rectangle_202" data-name="Rectangle 202" width="39.61" height="9.068" rx="4.534" transform="translate(1011.046 1332.118) rotate(180)" fill="#064789"/>
    <rect id="Rectangle_203" data-name="Rectangle 203" width="53.782" height="9.068" rx="4.534" transform="translate(963.753 1332.118) rotate(180)" fill="#064789"/>
    <rect id="Rectangle_204" data-name="Rectangle 204" width="53.782" height="9.068" rx="4.534" transform="translate(891.226 1348.321) rotate(180)" fill="#064789"/>
    <rect id="Rectangle_205" data-name="Rectangle 205" width="58.533" height="8.816" rx="4.408" transform="translate(974.011 1400.044) rotate(180)" fill="#064789"/>
    <rect id="Rectangle_206" data-name="Rectangle 206" width="53.132" height="8.816" rx="4.408" transform="translate(913.057 1366.096) rotate(180)" fill="#064789"/>
    <rect id="Rectangle_207" data-name="Rectangle 207" width="42.886" height="9.082" rx="4.541" transform="translate(905.106 1400.31) rotate(180)" fill="#064789"/>
    <rect id="Rectangle_208" data-name="Rectangle 208" width="57.482" height="9.082" rx="4.541" transform="translate(1000.244 1366.173) rotate(180)" fill="#064789"/>
    <rect id="Rectangle_209" data-name="Rectangle 209" width="52.081" height="9.082" rx="4.541" transform="translate(993.3 1299.047) rotate(180)" fill="#064789"/>
    <rect id="Rectangle_210" data-name="Rectangle 210" width="48.351" height="9.082" rx="4.541" transform="translate(981.469 1315.235) rotate(180)" fill="#064789"/>
    <rect id="Rectangle_211" data-name="Rectangle 211" width="42.886" height="9.082" rx="4.541" transform="translate(870.969 1383.241) rotate(180)" fill="#064789"/>
    <rect id="Rectangle_212" data-name="Rectangle 212" width="27.478" height="9.075" rx="4.537" transform="translate(989.442 1383.234) rotate(180)" fill="#064789"/>
    <rect id="Rectangle_213" data-name="Rectangle 213" width="23.62" height="9.075" rx="4.537" transform="translate(951.635 1417.183) rotate(180)" fill="#064789"/>
    <rect id="Rectangle_214" data-name="Rectangle 214" width="13.868" height="9.075" rx="4.537" transform="translate(934.761 1365.979) rotate(180)" fill="#064789"/>
    <rect id="Rectangle_215" data-name="Rectangle 215" width="13.868" height="9.075" rx="4.537" transform="translate(800.874 1248.319) rotate(180)" fill="#064789"/>
    <rect id="Rectangle_216" data-name="Rectangle 216" width="13.868" height="9.075" rx="4.537" transform="translate(829.829 1348.233) rotate(180)" fill="#064789"/>
    <rect id="Rectangle_217" data-name="Rectangle 217" width="28.648" height="9.075" rx="4.537" transform="translate(927.817 1349.004) rotate(180)" fill="#064789"/>
    <rect id="Rectangle_218" data-name="Rectangle 218" width="62.764" height="9.068" rx="4.534" transform="translate(920.659 1265.257) rotate(180)" fill="#064789"/>
    <rect id="Rectangle_219" data-name="Rectangle 219" width="62.764" height="9.068" rx="4.534" transform="translate(824.466 1265.257) rotate(180)" fill="#064789"/>
    <rect id="Rectangle_220" data-name="Rectangle 220" width="62.764" height="9.068" rx="4.534" transform="translate(860.427 1280.987) rotate(180)" fill="#064789"/>
    <rect id="Rectangle_221" data-name="Rectangle 221" width="42.886" height="9.082" rx="4.541" transform="translate(903.449 1248.196) rotate(180)" fill="#064789"/>
    <rect id="Rectangle_222" data-name="Rectangle 222" width="42.886" height="9.082" rx="4.541" transform="translate(779.534 1248.196) rotate(180)" fill="#064789"/>
    <rect id="Rectangle_223" data-name="Rectangle 223" width="43.484" height="9.082" rx="4.541" transform="translate(851.495 1248.196) rotate(180)" fill="#064789"/>
    <rect id="Rectangle_224" data-name="Rectangle 224" width="44.079" height="9.075" rx="4.537" transform="translate(913.044 1280.99) rotate(180)" fill="#064789"/>
    <rect id="Rectangle_225" data-name="Rectangle 225" width="17.074" height="9.075" rx="4.537" transform="translate(848.232 1265.559) rotate(180)" fill="#064789"/>
    <rect id="Rectangle_226" data-name="Rectangle 226" width="17.074" height="9.075" rx="4.537" transform="translate(790.981 1280.99) rotate(180)" fill="#064789"/>
    <rect id="Rectangle_227" data-name="Rectangle 227" width="52.304" height="9.075" rx="4.537" transform="translate(853.485 1365.961) rotate(180)" fill="#064789"/>
    <rect id="Rectangle_228" data-name="Rectangle 228" width="42.886" height="9.082" rx="4.541" transform="translate(853.665 1231.326) rotate(180)" fill="#064789"/>
    <rect id="Rectangle_229" data-name="Rectangle 229" width="43.484" height="9.082" rx="4.541" transform="translate(835.847 1214.257) rotate(180)" fill="#064789"/>
    <rect id="Rectangle_230" data-name="Rectangle 230" width="28.386" height="9.075" rx="4.537" transform="translate(803.776 1231.625) rotate(180)" fill="#064789"/>
    <rect id="Rectangle_231" data-name="Rectangle 231" width="70.13" height="9.068" rx="4.534" transform="translate(882.416 1314.579) rotate(180)" fill="#064789"/>
    <rect id="Rectangle_232" data-name="Rectangle 232" width="58.533" height="8.816" rx="4.408" transform="translate(904.875 1331.389) rotate(180)" fill="#064789"/>
    <rect id="Rectangle_233" data-name="Rectangle 233" width="53.132" height="8.816" rx="4.408" transform="translate(843.922 1297.44) rotate(180)" fill="#064789"/>
    <rect id="Rectangle_234" data-name="Rectangle 234" width="42.886" height="9.082" rx="4.541" transform="translate(835.97 1331.655) rotate(180)" fill="#064789"/>
    <rect id="Rectangle_235" data-name="Rectangle 235" width="57.482" height="9.082" rx="4.541" transform="translate(931.108 1297.517) rotate(180)" fill="#064789"/>
    <rect id="Rectangle_236" data-name="Rectangle 236" width="42.886" height="9.082" rx="4.541" transform="translate(801.833 1314.586) rotate(180)" fill="#064789"/>
    <rect id="Rectangle_237" data-name="Rectangle 237" width="27.478" height="9.075" rx="4.537" transform="translate(920.306 1314.579) rotate(180)" fill="#064789"/>
    <rect id="Rectangle_238" data-name="Rectangle 238" width="13.868" height="9.075" rx="4.537" transform="translate(865.625 1297.323) rotate(180)" fill="#064789"/>
    <rect id="Rectangle_239" data-name="Rectangle 239" width="52.304" height="9.075" rx="4.537" transform="translate(784.35 1297.306) rotate(180)" fill="#064789"/>
  </g>
</svg>
