<svg xmlns="http://www.w3.org/2000/svg" width="254.037" height="193.211" viewBox="0 0 254.037 193.211">
  <g id="Group_457" data-name="Group 457" opacity="0.2">
    <rect id="Rectangle_199" data-name="Rectangle 199" width="57.148" height="8.256" rx="4.128" transform="translate(173.247 193.21) rotate(180)" fill="#f2a541"/>
    <rect id="Rectangle_200" data-name="Rectangle 200" width="63.855" height="8.256" rx="4.128" transform="translate(199.866 162.128) rotate(180)" fill="#f2a541"/>
    <rect id="Rectangle_201" data-name="Rectangle 201" width="64.645" height="8.256" rx="4.128" transform="translate(251.227 131.045) rotate(180)" fill="#f2a541"/>
    <rect id="Rectangle_202" data-name="Rectangle 202" width="36.066" height="8.256" rx="4.128" transform="translate(254.037 115.585) rotate(180)" fill="#f2a541"/>
    <rect id="Rectangle_203" data-name="Rectangle 203" width="48.97" height="8.256" rx="4.128" transform="translate(210.976 115.585) rotate(180)" fill="#f2a541"/>
    <rect id="Rectangle_204" data-name="Rectangle 204" width="48.97" height="8.256" rx="4.128" transform="translate(144.938 130.338) rotate(180)" fill="#f2a541"/>
    <rect id="Rectangle_205" data-name="Rectangle 205" width="53.296" height="8.027" rx="4.014" transform="translate(220.316 177.434) rotate(180)" fill="#f2a541"/>
    <rect id="Rectangle_206" data-name="Rectangle 206" width="48.378" height="8.027" rx="4.014" transform="translate(164.816 146.522) rotate(180)" fill="#f2a541"/>
    <rect id="Rectangle_207" data-name="Rectangle 207" width="39.049" height="8.269" rx="4.135" transform="translate(157.576 177.675) rotate(180)" fill="#f2a541"/>
    <rect id="Rectangle_208" data-name="Rectangle 208" width="52.339" height="8.269" rx="4.135" transform="translate(244.202 146.593) rotate(180)" fill="#f2a541"/>
    <rect id="Rectangle_209" data-name="Rectangle 209" width="47.421" height="8.269" rx="4.135" transform="translate(237.879 85.473) rotate(180)" fill="#f2a541"/>
    <rect id="Rectangle_210" data-name="Rectangle 210" width="44.025" height="8.269" rx="4.135" transform="translate(227.107 100.212) rotate(180)" fill="#f2a541"/>
    <rect id="Rectangle_211" data-name="Rectangle 211" width="39.049" height="8.269" rx="4.135" transform="translate(126.493 162.134) rotate(180)" fill="#f2a541"/>
    <rect id="Rectangle_212" data-name="Rectangle 212" width="25.019" height="8.263" rx="4.131" transform="translate(234.367 162.128) rotate(180)" fill="#f2a541"/>
    <rect id="Rectangle_213" data-name="Rectangle 213" width="21.507" height="8.263" rx="4.131" transform="translate(199.943 193.039) rotate(180)" fill="#f2a541"/>
    <rect id="Rectangle_214" data-name="Rectangle 214" width="12.627" height="8.263" rx="4.131" transform="translate(184.578 146.416) rotate(180)" fill="#f2a541"/>
    <rect id="Rectangle_215" data-name="Rectangle 215" width="12.627" height="8.263" rx="4.131" transform="translate(62.67 39.284) rotate(180)" fill="#f2a541"/>
    <rect id="Rectangle_216" data-name="Rectangle 216" width="12.627" height="8.263" rx="4.131" transform="translate(89.034 130.258) rotate(180)" fill="#f2a541"/>
    <rect id="Rectangle_217" data-name="Rectangle 217" width="26.084" height="8.263" rx="4.131" transform="translate(178.255 130.96) rotate(180)" fill="#f2a541"/>
    <rect id="Rectangle_218" data-name="Rectangle 218" width="57.148" height="8.256" rx="4.128" transform="translate(171.738 54.706) rotate(180)" fill="#f2a541"/>
    <rect id="Rectangle_219" data-name="Rectangle 219" width="57.148" height="8.256" rx="4.128" transform="translate(84.151 54.706) rotate(180)" fill="#f2a541"/>
    <rect id="Rectangle_220" data-name="Rectangle 220" width="57.148" height="8.256" rx="4.128" transform="translate(116.894 69.028) rotate(180)" fill="#f2a541"/>
    <rect id="Rectangle_221" data-name="Rectangle 221" width="39.049" height="8.269" rx="4.135" transform="translate(156.067 39.171) rotate(180)" fill="#f2a541"/>
    <rect id="Rectangle_222" data-name="Rectangle 222" width="39.049" height="8.269" rx="4.135" transform="translate(43.24 39.171) rotate(180)" fill="#f2a541"/>
    <rect id="Rectangle_223" data-name="Rectangle 223" width="39.593" height="8.269" rx="4.135" transform="translate(108.762 39.171) rotate(180)" fill="#f2a541"/>
    <rect id="Rectangle_224" data-name="Rectangle 224" width="40.135" height="8.263" rx="4.131" transform="translate(164.804 69.032) rotate(180)" fill="#f2a541"/>
    <rect id="Rectangle_225" data-name="Rectangle 225" width="15.546" height="8.263" rx="4.131" transform="translate(105.791 54.981) rotate(180)" fill="#f2a541"/>
    <rect id="Rectangle_226" data-name="Rectangle 226" width="15.546" height="8.263" rx="4.131" transform="translate(53.662 69.032) rotate(180)" fill="#f2a541"/>
    <rect id="Rectangle_227" data-name="Rectangle 227" width="47.625" height="8.263" rx="4.131" transform="translate(110.574 146.4) rotate(180)" fill="#f2a541"/>
    <rect id="Rectangle_228" data-name="Rectangle 228" width="39.049" height="8.269" rx="4.135" transform="translate(110.738 23.811) rotate(180)" fill="#f2a541"/>
    <rect id="Rectangle_229" data-name="Rectangle 229" width="39.593" height="8.269" rx="4.135" transform="translate(94.515 8.269) rotate(180)" fill="#f2a541"/>
    <rect id="Rectangle_230" data-name="Rectangle 230" width="25.846" height="8.263" rx="4.131" transform="translate(65.312 24.083) rotate(180)" fill="#f2a541"/>
    <rect id="Rectangle_231" data-name="Rectangle 231" width="63.855" height="8.256" rx="4.128" transform="translate(136.916 99.615) rotate(180)" fill="#f2a541"/>
    <rect id="Rectangle_232" data-name="Rectangle 232" width="53.296" height="8.027" rx="4.014" transform="translate(157.366 114.921) rotate(180)" fill="#f2a541"/>
    <rect id="Rectangle_233" data-name="Rectangle 233" width="48.378" height="8.027" rx="4.014" transform="translate(101.866 84.01) rotate(180)" fill="#f2a541"/>
    <rect id="Rectangle_234" data-name="Rectangle 234" width="39.049" height="8.269" rx="4.135" transform="translate(94.626 115.163) rotate(180)" fill="#f2a541"/>
    <rect id="Rectangle_235" data-name="Rectangle 235" width="52.339" height="8.269" rx="4.135" transform="translate(181.252 84.08) rotate(180)" fill="#f2a541"/>
    <rect id="Rectangle_236" data-name="Rectangle 236" width="39.049" height="8.269" rx="4.135" transform="translate(63.544 99.622) rotate(180)" fill="#f2a541"/>
    <rect id="Rectangle_237" data-name="Rectangle 237" width="25.019" height="8.263" rx="4.131" transform="translate(171.417 99.615) rotate(180)" fill="#f2a541"/>
    <rect id="Rectangle_238" data-name="Rectangle 238" width="12.627" height="8.263" rx="4.131" transform="translate(121.628 83.903) rotate(180)" fill="#f2a541"/>
    <rect id="Rectangle_239" data-name="Rectangle 239" width="47.625" height="8.263" rx="4.131" transform="translate(47.625 83.888) rotate(180)" fill="#f2a541"/>
  </g>
</svg>
