<svg xmlns="http://www.w3.org/2000/svg" width="254.037" height="193.211" viewBox="0 0 254.037 193.211">
  <g id="Group_458" data-name="Group 458" opacity="0.2">
    <rect id="Rectangle_199" data-name="Rectangle 199" width="57.148" height="8.256" rx="4.128" transform="translate(80.791 184.954)" fill="#c94b62"/>
    <rect id="Rectangle_200" data-name="Rectangle 200" width="63.855" height="8.256" rx="4.128" transform="translate(54.171 153.871)" fill="#c94b62"/>
    <rect id="Rectangle_201" data-name="Rectangle 201" width="64.645" height="8.256" rx="4.128" transform="translate(2.81 122.788)" fill="#c94b62"/>
    <rect id="Rectangle_202" data-name="Rectangle 202" width="36.066" height="8.256" rx="4.128" transform="translate(0 107.328)" fill="#c94b62"/>
    <rect id="Rectangle_203" data-name="Rectangle 203" width="48.97" height="8.256" rx="4.128" transform="translate(43.061 107.328)" fill="#c94b62"/>
    <rect id="Rectangle_204" data-name="Rectangle 204" width="48.97" height="8.256" rx="4.128" transform="translate(109.099 122.081)" fill="#c94b62"/>
    <rect id="Rectangle_205" data-name="Rectangle 205" width="53.296" height="8.027" rx="4.014" transform="translate(33.721 169.406)" fill="#c94b62"/>
    <rect id="Rectangle_206" data-name="Rectangle 206" width="48.378" height="8.027" rx="4.014" transform="translate(89.221 138.495)" fill="#c94b62"/>
    <rect id="Rectangle_207" data-name="Rectangle 207" width="39.049" height="8.269" rx="4.135" transform="translate(96.461 169.406)" fill="#c94b62"/>
    <rect id="Rectangle_208" data-name="Rectangle 208" width="52.339" height="8.269" rx="4.135" transform="translate(9.835 138.323)" fill="#c94b62"/>
    <rect id="Rectangle_209" data-name="Rectangle 209" width="47.421" height="8.269" rx="4.135" transform="translate(16.158 77.203)" fill="#c94b62"/>
    <rect id="Rectangle_210" data-name="Rectangle 210" width="44.025" height="8.269" rx="4.135" transform="translate(26.93 91.943)" fill="#c94b62"/>
    <rect id="Rectangle_211" data-name="Rectangle 211" width="39.049" height="8.269" rx="4.135" transform="translate(127.544 153.864)" fill="#c94b62"/>
    <rect id="Rectangle_212" data-name="Rectangle 212" width="25.019" height="8.263" rx="4.131" transform="translate(19.671 153.864)" fill="#c94b62"/>
    <rect id="Rectangle_213" data-name="Rectangle 213" width="21.507" height="8.263" rx="4.131" transform="translate(54.095 184.776)" fill="#c94b62"/>
    <rect id="Rectangle_214" data-name="Rectangle 214" width="12.627" height="8.263" rx="4.131" transform="translate(69.459 138.153)" fill="#c94b62"/>
    <rect id="Rectangle_215" data-name="Rectangle 215" width="12.627" height="8.263" rx="4.131" transform="translate(191.367 31.02)" fill="#c94b62"/>
    <rect id="Rectangle_216" data-name="Rectangle 216" width="12.627" height="8.263" rx="4.131" transform="translate(165.003 121.994)" fill="#c94b62"/>
    <rect id="Rectangle_217" data-name="Rectangle 217" width="26.084" height="8.263" rx="4.131" transform="translate(75.782 122.697)" fill="#c94b62"/>
    <rect id="Rectangle_218" data-name="Rectangle 218" width="57.148" height="8.256" rx="4.128" transform="translate(82.299 46.45)" fill="#c94b62"/>
    <rect id="Rectangle_219" data-name="Rectangle 219" width="57.148" height="8.256" rx="4.128" transform="translate(169.886 46.45)" fill="#c94b62"/>
    <rect id="Rectangle_220" data-name="Rectangle 220" width="57.148" height="8.256" rx="4.128" transform="translate(137.143 60.772)" fill="#c94b62"/>
    <rect id="Rectangle_221" data-name="Rectangle 221" width="39.049" height="8.269" rx="4.135" transform="translate(97.97 30.902)" fill="#c94b62"/>
    <rect id="Rectangle_222" data-name="Rectangle 222" width="39.049" height="8.269" rx="4.135" transform="translate(210.797 30.902)" fill="#c94b62"/>
    <rect id="Rectangle_223" data-name="Rectangle 223" width="39.593" height="8.269" rx="4.135" transform="translate(145.275 30.902)" fill="#c94b62"/>
    <rect id="Rectangle_224" data-name="Rectangle 224" width="40.135" height="8.263" rx="4.131" transform="translate(89.234 60.768)" fill="#c94b62"/>
    <rect id="Rectangle_225" data-name="Rectangle 225" width="15.546" height="8.263" rx="4.131" transform="translate(148.246 46.718)" fill="#c94b62"/>
    <rect id="Rectangle_226" data-name="Rectangle 226" width="15.546" height="8.263" rx="4.131" transform="translate(200.375 60.768)" fill="#c94b62"/>
    <rect id="Rectangle_227" data-name="Rectangle 227" width="47.625" height="8.263" rx="4.131" transform="translate(143.463 138.137)" fill="#c94b62"/>
    <rect id="Rectangle_228" data-name="Rectangle 228" width="39.049" height="8.269" rx="4.135" transform="translate(143.3 15.541)" fill="#c94b62"/>
    <rect id="Rectangle_229" data-name="Rectangle 229" width="39.593" height="8.269" rx="4.135" transform="translate(159.523 0)" fill="#c94b62"/>
    <rect id="Rectangle_230" data-name="Rectangle 230" width="25.846" height="8.263" rx="4.131" transform="translate(188.725 15.82)" fill="#c94b62"/>
    <rect id="Rectangle_231" data-name="Rectangle 231" width="63.855" height="8.256" rx="4.128" transform="translate(117.121 91.358)" fill="#c94b62"/>
    <rect id="Rectangle_232" data-name="Rectangle 232" width="53.296" height="8.027" rx="4.014" transform="translate(96.671 106.893)" fill="#c94b62"/>
    <rect id="Rectangle_233" data-name="Rectangle 233" width="48.378" height="8.027" rx="4.014" transform="translate(152.171 75.982)" fill="#c94b62"/>
    <rect id="Rectangle_234" data-name="Rectangle 234" width="39.049" height="8.269" rx="4.135" transform="translate(159.411 106.893)" fill="#c94b62"/>
    <rect id="Rectangle_235" data-name="Rectangle 235" width="52.339" height="8.269" rx="4.135" transform="translate(72.785 75.81)" fill="#c94b62"/>
    <rect id="Rectangle_236" data-name="Rectangle 236" width="39.049" height="8.269" rx="4.135" transform="translate(190.493 91.352)" fill="#c94b62"/>
    <rect id="Rectangle_237" data-name="Rectangle 237" width="25.019" height="8.263" rx="4.131" transform="translate(82.621 91.352)" fill="#c94b62"/>
    <rect id="Rectangle_238" data-name="Rectangle 238" width="12.627" height="8.263" rx="4.131" transform="translate(132.409 75.64)" fill="#c94b62"/>
    <rect id="Rectangle_239" data-name="Rectangle 239" width="47.625" height="8.263" rx="4.131" transform="translate(206.412 75.624)" fill="#c94b62"/>
  </g>
</svg>
