<svg xmlns="http://www.w3.org/2000/svg" width="279.47" height="212.554" viewBox="0 0 279.47 212.554">
  <g id="Group_460" data-name="Group 460" opacity="0.2">
    <rect id="Rectangle_199" data-name="Rectangle 199" width="62.869" height="9.083" rx="4.541" transform="translate(127.722 203.471)" fill="#c94b62"/>
    <rect id="Rectangle_200" data-name="Rectangle 200" width="70.248" height="9.083" rx="4.541" transform="translate(149.628 169.276)" fill="#c94b62"/>
    <rect id="Rectangle_201" data-name="Rectangle 201" width="71.116" height="9.083" rx="4.541" transform="translate(205.262 135.081)" fill="#c94b62"/>
    <rect id="Rectangle_202" data-name="Rectangle 202" width="39.677" height="9.083" rx="4.541" transform="translate(239.793 118.074)" fill="#c94b62"/>
    <rect id="Rectangle_203" data-name="Rectangle 203" width="53.872" height="9.083" rx="4.541" transform="translate(178.225 118.074)" fill="#c94b62"/>
    <rect id="Rectangle_204" data-name="Rectangle 204" width="53.872" height="9.083" rx="4.541" transform="translate(105.576 134.304)" fill="#c94b62"/>
    <rect id="Rectangle_205" data-name="Rectangle 205" width="58.632" height="8.831" rx="4.416" transform="translate(183.741 186.366)" fill="#c94b62"/>
    <rect id="Rectangle_206" data-name="Rectangle 206" width="53.222" height="8.831" rx="4.416" transform="translate(128.095 152.36)" fill="#c94b62"/>
    <rect id="Rectangle_207" data-name="Rectangle 207" width="42.959" height="9.097" rx="4.549" transform="translate(130.393 186.366)" fill="#c94b62"/>
    <rect id="Rectangle_208" data-name="Rectangle 208" width="57.579" height="9.097" rx="4.549" transform="translate(211.071 152.171)" fill="#c94b62"/>
    <rect id="Rectangle_209" data-name="Rectangle 209" width="52.169" height="9.097" rx="4.549" transform="translate(209.525 84.933)" fill="#c94b62"/>
    <rect id="Rectangle_210" data-name="Rectangle 210" width="48.432" height="9.097" rx="4.549" transform="translate(201.411 101.148)" fill="#c94b62"/>
    <rect id="Rectangle_211" data-name="Rectangle 211" width="42.959" height="9.097" rx="4.549" transform="translate(96.198 169.269)" fill="#c94b62"/>
    <rect id="Rectangle_212" data-name="Rectangle 212" width="27.524" height="9.09" rx="4.545" transform="translate(230.306 169.269)" fill="#c94b62"/>
    <rect id="Rectangle_213" data-name="Rectangle 213" width="23.66" height="9.09" rx="4.545" transform="translate(196.3 203.275)" fill="#c94b62"/>
    <rect id="Rectangle_214" data-name="Rectangle 214" width="13.892" height="9.09" rx="4.545" transform="translate(189.165 151.984)" fill="#c94b62"/>
    <rect id="Rectangle_215" data-name="Rectangle 215" width="13.892" height="9.09" rx="4.545" transform="translate(55.052 34.126)" fill="#c94b62"/>
    <rect id="Rectangle_216" data-name="Rectangle 216" width="13.892" height="9.09" rx="4.545" transform="translate(84.056 134.208)" fill="#c94b62"/>
    <rect id="Rectangle_217" data-name="Rectangle 217" width="28.696" height="9.09" rx="4.545" transform="translate(167.405 134.981)" fill="#c94b62"/>
    <rect id="Rectangle_218" data-name="Rectangle 218" width="62.869" height="9.083" rx="4.541" transform="translate(126.062 51.1)" fill="#c94b62"/>
    <rect id="Rectangle_219" data-name="Rectangle 219" width="62.869" height="9.083" rx="4.541" transform="translate(29.706 51.1)" fill="#c94b62"/>
    <rect id="Rectangle_220" data-name="Rectangle 220" width="62.869" height="9.083" rx="4.541" transform="translate(65.728 66.856)" fill="#c94b62"/>
    <rect id="Rectangle_221" data-name="Rectangle 221" width="42.959" height="9.097" rx="4.549" transform="translate(128.733 33.996)" fill="#c94b62"/>
    <rect id="Rectangle_222" data-name="Rectangle 222" width="42.959" height="9.097" rx="4.549" transform="translate(4.61 33.996)" fill="#c94b62"/>
    <rect id="Rectangle_223" data-name="Rectangle 223" width="43.557" height="9.097" rx="4.549" transform="translate(76.094 33.996)" fill="#c94b62"/>
    <rect id="Rectangle_224" data-name="Rectangle 224" width="44.153" height="9.09" rx="4.545" transform="translate(137.15 66.853)" fill="#c94b62"/>
    <rect id="Rectangle_225" data-name="Rectangle 225" width="17.103" height="9.09" rx="4.545" transform="translate(99.279 51.396)" fill="#c94b62"/>
    <rect id="Rectangle_226" data-name="Rectangle 226" width="17.103" height="9.09" rx="4.545" transform="translate(41.932 66.853)" fill="#c94b62"/>
    <rect id="Rectangle_227" data-name="Rectangle 227" width="52.393" height="9.09" rx="4.545" transform="translate(69.252 151.967)" fill="#c94b62"/>
    <rect id="Rectangle_228" data-name="Rectangle 228" width="42.959" height="9.097" rx="4.549" transform="translate(78.865 17.097)" fill="#c94b62"/>
    <rect id="Rectangle_229" data-name="Rectangle 229" width="43.557" height="9.097" rx="4.549" transform="translate(60.42 0)" fill="#c94b62"/>
    <rect id="Rectangle_230" data-name="Rectangle 230" width="28.434" height="9.09" rx="4.545" transform="translate(43.417 17.404)" fill="#c94b62"/>
    <rect id="Rectangle_231" data-name="Rectangle 231" width="70.248" height="9.083" rx="4.541" transform="translate(80.376 100.505)" fill="#c94b62"/>
    <rect id="Rectangle_232" data-name="Rectangle 232" width="58.632" height="8.831" rx="4.416" transform="translate(114.489 117.595)" fill="#c94b62"/>
    <rect id="Rectangle_233" data-name="Rectangle 233" width="53.222" height="8.831" rx="4.416" transform="translate(58.843 83.589)" fill="#c94b62"/>
    <rect id="Rectangle_234" data-name="Rectangle 234" width="42.959" height="9.097" rx="4.549" transform="translate(61.141 117.595)" fill="#c94b62"/>
    <rect id="Rectangle_235" data-name="Rectangle 235" width="57.579" height="9.097" rx="4.549" transform="translate(141.819 83.401)" fill="#c94b62"/>
    <rect id="Rectangle_236" data-name="Rectangle 236" width="42.959" height="9.097" rx="4.549" transform="translate(26.947 100.498)" fill="#c94b62"/>
    <rect id="Rectangle_237" data-name="Rectangle 237" width="27.524" height="9.09" rx="4.545" transform="translate(161.054 100.498)" fill="#c94b62"/>
    <rect id="Rectangle_238" data-name="Rectangle 238" width="13.892" height="9.09" rx="4.545" transform="translate(119.913 83.213)" fill="#c94b62"/>
    <rect id="Rectangle_239" data-name="Rectangle 239" width="52.393" height="9.09" rx="4.545" transform="translate(0 83.196)" fill="#c94b62"/>
  </g>
</svg>
