<svg xmlns="http://www.w3.org/2000/svg" width="411.017" height="312.603" viewBox="0 0 411.017 312.603"><defs><style>.a{opacity:0.2;}.b{fill:#a18276;}</style></defs><g class="a" transform="translate(-732.046 -1205.175)"><rect class="b" width="92.462" height="13.358" rx="6.679" transform="translate(1012.348 1517.778) rotate(180)"/><rect class="b" width="103.314" height="13.358" rx="6.679" transform="translate(1055.417 1467.488) rotate(180)"/><rect class="b" width="104.591" height="13.358" rx="6.679" transform="translate(1138.516 1417.198) rotate(180)"/><rect class="b" width="58.353" height="13.358" rx="6.679" transform="translate(1143.063 1392.185) rotate(180)"/><rect class="b" width="79.23" height="13.358" rx="6.679" transform="translate(1073.392 1392.185) rotate(180)"/><rect class="b" width="79.23" height="13.358" rx="6.679" transform="translate(966.547 1416.054) rotate(180)"/><rect class="b" width="86.23" height="12.988" rx="6.494" transform="translate(1088.503 1492.252) rotate(180)"/><rect class="b" width="78.273" height="12.988" rx="6.494" transform="translate(998.708 1442.24) rotate(180)"/><rect class="b" width="63.179" height="13.379" rx="6.69" transform="translate(986.994 1492.643) rotate(180)"/><rect class="b" width="84.681" height="13.379" rx="6.69" transform="translate(1127.149 1442.353) rotate(180)"/><rect class="b" width="76.725" height="13.379" rx="6.69" transform="translate(1116.92 1343.465) rotate(180)"/><rect class="b" width="71.229" height="13.379" rx="6.69" transform="translate(1099.491 1367.313) rotate(180)"/><rect class="b" width="63.179" height="13.379" rx="6.69" transform="translate(936.704 1467.499) rotate(180)"/><rect class="b" width="40.48" height="13.369" rx="6.684" transform="translate(1111.237 1467.488) rotate(180)"/><rect class="b" width="34.797" height="13.369" rx="6.684" transform="translate(1055.541 1517.501) rotate(180)"/><rect class="b" width="20.43" height="13.369" rx="6.684" transform="translate(1030.682 1442.068) rotate(180)"/><rect class="b" width="20.43" height="13.369" rx="6.684" transform="translate(833.442 1268.734) rotate(180)"/><rect class="b" width="20.43" height="13.369" rx="6.684" transform="translate(876.098 1415.925) rotate(180)"/><rect class="b" width="42.203" height="13.369" rx="6.684" transform="translate(1020.452 1417.061) rotate(180)"/><rect class="b" width="92.462" height="13.358" rx="6.679" transform="translate(1009.907 1293.687) rotate(180)"/><rect class="b" width="92.462" height="13.358" rx="6.679" transform="translate(868.197 1293.687) rotate(180)"/><rect class="b" width="92.462" height="13.358" rx="6.679" transform="translate(921.174 1316.859) rotate(180)"/><rect class="b" width="63.179" height="13.379" rx="6.69" transform="translate(984.553 1268.552) rotate(180)"/><rect class="b" width="63.179" height="13.379" rx="6.69" transform="translate(802.005 1268.552) rotate(180)"/><rect class="b" width="64.059" height="13.379" rx="6.69" transform="translate(908.016 1268.552) rotate(180)"/><rect class="b" width="64.936" height="13.369" rx="6.684" transform="translate(998.688 1316.864) rotate(180)"/><rect class="b" width="25.153" height="13.369" rx="6.684" transform="translate(903.209 1294.131) rotate(180)"/><rect class="b" width="25.153" height="13.369" rx="6.684" transform="translate(818.868 1316.864) rotate(180)"/><rect class="b" width="77.054" height="13.369" rx="6.684" transform="translate(910.948 1442.042) rotate(180)"/><rect class="b" width="63.179" height="13.379" rx="6.69" transform="translate(911.212 1243.7) rotate(180)"/><rect class="b" width="64.059" height="13.379" rx="6.69" transform="translate(884.964 1218.554) rotate(180)"/><rect class="b" width="41.818" height="13.369" rx="6.684" transform="translate(837.717 1244.14) rotate(180)"/><rect class="b" width="103.314" height="13.358" rx="6.679" transform="translate(953.568 1366.346) rotate(180)"/><rect class="b" width="86.23" height="12.988" rx="6.494" transform="translate(986.654 1391.11) rotate(180)"/><rect class="b" width="78.273" height="12.988" rx="6.494" transform="translate(896.859 1341.098) rotate(180)"/><rect class="b" width="63.179" height="13.379" rx="6.69" transform="translate(885.145 1391.502) rotate(180)"/><rect class="b" width="84.681" height="13.379" rx="6.69" transform="translate(1025.301 1341.212) rotate(180)"/><rect class="b" width="63.179" height="13.379" rx="6.69" transform="translate(834.855 1366.357) rotate(180)"/><rect class="b" width="40.48" height="13.369" rx="6.684" transform="translate(1009.387 1366.346) rotate(180)"/><rect class="b" width="20.43" height="13.369" rx="6.684" transform="translate(928.833 1340.926) rotate(180)"/><rect class="b" width="77.054" height="13.369" rx="6.684" transform="translate(809.099 1340.9) rotate(180)"/></g></svg>