<svg xmlns="http://www.w3.org/2000/svg" width="279.47" height="212.554" viewBox="0 0 279.47 212.554">
  <g id="Group_98" data-name="Group 98" transform="translate(-732.046 -1205.175)" opacity="0.2">
    <rect id="Rectangle_199" data-name="Rectangle 199" width="62.869" height="9.083" rx="4.541" transform="translate(922.637 1417.729) rotate(180)" fill="#f2a541"/>
    <rect id="Rectangle_200" data-name="Rectangle 200" width="70.248" height="9.083" rx="4.541" transform="translate(951.922 1383.534) rotate(180)" fill="#f2a541"/>
    <rect id="Rectangle_201" data-name="Rectangle 201" width="71.116" height="9.083" rx="4.541" transform="translate(1008.424 1349.34) rotate(180)" fill="#f2a541"/>
    <rect id="Rectangle_202" data-name="Rectangle 202" width="39.677" height="9.083" rx="4.541" transform="translate(1011.516 1332.332) rotate(180)" fill="#f2a541"/>
    <rect id="Rectangle_203" data-name="Rectangle 203" width="53.873" height="9.083" rx="4.541" transform="translate(964.143 1332.332) rotate(180)" fill="#f2a541"/>
    <rect id="Rectangle_204" data-name="Rectangle 204" width="53.873" height="9.083" rx="4.541" transform="translate(891.495 1348.562) rotate(180)" fill="#f2a541"/>
    <rect id="Rectangle_205" data-name="Rectangle 205" width="58.632" height="8.831" rx="4.416" transform="translate(974.418 1400.373) rotate(180)" fill="#f2a541"/>
    <rect id="Rectangle_206" data-name="Rectangle 206" width="53.222" height="8.831" rx="4.416" transform="translate(913.362 1366.367) rotate(180)" fill="#f2a541"/>
    <rect id="Rectangle_207" data-name="Rectangle 207" width="42.959" height="9.097" rx="4.549" transform="translate(905.397 1400.639) rotate(180)" fill="#f2a541"/>
    <rect id="Rectangle_208" data-name="Rectangle 208" width="57.579" height="9.097" rx="4.549" transform="translate(1000.696 1366.444) rotate(180)" fill="#f2a541"/>
    <rect id="Rectangle_209" data-name="Rectangle 209" width="52.169" height="9.097" rx="4.549" transform="translate(993.74 1299.205) rotate(180)" fill="#f2a541"/>
    <rect id="Rectangle_210" data-name="Rectangle 210" width="48.432" height="9.097" rx="4.549" transform="translate(981.889 1315.42) rotate(180)" fill="#f2a541"/>
    <rect id="Rectangle_211" data-name="Rectangle 211" width="42.959" height="9.097" rx="4.549" transform="translate(871.203 1383.541) rotate(180)" fill="#f2a541"/>
    <rect id="Rectangle_212" data-name="Rectangle 212" width="27.524" height="9.09" rx="4.545" transform="translate(989.876 1383.534) rotate(180)" fill="#f2a541"/>
    <rect id="Rectangle_213" data-name="Rectangle 213" width="23.66" height="9.09" rx="4.545" transform="translate(952.005 1417.54) rotate(180)" fill="#f2a541"/>
    <rect id="Rectangle_214" data-name="Rectangle 214" width="13.892" height="9.09" rx="4.545" transform="translate(935.102 1366.25) rotate(180)" fill="#f2a541"/>
    <rect id="Rectangle_215" data-name="Rectangle 215" width="13.892" height="9.09" rx="4.545" transform="translate(800.99 1248.392) rotate(180)" fill="#f2a541"/>
    <rect id="Rectangle_216" data-name="Rectangle 216" width="13.892" height="9.09" rx="4.545" transform="translate(829.994 1348.474) rotate(180)" fill="#f2a541"/>
    <rect id="Rectangle_217" data-name="Rectangle 217" width="28.696" height="9.09" rx="4.545" transform="translate(928.147 1349.247) rotate(180)" fill="#f2a541"/>
    <rect id="Rectangle_218" data-name="Rectangle 218" width="62.869" height="9.083" rx="4.541" transform="translate(920.977 1265.359) rotate(180)" fill="#f2a541"/>
    <rect id="Rectangle_219" data-name="Rectangle 219" width="62.869" height="9.083" rx="4.541" transform="translate(824.621 1265.359) rotate(180)" fill="#f2a541"/>
    <rect id="Rectangle_220" data-name="Rectangle 220" width="62.869" height="9.083" rx="4.541" transform="translate(860.643 1281.115) rotate(180)" fill="#f2a541"/>
    <rect id="Rectangle_221" data-name="Rectangle 221" width="42.959" height="9.097" rx="4.549" transform="translate(903.738 1248.268) rotate(180)" fill="#f2a541"/>
    <rect id="Rectangle_222" data-name="Rectangle 222" width="42.959" height="9.097" rx="4.549" transform="translate(779.614 1248.268) rotate(180)" fill="#f2a541"/>
    <rect id="Rectangle_223" data-name="Rectangle 223" width="43.557" height="9.097" rx="4.549" transform="translate(851.696 1248.268) rotate(180)" fill="#f2a541"/>
    <rect id="Rectangle_224" data-name="Rectangle 224" width="44.153" height="9.09" rx="4.545" transform="translate(913.348 1281.118) rotate(180)" fill="#f2a541"/>
    <rect id="Rectangle_225" data-name="Rectangle 225" width="17.103" height="9.09" rx="4.545" transform="translate(848.428 1265.661) rotate(180)" fill="#f2a541"/>
    <rect id="Rectangle_226" data-name="Rectangle 226" width="17.103" height="9.09" rx="4.545" transform="translate(791.08 1281.118) rotate(180)" fill="#f2a541"/>
    <rect id="Rectangle_227" data-name="Rectangle 227" width="52.393" height="9.09" rx="4.545" transform="translate(853.69 1366.232) rotate(180)" fill="#f2a541"/>
    <rect id="Rectangle_228" data-name="Rectangle 228" width="42.959" height="9.097" rx="4.549" transform="translate(853.87 1231.37) rotate(180)" fill="#f2a541"/>
    <rect id="Rectangle_229" data-name="Rectangle 229" width="43.557" height="9.097" rx="4.549" transform="translate(836.022 1214.272) rotate(180)" fill="#f2a541"/>
    <rect id="Rectangle_230" data-name="Rectangle 230" width="28.434" height="9.09" rx="4.545" transform="translate(803.897 1231.669) rotate(180)" fill="#f2a541"/>
    <rect id="Rectangle_231" data-name="Rectangle 231" width="70.248" height="9.083" rx="4.541" transform="translate(882.669 1314.763) rotate(180)" fill="#f2a541"/>
    <rect id="Rectangle_232" data-name="Rectangle 232" width="58.632" height="8.831" rx="4.416" transform="translate(905.166 1331.602) rotate(180)" fill="#f2a541"/>
    <rect id="Rectangle_233" data-name="Rectangle 233" width="53.222" height="8.831" rx="4.416" transform="translate(844.11 1297.596) rotate(180)" fill="#f2a541"/>
    <rect id="Rectangle_234" data-name="Rectangle 234" width="42.959" height="9.097" rx="4.549" transform="translate(836.146 1331.868) rotate(180)" fill="#f2a541"/>
    <rect id="Rectangle_235" data-name="Rectangle 235" width="57.579" height="9.097" rx="4.549" transform="translate(931.444 1297.673) rotate(180)" fill="#f2a541"/>
    <rect id="Rectangle_236" data-name="Rectangle 236" width="42.959" height="9.097" rx="4.549" transform="translate(801.951 1314.77) rotate(180)" fill="#f2a541"/>
    <rect id="Rectangle_237" data-name="Rectangle 237" width="27.524" height="9.09" rx="4.545" transform="translate(920.624 1314.763) rotate(180)" fill="#f2a541"/>
    <rect id="Rectangle_238" data-name="Rectangle 238" width="13.892" height="9.09" rx="4.545" transform="translate(865.85 1297.479) rotate(180)" fill="#f2a541"/>
    <rect id="Rectangle_239" data-name="Rectangle 239" width="52.393" height="9.09" rx="4.545" transform="translate(784.438 1297.461) rotate(180)" fill="#f2a541"/>
  </g>
</svg>
