<?xml version="1.0" encoding="utf-8" standalone="yes"?>
<!DOCTYPE svg PUBLIC "-//W3C//DTD SVG 1.1//EN" "http://www.w3.org/Graphics/SVG/1.1/DTD/svg11.dtd">
<svg width="660" height="456" viewBox="0 0 660 456" style="fill:none;stroke:none;fill-rule:evenodd;clip-rule:evenodd;stroke-linecap:round;stroke-linejoin:round;stroke-miterlimit:1.5;" version="1.1" xmlns="http://www.w3.org/2000/svg" xmlns:xlink="http://www.w3.org/1999/xlink"><style id="fontImports">@import url("https://fonts.googleapis.com/css2?family=Roboto+Slab:wght@400;700&amp;display=block");</style><g id="items" style="isolation: isolate"><g id="blend" style="mix-blend-mode:normal"><g id="g-root-4.cu_sy_1luanad17w1wy7-fill" data-item-order="999859844" data-item-id="4.cu_sy_1luanad17w1wy7" data-item-class="Part Indexed Fill Stroke" data-item-index="4" data-renderer-id="0" transform="translate(182, 254.00897216796875)"></g><g id="g-root-3.cu_sy_dfh4yt17w1x5a-fill" data-item-order="999859846" data-item-id="3.cu_sy_dfh4yt17w1x5a" data-item-class="Part Indexed Fill Stroke" data-item-index="3" data-renderer-id="0" transform="translate(302, 38)"></g><g id="g-root-1.cu_sy_qqxnc517w1vkc-fill" data-item-order="999859848" data-item-id="1.cu_sy_qqxnc517w1vkc" data-item-class="Part Indexed Indexed_1 Fill Stroke" data-item-index="1" data-renderer-id="0" transform="translate(110, 38)"></g><g id="g-root-7.cu_sy_zntlr917w1wxu-fill" data-item-order="999859850" data-item-id="7.cu_sy_zntlr917w1wxu" data-item-class="Part Indexed Fill Stroke" data-item-index="7" data-renderer-id="0" transform="translate(182.8800048828125, 172.60491943359375)"></g><g id="g-root-6.cu_sy_143n3vp17w1w5l-fill" data-item-order="999859852" data-item-id="6.cu_sy_143n3vp17w1w5l" data-item-class="Part Indexed Fill Stroke" data-item-index="6" data-renderer-id="0" transform="translate(302, 172.60491943359375)"></g><g id="g-root-2.cu_sy_mb457p17w1wcl-fill" data-item-order="999859854" data-item-id="2.cu_sy_mb457p17w1wcl" data-item-class="Part Indexed Fill Stroke" data-item-index="2" data-renderer-id="0" transform="translate(254, 61.99102783203125)"></g><g id="g-root-5.cu_sy_1cza44l17w1vcw-fill" data-item-order="999859856" data-item-id="5.cu_sy_1cza44l17w1vcw" data-item-class="Part Indexed Fill Stroke ColorFillGray ColorStrokeBlack" data-item-index="5" data-renderer-id="0" transform="translate(254.8800048828125, 163)"></g><g id="g-root-tx_strategi_8yeoo517w1vrd-fill" data-item-order="1000000000" data-item-id="tx_strategi_8yeoo517w1vrd" data-item-class="Label Stroke Indexed ColorStrokeBlack" data-item-index="2" data-renderer-id="0" transform="translate(206, 2)"><g id="tx_strategi_8yeoo517w1vrd-fill" stroke="none" fill="#484848"><g><text style="font: 20px &quot;Roboto Slab&quot;, serif; white-space: pre;" font-size="20px" font-family="'Roboto Slab', serif"><tspan x="16.79" y="35" dominant-baseline="ideographic">Strategic Expertise</tspan></text></g></g></g><g id="g-root-targ_mgp3l1185vwug-fill" data-item-order="1000000000" data-item-id="targ_mgp3l1185vwug" data-item-class="Icon Stroke Indexed InsideFill InsideColorFill" data-item-index="2" data-renderer-id="0" transform="translate(278, 98)"></g><g id="g-root-tx_business_1q88q5h17w1xxe-fill" data-item-order="1000000000" data-item-id="tx_business_1q88q5h17w1xxe" data-item-class="Label Stroke Indexed Indexed_1 ColorStrokeBlack" data-item-index="1" data-renderer-id="0" transform="translate(2, 122)"><g id="tx_business_1q88q5h17w1xxe-fill" stroke="none" fill="#484848"><g><text style="font: 20px &quot;Roboto Slab&quot;, serif; white-space: pre;" font-size="20px" font-family="'Roboto Slab', serif"><tspan x="19.25" y="35" dominant-baseline="ideographic">Business</tspan></text></g></g></g><g id="g-root-wire_1ulj0it185xb7t-fill" data-item-order="1000000000" data-item-id="wire_1ulj0it185xb7t" data-item-class="Icon Stroke Indexed Indexed_1 InsideFill InsideColorFill" data-item-index="1" data-renderer-id="0" transform="translate(170, 110)"></g><g id="g-root-idea_1d2zn8l185vwuf-fill" data-item-order="1000000000" data-item-id="idea_1d2zn8l185vwuf" data-item-class="Icon Stroke Indexed InsideFill InsideColorFill" data-item-index="3" data-renderer-id="0" transform="translate(386, 110)"></g><g id="g-root-tx_consulta_m98pyd17w1xc8-fill" data-item-order="1000000000" data-item-id="tx_consulta_m98pyd17w1xc8" data-item-class="Label Stroke Indexed ColorStrokeBlack" data-item-index="3" data-renderer-id="0" transform="translate(506, 121.99993896484375)"><g id="tx_consulta_m98pyd17w1xc8-fill" stroke="none" fill="#484848"><g><text style="font: 20px &quot;Roboto Slab&quot;, serif; white-space: pre;" font-size="20px" font-family="'Roboto Slab', serif"><tspan x="12" y="35" dominant-baseline="ideographic">Consultancy</tspan></text></g></g></g><g id="g-root-arro_1lwr885185vx1h-fill" data-item-order="1000000000" data-item-id="arro_1lwr885185vx1h" data-item-class="Icon Stroke Indexed InsideFill" data-item-index="5" data-renderer-id="0" transform="translate(278, 176)"></g><g id="g-root-assi_93zn1h185vw9a-fill" data-item-order="1000000000" data-item-id="assi_93zn1h185vw9a" data-item-class="Icon Stroke Indexed InsideFill InsideColorFill ColorStrokeGray" data-item-index="7" data-renderer-id="0" transform="translate(206, 218)"></g><g id="g-root-boxe_4mx6qt185vuvg-fill" data-item-order="1000000000" data-item-id="boxe_4mx6qt185vuvg" data-item-class="Icon Stroke Indexed InsideFill InsideColorFill" data-item-index="6" data-renderer-id="0" transform="translate(350, 218)"></g><g id="g-root-tx_skilldev_4gprad17w1xj9-fill" data-item-order="1000000000" data-item-id="tx_skilldev_4gprad17w1xj9" data-item-class="Label Stroke Indexed ColorStrokeBlack" data-item-index="7" data-renderer-id="0" transform="translate(38, 266)"><g id="tx_skilldev_4gprad17w1xj9-fill" stroke="none" fill="#484848"><g><text style="font: 20px &quot;Roboto Slab&quot;, serif; white-space: pre;" font-size="20px" font-family="'Roboto Slab', serif"><tspan x="96.53" y="35" dominant-baseline="ideographic">Skill </tspan><tspan x="16.56" y="59" dominant-baseline="ideographic">Development</tspan></text></g></g></g><g id="g-root-tx_knowledg_1hbcrqd17w1wjy-fill" data-item-order="1000000000" data-item-id="tx_knowledg_1hbcrqd17w1wjy" data-item-class="Label Stroke Indexed ColorStrokeBlack" data-item-index="6" data-renderer-id="0" transform="translate(434, 265.99993896484375)"><g id="tx_knowledg_1hbcrqd17w1wjy-fill" stroke="none" fill="#484848"><g><text style="font: 20px &quot;Roboto Slab&quot;, serif; white-space: pre;" font-size="20px" font-family="'Roboto Slab', serif"><tspan x="12" y="35" dominant-baseline="ideographic">Knowledge </tspan><tspan x="12" y="59" dominant-baseline="ideographic">Transfer</tspan></text></g></g></g><g id="g-root-2_v97qed185vuvf-fill" data-item-order="1000000000" data-item-id="2_v97qed185vuvf" data-item-class="Icon Stroke Indexed InsideFill InsideColorFill" data-item-index="4" data-renderer-id="0" transform="translate(278, 302)"></g><g id="g-root-tx_training_zkp8bp17w1vrb-fill" data-item-order="1000000000" data-item-id="tx_training_zkp8bp17w1vrb" data-item-class="Label Stroke Indexed ColorStrokeBlack" data-item-index="4" data-renderer-id="0" transform="translate(254, 409.99993896484375)"><g id="tx_training_zkp8bp17w1vrb-fill" stroke="none" fill="#484848"><g><text style="font: 20px &quot;Roboto Slab&quot;, serif; white-space: pre;" font-size="20px" font-family="'Roboto Slab', serif"><tspan x="16.72" y="35" dominant-baseline="ideographic">Training</tspan></text></g></g></g><g id="g-root-4.cu_sy_1luanad17w1wy7-stroke" data-item-order="999859844" data-item-id="4.cu_sy_1luanad17w1wy7" data-item-class="Part Indexed Fill Stroke" data-item-index="4" data-renderer-id="0" transform="translate(182, 254.00897216796875)"><g id="4.cu_sy_1luanad17w1wy7-stroke" fill="none" stroke-linecap="round" stroke-linejoin="round" stroke-miterlimit="4" stroke="#113c5f" stroke-width="4"><g><path d="M 249.12 24.385997C 234.654 30.568997 218.727 33.990997 202 33.990997C 174.985 33.990997 150.056 25.063997 130 9.999997C 109.944 25.063997 85.015 33.990997 58 33.990997C 41.273 33.990997 25.346 30.568997 10.88 24.385997C 10.299 29.172997 10 34.046997 10 38.990997C 10 105.264997 63.726 158.990997 130 158.990997C 196.274 158.990997 250 105.264997 250 38.990997C 250 34.046997 249.701 29.172997 249.12 24.385997Z"></path></g></g></g><g id="g-root-3.cu_sy_dfh4yt17w1x5a-stroke" data-item-order="999859846" data-item-id="3.cu_sy_dfh4yt17w1x5a" data-item-class="Part Indexed Fill Stroke" data-item-index="3" data-renderer-id="0" transform="translate(302, 38)"><g id="3.cu_sy_dfh4yt17w1x5a-stroke" fill="none" stroke-linecap="round" stroke-linejoin="round" stroke-miterlimit="4" stroke="#ad3c54" stroke-width="4"><g><path d="M 57.12 144.605C 57.701 139.818 58 134.944 58 130C 58 90.74 39.147 55.884 10 33.991C 30.056 18.927 54.985 10 82 10C 148.274 10 202 63.726 202 130C 202 179.547 171.971 222.081 129.12 240.395C 123.88 197.206 95.696 161.091 57.12 144.605Z"></path></g></g></g><g id="g-root-1.cu_sy_qqxnc517w1vkc-stroke" data-item-order="999859848" data-item-id="1.cu_sy_qqxnc517w1vkc" data-item-class="Part Indexed Indexed_1 Fill Stroke" data-item-index="1" data-renderer-id="0" transform="translate(110, 38)"><g id="1.cu_sy_qqxnc517w1vkc-stroke" fill="none" stroke-linecap="round" stroke-linejoin="round" stroke-miterlimit="4" stroke="#d69239" stroke-width="4"><g><path d="M 154.88 144.605C 154.299 139.818 154 134.944 154 130C 154 90.74 172.853 55.884 202 33.991C 181.944 18.927 157.015 10 130 10C 63.726 10 10 63.726 10 130C 10 179.547 40.029 222.081 82.88 240.395C 88.12 197.206 116.304 161.091 154.88 144.605Z"></path></g></g></g><g id="g-root-7.cu_sy_zntlr917w1wxu-stroke" data-item-order="999859850" data-item-id="7.cu_sy_zntlr917w1wxu" data-item-class="Part Indexed Fill Stroke" data-item-index="7" data-renderer-id="0" transform="translate(182.8800048828125, 172.60491943359375)"><g id="7.cu_sy_zntlr917w1wxu-stroke" fill="none" stroke-linecap="round" stroke-linejoin="round" stroke-miterlimit="4" stroke="#d69239" stroke-width="4"><g><path d="M 81.999995 9.999989C 43.423995 26.485989 15.239995 62.600989 9.999995 105.789989C 24.465995 111.972989 40.392995 115.394989 57.119995 115.394989C 84.134995 115.394989 109.063995 106.467989 129.119995 91.403989C 103.643995 72.267989 86.030995 43.227989 81.999995 9.999989Z"></path></g></g></g><g id="g-root-6.cu_sy_143n3vp17w1w5l-stroke" data-item-order="999859852" data-item-id="6.cu_sy_143n3vp17w1w5l" data-item-class="Part Indexed Fill Stroke" data-item-index="6" data-renderer-id="0" transform="translate(302, 172.60491943359375)"><g id="6.cu_sy_143n3vp17w1w5l-stroke" fill="none" stroke-linecap="round" stroke-linejoin="round" stroke-miterlimit="4" stroke="#1e647e" stroke-width="4"><g><path d="M 57.12 9.999989C 53.089 43.227989 35.476 72.267989 10 91.403989C 30.056 106.467989 54.985 115.394989 82 115.394989C 98.727 115.394989 114.654 111.972989 129.12 105.789989C 123.88 62.600989 95.696 26.485989 57.12 9.999989Z"></path></g></g></g><g id="g-root-2.cu_sy_mb457p17w1wcl-stroke" data-item-order="999859854" data-item-id="2.cu_sy_mb457p17w1wcl" data-item-class="Part Indexed Fill Stroke" data-item-index="2" data-renderer-id="0" transform="translate(254, 61.99102783203125)"><g id="2.cu_sy_mb457p17w1wcl-stroke" fill="none" stroke-linecap="round" stroke-linejoin="round" stroke-miterlimit="4" stroke="#dd8433" stroke-width="4"><g><path d="M 105.12 120.614003C 105.701 115.827003 106 110.953003 106 106.009003C 106 66.749003 87.147 31.893003 58 10.000003C 28.853 31.893003 10 66.749003 10 106.009003C 10 110.953003 10.299 115.827003 10.88 120.614003C 25.346 114.431003 41.273 111.009003 58 111.009003C 74.727 111.009003 90.654 114.431003 105.12 120.614003Z"></path></g></g></g><g id="g-root-5.cu_sy_1cza44l17w1vcw-stroke" data-item-order="999859856" data-item-id="5.cu_sy_1cza44l17w1vcw" data-item-class="Part Indexed Fill Stroke ColorFillGray ColorStrokeBlack" data-item-index="5" data-renderer-id="0" transform="translate(254.8800048828125, 163)"><g id="5.cu_sy_1cza44l17w1vcw-stroke" fill="none" stroke-linecap="round" stroke-linejoin="round" stroke-miterlimit="4" stroke="#484848" stroke-width="4"><g><path d="M 104.239995 19.605C 100.207995 52.833 82.595995 81.873 57.119995 101.009C 31.643995 81.873 14.030995 52.833 9.999995 19.605C 24.465995 13.422 40.392995 10 57.119995 10C 73.846995 10 89.773995 13.422 104.239995 19.605Z"></path></g></g></g><g id="g-root-tx_strategi_8yeoo517w1vrd-stroke" data-item-order="1000000000" data-item-id="tx_strategi_8yeoo517w1vrd" data-item-class="Label Stroke Indexed ColorStrokeBlack" data-item-index="2" data-renderer-id="0" transform="translate(206, 2)"></g><g id="g-root-targ_mgp3l1185vwug-stroke" data-item-order="1000000000" data-item-id="targ_mgp3l1185vwug" data-item-class="Icon Stroke Indexed InsideFill InsideColorFill" data-item-index="2" data-renderer-id="0" transform="translate(278, 98)"><g id="targ_mgp3l1185vwug-stroke" fill="none" stroke-linecap="round" stroke-linejoin="round" stroke-miterlimit="4" stroke="#ad3c54" stroke-width="2"><g><path d="M 34 11L 34 18.046M 11 34L 18.046 34M 34 57L 34 49.953999M 57 34L 49.953999 34M 15 34C 15 44.493412 23.50659 53 34 53C 44.493412 53 53 44.493412 53 34C 53 23.50659 44.493412 15 34 15C 23.50659 15 15 23.50659 15 34M 44.467999 28.23L 38 34.702C 39.298607 38.014671 38.095718 41.784019 35.118286 43.732109C 32.140854 45.680202 28.205244 45.272892 25.689873 42.756336C 23.1745 40.23978 22.769043 36.303978 24.718533 33.327461C 26.668024 30.350946 30.437941 29.149836 33.75 30.450001L 40.218002 23.98L 44.515999 23.98ZM 30.125999 37.442001C 30.125933 37.928055 30.519941 38.322121 31.006001 38.322121C 31.492058 38.322121 31.886066 37.928055 31.886 37.442001C 31.886066 36.95594 31.492058 36.561878 31.006001 36.561878C 30.519941 36.561878 30.125933 36.95594 30.125999 37.442001"></path></g></g></g><g id="g-root-tx_business_1q88q5h17w1xxe-stroke" data-item-order="1000000000" data-item-id="tx_business_1q88q5h17w1xxe" data-item-class="Label Stroke Indexed Indexed_1 ColorStrokeBlack" data-item-index="1" data-renderer-id="0" transform="translate(2, 122)"></g><g id="g-root-wire_1ulj0it185xb7t-stroke" data-item-order="1000000000" data-item-id="wire_1ulj0it185xb7t" data-item-class="Icon Stroke Indexed Indexed_1 InsideFill InsideColorFill" data-item-index="1" data-renderer-id="0" transform="translate(170, 110)"><g id="wire_1ulj0it185xb7t-stroke" fill="none" stroke-linecap="round" stroke-linejoin="round" stroke-miterlimit="4" stroke="#d69239" stroke-width="2"><g><path d="M 15 15.940001C 15 18.701424 17.238577 20.940001 20 20.940001C 22.761425 20.940001 25 18.701424 25 15.940001C 25 13.178576 22.761425 10.940001 20 10.940001C 17.238577 10.940001 15 13.178576 15 15.940001M 34 36.940002L 56 36.940002M 57 22L 53.48 31.68C 53.193699 32.471893 52.442059 32.999641 51.599998 33L 42 33M 43 36.940002L 43 56.939999M 14 45.939999L 11 56.939999M 11 26.940001L 14 45.939999L 20 45.939999M 32 55.119999L 28.799999 47.759998C 28.299385 46.669006 27.200167 45.978069 26 46L 20 46C 18.343147 46 17 44.656857 17 43L 17 27C 17.003565 25.731747 17.804272 24.602749 19 24.18C 20.178429 23.761303 21.493048 24.101837 22.32 25.040001L 25.880001 29.200001C 26.835159 30.30261 28.221209 30.937275 29.68 30.940001L 35 30.940001C 36.656853 30.940001 38 32.283146 38 33.940002C 38 35.596855 36.656853 36.940002 35 36.940002L 29.68 36.940002C 27.264915 36.944649 24.916172 36.150009 23 34.68L 23 40L 26 40C 29.6059 39.992516 32.866554 42.142658 34.279999 45.459999L 37.48 52.82C 38.077194 53.827171 38.033829 55.089752 37.368946 56.053577C 36.704063 57.017403 35.539177 57.506313 34.385578 57.305721C 33.231979 57.105129 32.300507 56.251694 32 55.120003ZM 44 22.84C 44.276142 22.84 44.5 23.063858 44.5 23.34C 44.5 23.616142 44.276142 23.84 44 23.84C 43.723858 23.84 43.5 23.616142 43.5 23.34C 43.5 23.063858 43.723858 22.84 44 22.84M 52 13.76C 47.329037 10.000938 40.670967 10.000938 36 13.76M 39.34 18.6C 42.050945 16.382454 45.949055 16.382454 48.66 18.6"></path></g></g></g><g id="g-root-idea_1d2zn8l185vwuf-stroke" data-item-order="1000000000" data-item-id="idea_1d2zn8l185vwuf" data-item-class="Icon Stroke Indexed InsideFill InsideColorFill" data-item-index="3" data-renderer-id="0" transform="translate(386, 110)"><g id="idea_1d2zn8l185vwuf-stroke" fill="none" stroke-linecap="round" stroke-linejoin="round" stroke-miterlimit="4" stroke="#ad3c54" stroke-width="2"><g><path d="M 37 32.968002L 31 32.968002M 40 21.968C 39.906944 18.693611 37.274391 16.061058 34 15.968C 30.725613 16.061058 28.093058 18.693611 28 21.968C 28.045399 24.047924 29.186134 25.949152 31 26.967999L 31 28.968L 37 28.968L 37 26.968C 38.813286 25.948555 39.953796 24.047695 40 21.968ZM 14.5 46.467999C 14.5 48.400997 16.067003 49.968002 18 49.968002C 19.932997 49.968002 21.5 48.400997 21.5 46.468002C 21.5 44.535004 19.932997 42.968002 18 42.968002C 16.067003 42.968002 14.5 44.535004 14.5 46.468002ZM 25 56.967999C 24.184053 53.768185 21.302212 51.528988 18 51.528988C 14.697788 51.528988 11.815947 53.768185 11 56.968002ZM 30.5 46.467999C 30.500002 48.400997 32.067005 49.968002 34 49.968002C 35.932999 49.968002 37.5 48.400997 37.5 46.468002C 37.5 44.535004 35.932999 42.968002 34 42.968002C 32.067005 42.968002 30.500002 44.535004 30.500002 46.468002ZM 41 56.967999C 40.184052 53.768185 37.302212 51.528988 34 51.528988C 30.697788 51.528988 27.815947 53.768185 27 56.968002ZM 46.5 46.467999C 46.5 48.400997 48.067005 49.968002 50 49.968002C 51.932999 49.968002 53.5 48.400997 53.5 46.468002C 53.5 44.535004 51.932999 42.968002 50 42.968002C 48.067005 42.968002 46.5 44.535004 46.5 46.468002ZM 57 56.967999C 56.184055 53.768185 53.302212 51.528988 50 51.528988C 46.697788 51.528988 43.815948 53.768185 43 56.968002ZM 34 10.968L 34 12.968M 41.778 14.190001L 40.363998 15.604M 45 20.968L 43 20.968M 26.222 14.190001L 27.636 15.604M 23 20.968L 25 20.968M 32 36.968002L 36 36.968002"></path></g></g></g><g id="g-root-tx_consulta_m98pyd17w1xc8-stroke" data-item-order="1000000000" data-item-id="tx_consulta_m98pyd17w1xc8" data-item-class="Label Stroke Indexed ColorStrokeBlack" data-item-index="3" data-renderer-id="0" transform="translate(506, 121.99993896484375)"></g><g id="g-root-arro_1lwr885185vx1h-stroke" data-item-order="1000000000" data-item-id="arro_1lwr885185vx1h" data-item-class="Icon Stroke Indexed InsideFill" data-item-index="5" data-renderer-id="0" transform="translate(278, 176)"><g id="arro_1lwr885185vx1h-stroke" fill="none" stroke-linecap="round" stroke-linejoin="round" stroke-miterlimit="4" stroke="#729e7a" stroke-width="2"><g><path d="M 44.066002 44C 44.065998 46.300819 45.931183 48.166 48.231998 48.166C 50.532818 48.166 52.397999 46.300819 52.397999 44C 52.397999 41.699181 50.532818 39.834 48.231998 39.834C 45.931183 39.834 44.065998 41.699181 44.065998 44M 45.453999 56.5L 56.563999 56.5C 55.899048 53.89912 54.057701 51.757942 51.585693 50.711067C 49.113686 49.664192 46.294624 49.831722 43.964001 51.164001M 15.602 44C 15.602 46.300819 17.467182 48.166 19.768 48.166C 22.068817 48.166 23.934 46.300819 23.934 44C 23.934 41.699181 22.068817 39.834 19.768 39.834C 17.467182 39.834 15.602 41.699181 15.602 44M 22.487999 56.5L 11.436 56.5C 12.098295 53.912041 13.925614 51.778793 16.381168 50.726917C 18.836721 49.675037 21.641655 49.823986 23.972 51.130005M 44.158001 56.5C 44.209476 52.827229 42.279564 49.411205 39.107155 47.559803C 35.934746 45.708397 32.011253 45.708397 28.838844 47.559803C 25.666435 49.411205 23.736523 52.827229 23.787998 56.499996ZM 28.684 34.461998C 31.572502 37.455845 36.012802 38.348686 39.834 36.704002M 27.85 37.517998C 27.85 40.841652 30.544352 43.536003 33.868004 43.536003C 37.19165 43.536003 39.886002 40.841652 39.886002 37.518002C 39.886002 34.194351 37.19165 31.500002 33.868004 31.500002C 30.544352 31.500002 27.85 34.194351 27.85 37.518002M 46.972 35.5C 46.972 35.5 40.972 29.5 40.972 24.5L 49.972 24.5L 33.972 11.5L 17.972 24.5L 26.972 24.5C 26.972 29.5 20.972 35.5 20.972 35.5"></path></g></g></g><g id="g-root-assi_93zn1h185vw9a-stroke" data-item-order="1000000000" data-item-id="assi_93zn1h185vw9a" data-item-class="Icon Stroke Indexed InsideFill InsideColorFill ColorStrokeGray" data-item-index="7" data-renderer-id="0" transform="translate(206, 218)"><g id="assi_93zn1h185vw9a-stroke" fill="none" stroke-linecap="round" stroke-linejoin="round" stroke-miterlimit="4" stroke="#888888" stroke-width="2"><g><path d="M 28.632 45.396C 28.631388 48.361095 31.034903 50.76511 34 50.76511C 36.965096 50.76511 39.368614 48.361095 39.368 45.396C 39.368614 42.430901 36.965096 40.02689 34 40.02689C 31.034903 40.02689 28.631388 42.430901 28.632 45.396M 41.669998 56.900002C 40.158646 54.068169 37.2099 52.2995 34 52.2995C 30.7901 52.2995 27.841356 54.068169 26.33 56.900002M 44.212002 45.396C 44.211388 48.361095 46.614902 50.76511 49.579998 50.76511C 52.545097 50.76511 54.948612 48.361095 54.947998 45.396C 54.948612 42.430901 52.545097 40.02689 49.579998 40.02689C 46.614902 40.02689 44.211388 42.430901 44.211998 45.396M 57 56.138C 55.202232 53.59993 52.232258 52.156391 49.125824 52.310799C 46.01939 52.46521 43.207211 54.196159 41.669998 56.899998M 13.052 45.396C 13.051388 48.361095 15.454903 50.76511 18.42 50.76511C 21.385098 50.76511 23.788612 48.361095 23.788 45.396C 23.788612 42.430901 21.385098 40.02689 18.42 40.02689C 15.454903 40.02689 13.051388 42.430901 13.052 45.396M 11 56.138C 12.797768 53.59993 15.767741 52.156391 18.874174 52.310799C 21.980608 52.46521 24.792789 54.196159 26.33 56.899998M 55.743999 24.726L 45.344002 35.125999L 40.23 36.148003L 41.251999 31.035999L 51.652 20.636C 52.778206 19.510122 54.603798 19.510122 55.73 20.636L 55.742001 20.647999C 56.28392 21.188044 56.588692 21.92152 56.589069 22.686584C 56.589443 23.451651 56.285389 24.185425 55.743999 24.726ZM 47.414001 15.596001L 42.273998 11.1L 17.732 11.1L 17.732 34.108002M 23.868 21.836L 25.911999 23.882L 30.002001 19.792M 23.868 32.062L 25.911999 34.108002L 30.002001 30.016001M 35.115997 22.858L 38.183998 22.858M 42.273998 30.016001L 46.363998 34.108002M 14.268 42C 16.776192 44.495247 20.266575 45.74181 23.788 45.400002M 29.848 42C 32.356342 44.494999 35.846611 45.741524 39.367996 45.399998M 45.428001 42C 47.936962 44.495327 51.427975 45.741856 54.950001 45.400002"></path></g></g></g><g id="g-root-boxe_4mx6qt185vuvg-stroke" data-item-order="1000000000" data-item-id="boxe_4mx6qt185vuvg" data-item-class="Icon Stroke Indexed InsideFill InsideColorFill" data-item-index="6" data-renderer-id="0" transform="translate(350, 218)"><g id="boxe_4mx6qt185vuvg-stroke" fill="none" stroke-linecap="round" stroke-linejoin="round" stroke-miterlimit="4" stroke="#1e647e" stroke-width="2"><g><path d="M 30.502001 16C 30.502001 18.761425 32.740578 21 35.501999 21C 38.263424 21 40.501999 18.761425 40.501999 16C 40.501999 13.238577 38.263424 11 35.501999 11C 32.740578 11 30.502001 13.238577 30.502001 16ZM 41.5 31L 41.5 25L 46.826 25C 49.959663 25 52.5 27.540337 52.5 30.674C 52.504101 32.683922 51.123322 34.431908 49.167068 34.893295C 47.210815 35.354683 45.194473 34.407925 44.300003 32.608002L 43.5 31.007999ZM 43.5 31L 47.5 31M 41.5 25L 29.5 25C 28.294224 24.999716 27.20545 25.721363 26.736 26.832001L 15.736 52.832001C 15.090932 54.358517 15.805485 56.118935 17.332001 56.764C 18.858517 57.409069 20.618931 56.694515 21.264 55.168003L 25.220001 45.818001L 29.528 47.386002C 30.710625 47.81736 31.498165 48.941166 31.5 50.200001L 31.5 54C 31.5 55.656857 32.843147 57 34.5 57C 36.156853 57 37.5 55.656857 37.5 54L 37.5 50.200001C 37.493534 46.417614 35.12841 43.040806 31.576002 41.742004L 27.559999 40.284L 31.488001 31L 41.5 31"></path></g></g></g><g id="g-root-tx_skilldev_4gprad17w1xj9-stroke" data-item-order="1000000000" data-item-id="tx_skilldev_4gprad17w1xj9" data-item-class="Label Stroke Indexed ColorStrokeBlack" data-item-index="7" data-renderer-id="0" transform="translate(38, 266)"></g><g id="g-root-tx_knowledg_1hbcrqd17w1wjy-stroke" data-item-order="1000000000" data-item-id="tx_knowledg_1hbcrqd17w1wjy" data-item-class="Label Stroke Indexed ColorStrokeBlack" data-item-index="6" data-renderer-id="0" transform="translate(434, 265.99993896484375)"></g><g id="g-root-2_v97qed185vuvf-stroke" data-item-order="1000000000" data-item-id="2_v97qed185vuvf" data-item-class="Icon Stroke Indexed InsideFill InsideColorFill" data-item-index="4" data-renderer-id="0" transform="translate(278, 302)"><g id="2_v97qed185vuvf-stroke" fill="none" stroke-linecap="round" stroke-linejoin="round" stroke-miterlimit="4" stroke="#113c5f" stroke-width="2"><g><path d="M 31.032 43L 13.032 43C 11.92743 43 11.032 42.104568 11.032 41L 11.032 13C 11.032 11.895431 11.92743 11 13.032 11L 53.032001 11C 54.13657 11 55.032001 11.895431 55.032001 13L 55.032001 39M 18.992001 19L 33.968002 33.975998M 33.968002 27.573999L 33.968002 33.975998L 27.566 33.975998M 18.992001 25.402L 18.992001 19L 25.394001 19M 56.967999 57L 56.967999 51.664001C 56.965794 47.982929 53.981075 45 50.300003 45.000004L 46.967999 45L 46.967999 36C 46.968002 34.343147 45.624855 33 43.968002 33C 42.311146 33 40.968002 34.343147 40.968002 36L 40.968002 50L 38.400002 47.838001C 37.516342 46.776508 35.939491 46.632343 34.877998 47.515999C 33.816509 48.399654 33.672344 49.976509 34.556 51.037998L 39.503998 57"></path></g></g></g><g id="g-root-tx_training_zkp8bp17w1vrb-stroke" data-item-order="1000000000" data-item-id="tx_training_zkp8bp17w1vrb" data-item-class="Label Stroke Indexed ColorStrokeBlack" data-item-index="4" data-renderer-id="0" transform="translate(254, 409.99993896484375)"></g></g></g></svg>